OxygenSans-Medium.ufo
<glyph name="exclam" format="1">
  <advance width="518.750002921"/>
  <unicode hex="0021"/>
  <outline>
    <contour>
      <point x="226.550001204" y="401.800000429" type="line"/>
      <point x="307.150002062" y="401.800000429" type="line"/>
      <point x="359.200002193" y="1205.29999793" type="line"/>
      <point x="359.200002193" y="1354.34999949" type="line"/>
      <point x="168.850001037" y="1354.34999949" type="line"/>
      <point x="168.850001037" y="1205.29999793" type="line"/>
    </contour>
    <contour>
      <point x="263.400001526" y="-10.1499999166" type="curve" smooth="yes"/>
      <point x="345.050001562" y="-10.1499999166"/>
      <point x="389.60000205" y="52.0000002384"/>
      <point x="389.60000205" y="116.500000596" type="curve" smooth="yes"/>
      <point x="389.60000205" y="181.550000966"/>
      <point x="345.050001562" y="243.250001132"/>
      <point x="263.400001526" y="243.250001132" type="curve" smooth="yes"/>
      <point x="182.550001442" y="243.250001132"/>
      <point x="137.100000978" y="181.550000966"/>
      <point x="137.100000978" y="116.500000596" type="curve" smooth="yes"/>
      <point x="137.100000978" y="52.0000002384"/>
      <point x="182.550001442" y="-10.1499999166"/>
    </contour>
  </outline>
</glyph>
<glyph name="quotedbl" format="1">
  <advance width="667.050002515"/>
  <unicode hex="0022"/>
  <outline>
    <contour>
      <point x="133.950000107" y="899.549998343" type="line"/>
      <point x="239.600001574" y="899.549998343" type="line"/>
      <point x="267.150001585" y="1361.19999933" type="line"/>
      <point x="111.399999857" y="1361.19999933" type="line"/>
    </contour>
    <contour>
      <point x="443.100001931" y="897.749998391" type="line"/>
      <point x="549.650003374" y="897.749998391" type="line"/>
      <point x="575.850003421" y="1361.19999933" type="line"/>
      <point x="420.550001681" y="1361.19999933" type="line"/>
    </contour>
  </outline>
</glyph>
<glyph name="numbersign" format="1">
  <advance width="1163.85000128"/>
  <unicode hex="0023"/>
  <outline>
    <contour>
      <point x="242.700000167" y="-18.849999845" type="line"/>
      <point x="375.250001609" y="-18.849999845" type="line"/>
      <point x="447.050001562" y="372.149999917" type="line"/>
      <point x="646.600000143" y="372.149999917" type="line"/>
      <point x="572.200000286" y="-18.849999845" type="line"/>
      <point x="720.450001419" y="-18.849999845" type="line"/>
      <point x="797.750001252" y="372.149999917" type="line"/>
      <point x="949.800002337" y="372.149999917" type="line"/>
      <point x="958.800002337" y="502.900001168" type="line"/>
      <point x="816.400001526" y="502.900001168" type="line"/>
      <point x="874.850001276" y="837.349999249" type="line"/>
      <point x="1019.1500023" y="837.349999249" type="line"/>
      <point x="1031.1500023" y="967.500000596" type="line"/>
      <point x="898.50000155" y="967.500000596" type="line"/>
      <point x="960.000001669" y="1331.50000012" type="line"/>
      <point x="827.800000191" y="1331.50000012" type="line"/>
      <point x="763.700000167" y="967.500000596" type="line"/>
      <point x="564.400001526" y="967.500000596" type="line"/>
      <point x="635.350001395" y="1331.50000012" type="line"/>
      <point x="485.30000031" y="1331.50000012" type="line"/>
      <point x="410.350000441" y="967.500000596" type="line"/>
      <point x="227.249999702" y="967.500000596" type="line"/>
      <point x="219.349999726" y="836.349999249" type="line"/>
      <point x="385.55000025" y="836.349999249" type="line"/>
      <point x="332.900000453" y="502.900001168" type="line"/>
      <point x="158.249999702" y="502.900001168" type="line"/>
      <point x="149.249999702" y="372.149999917" type="line"/>
      <point x="309.700000167" y="372.149999917" type="line"/>
    </contour>
    <contour>
      <point x="470.950001776" y="502.900001168" type="line"/>
      <point x="538.950001299" y="837.349999249" type="line"/>
      <point x="739.149999917" y="837.349999249" type="line"/>
      <point x="672.250000417" y="502.900001168" type="line"/>
    </contour>
  </outline>
</glyph>
<glyph name="dollar" format="1">
  <advance width="1163.80000019"/>
  <unicode hex="0024"/>
  <outline>
    <contour>
      <point x="544.899999976" y="-17.9059500025" type="line"/>
      <point x="345.323900919" y="-13.4029400158"/>
      <point x="217.193350551" y="52.0355942838"/>
      <point x="136.099999785" y="104.099999547" type="curve"/>
      <point x="202.000000238" y="258.900001168" type="line"/>
      <point x="285.300000072" y="200.350001395"/>
      <point x="421.300000787" y="147.900001645"/>
      <point x="577.600000143" y="147.900001645" type="curve" smooth="yes"/>
      <point x="750.099999309" y="147.900001645"/>
      <point x="842.949998677" y="209.800001383"/>
      <point x="846.999998569" y="364.300000548" type="curve" smooth="yes"/>
      <point x="850.149998486" y="478.849999607"/>
      <point x="795.149998486" y="531.749999583"/>
      <point x="650.899999738" y="584.899999022" type="curve" smooth="yes"/>
      <point x="424.499999642" y="665.299998879" type="line" smooth="yes"/>
      <point x="256.649999797" y="725.499998689"/>
      <point x="147.699999928" y="827.049999177"/>
      <point x="151.749999821" y="1012.09999931" type="curve" smooth="yes"/>
      <point x="157.46409967" y="1248.12199918"/>
      <point x="331.294449436" y="1352.34149986"/>
      <point x="544.899999976" y="1368.48499996" type="curve"/>
      <point x="544.899999976" y="1563.29999912" type="line"/>
      <point x="643.200000525" y="1563.29999912" type="line"/>
      <point x="643.951500505" y="1370.23299997" type="line"/>
      <point x="786.359450441" y="1363.78099993"/>
      <point x="916.440450439" y="1315.05850024"/>
      <point x="1001.85000104" y="1259.4000001" type="curve"/>
      <point x="933.350000679" y="1108.64999837" type="line"/>
      <point x="870.599999905" y="1139.19999862"/>
      <point x="748.549999774" y="1203.89999831"/>
      <point x="607.950000346" y="1203.89999831" type="curve" smooth="yes"/>
      <point x="465.500000596" y="1203.89999831"/>
      <point x="351.000001669" y="1158.74999839"/>
      <point x="347.400001764" y="1017.09999931" type="curve" smooth="yes"/>
      <point x="344.700001836" y="921.500000119"/>
      <point x="388.450001657" y="874.950000107"/>
      <point x="493.550000489" y="835.150000632" type="curve" smooth="yes"/>
      <point x="707.100000501" y="756.850000799" type="line" smooth="yes"/>
      <point x="917.350001156" y="680.550000727"/>
      <point x="1048.00000048" y="591.250000179"/>
      <point x="1042.15000063" y="363.900000453" type="curve" smooth="yes"/>
      <point x="1035.9062508" y="121.981890663"/>
      <point x="872.249250815" y="5.5221341981"/>
      <point x="643.35255052" y="-14.5560099588" type="curve"/>
      <point x="644.100000501" y="-204.099998832" type="line"/>
      <point x="544.899999976" y="-204.099998832" type="line"/>
    </contour>
  </outline>
</glyph>
<glyph name="percent" format="1">
  <advance width="1717.75000054"/>
  <unicode hex="0025"/>
  <outline>
    <contour>
      <point x="1327.85000056" y="-12.5500000119" type="curve" smooth="yes"/>
      <point x="1113.45000046" y="-12.5500000119"/>
      <point x="1003.7500003" y="140.449999988"/>
      <point x="1003.7500003" y="337.449999988" type="curve" smooth="yes"/>
      <point x="1003.7500003" y="535.449999988"/>
      <point x="1116.45000046" y="687.449999988"/>
      <point x="1327.85000056" y="687.449999988" type="curve" smooth="yes"/>
      <point x="1543.25000066" y="687.449999988"/>
      <point x="1652.95000082" y="538.449999988"/>
      <point x="1652.95000082" y="337.449999988" type="curve" smooth="yes"/>
      <point x="1652.95000082" y="140.449999988"/>
      <point x="1540.25000066" y="-12.5500000119"/>
    </contour>
    <contour>
      <point x="1328.75000054" y="89.1500006318" type="curve" smooth="yes"/>
      <point x="1467.80000019" y="89.1500006318"/>
      <point x="1527.20000005" y="199.05000037"/>
      <point x="1527.20000005" y="339.0" type="curve" smooth="yes"/>
      <point x="1527.20000005" y="483.849999607"/>
      <point x="1466.80000019" y="586.299999356"/>
      <point x="1328.75000054" y="586.299999356" type="curve" smooth="yes"/>
      <point x="1189.25000089" y="586.299999356"/>
      <point x="1127.85000104" y="478.399999619"/>
      <point x="1127.85000104" y="339.0" type="curve" smooth="yes"/>
      <point x="1127.85000104" y="195.150000393"/>
      <point x="1189.70000088" y="89.1500006318"/>
    </contour>
    <contour>
      <point x="389.799999952" y="765.800000668" type="curve" smooth="yes"/>
      <point x="528.849999607" y="765.800000668"/>
      <point x="588.249999464" y="875.700000405"/>
      <point x="588.249999464" y="1015.65000004" type="curve" smooth="yes"/>
      <point x="588.249999464" y="1160.49999964"/>
      <point x="527.849999607" y="1262.94999939"/>
      <point x="389.799999952" y="1262.94999939" type="curve" smooth="yes"/>
      <point x="250.30000031" y="1262.94999939"/>
      <point x="188.900000453" y="1155.04999965"/>
      <point x="188.900000453" y="1015.65000004" type="curve" smooth="yes"/>
      <point x="188.900000453" y="871.800000429"/>
      <point x="250.750000298" y="765.800000668"/>
    </contour>
    <contour>
      <point x="388.899999976" y="664.100000024" type="curve" smooth="yes"/>
      <point x="174.499999881" y="664.100000024"/>
      <point x="64.7999997139" y="817.100000024"/>
      <point x="64.7999997139" y="1014.10000002" type="curve" smooth="yes"/>
      <point x="64.7999997139" y="1212.10000002"/>
      <point x="177.499999881" y="1364.10000002"/>
      <point x="388.899999976" y="1364.10000002" type="curve" smooth="yes"/>
      <point x="604.300000072" y="1364.10000002"/>
      <point x="714.000000238" y="1215.10000002"/>
      <point x="714.000000238" y="1014.10000002" type="curve" smooth="yes"/>
      <point x="714.000000238" y="817.100000024"/>
      <point x="601.300000072" y="664.100000024"/>
    </contour>
    <contour>
      <point x="386.049999416" y="0.0" type="line"/>
      <point x="1167.99999952" y="1352.89999998" type="line"/>
      <point x="1323.05000085" y="1352.89999998" type="line"/>
      <point x="549.550000727" y="0.0" type="line"/>
    </contour>
  </outline>
</glyph>
<glyph name="ampersand" format="1">
  <advance width="1352.14999944"/>
  <unicode hex="0026"/>
  <outline>
    <contour>
      <point x="590.149999917" y="-8.64999979734" type="curve" smooth="yes"/>
      <point x="308.90000093" y="-8.64999979734"/>
      <point x="119.949999869" y="121.349999726"/>
      <point x="119.949999869" y="366.500000596" type="curve" smooth="yes"/>
      <point x="119.949999869" y="563.400000572"/>
      <point x="250.150000155" y="673.150000393"/>
      <point x="426.099999547" y="763.000000238" type="curve"/>
      <point x="337.400000095" y="859.999999762"/>
      <point x="278.799999714" y="947.249999702"/>
      <point x="278.799999714" y="1065.49999964" type="curve" smooth="yes"/>
      <point x="278.799999714" y="1254.90000021"/>
      <point x="423.55000025" y="1364.84999985"/>
      <point x="622.099999785" y="1364.84999985" type="curve" smooth="yes"/>
      <point x="804.049999416" y="1364.84999985"/>
      <point x="967.150000155" y="1269.60000014"/>
      <point x="967.150000155" y="1076.54999977" type="curve" smooth="yes"/>
      <point x="967.150000155" y="914.199999571"/>
      <point x="819.700000405" y="802.649999797"/>
      <point x="654.700001121" y="725.449999988" type="curve"/>
      <point x="1011.4999994" y="332.350001872" type="line"/>
      <point x="1060.5499993" y="385.350001872"/>
      <point x="1121.24999899" y="485.300001264"/>
      <point x="1154.799999" y="556.950001061" type="curve"/>
      <point x="1284.20000005" y="472.250000417" type="line"/>
      <point x="1247.34999996" y="392.800000429"/>
      <point x="1177.7500003" y="285.100000978"/>
      <point x="1116.05000037" y="219.550000966" type="curve"/>
      <point x="1285.70000088" y="42.1500003934" type="line"/>
      <point x="1128.99999952" y="-6.34999972582" type="line"/>
      <point x="1009.04999942" y="121.850000322" type="line"/>
      <point x="891.799999475" y="34.6000003815"/>
      <point x="764.499999166" y="-8.64999979734"/>
    </contour>
    <contour>
      <point x="597.849999845" y="130.300001264" type="curve" smooth="yes"/>
      <point x="720.299999118" y="130.300001264"/>
      <point x="823.399998903" y="161.850001276"/>
      <point x="907.999998569" y="228.200001001" type="curve"/>
      <point x="881.049997985" y="257.900001645"/>
      <point x="542.450000703" y="626.149998724"/>
      <point x="516.600000143" y="654.749999344" type="curve"/>
      <point x="386.90000093" y="588.399999619"/>
      <point x="294.550001204" y="506.750000298"/>
      <point x="294.550001204" y="375.60000062" type="curve" smooth="yes"/>
      <point x="294.550001204" y="217.750000775"/>
      <point x="410.850001037" y="130.300001264"/>
    </contour>
    <contour>
      <point x="562.550000489" y="831.500000834" type="curve"/>
      <point x="678.799999714" y="889.400000572"/>
      <point x="800.349998772" y="967.100000024"/>
      <point x="800.349998772" y="1078.69999969" type="curve" smooth="yes"/>
      <point x="800.349998772" y="1179.34999925"/>
      <point x="730.84999913" y="1230.84999889"/>
      <point x="625.949999869" y="1230.84999889" type="curve" smooth="yes"/>
      <point x="520.900000453" y="1230.84999889"/>
      <point x="441.150001109" y="1173.84999937"/>
      <point x="441.150001109" y="1072.69999969" type="curve" smooth="yes"/>
      <point x="441.150001109" y="986.24999994"/>
      <point x="487.550000966" y="904.200000525"/>
    </contour>
  </outline>
</glyph>
<glyph name="quotesingle" format="1">
  <advance width="395.650003135"/>
  <unicode hex="0027"/>
  <outline>
    <contour>
      <point x="140.800001144" y="873.499998927" type="line"/>
      <point x="255.550002158" y="873.499998927" type="line"/>
      <point x="275.150002301" y="1349.09999979" type="line"/>
      <point x="118.700000882" y="1349.09999979" type="line"/>
    </contour>
  </outline>
</glyph>
<glyph name="parenleft" format="1">
  <advance width="666.550001442"/>
  <unicode hex="0028"/>
  <outline>
    <contour>
      <point x="399.900000691" y="-188.149998724" type="curve"/>
      <point x="576.10000217" y="-188.149998724" type="line"/>
      <point x="416.050002754" y="69.7000006437"/>
      <point x="335.300001979" y="347.749999821"/>
      <point x="335.300001979" y="645.099999785" type="curve" smooth="yes"/>
      <point x="335.300001979" y="940.400000334"/>
      <point x="433.050003231" y="1225.15000135"/>
      <point x="577.10000217" y="1443.64999956" type="curve"/>
      <point x="398.450000703" y="1443.64999956" type="line"/>
      <point x="248.90000093" y="1232.15000015"/>
      <point x="151.000000477" y="949.950000107"/>
      <point x="151.000000477" y="641.749999821" type="curve" smooth="yes"/>
      <point x="151.000000477" y="316.300000072"/>
      <point x="246.450000703" y="26.9500012994"/>
    </contour>
  </outline>
</glyph>
<glyph name="parenright" format="1">
  <advance width="681.150001347"/>
  <unicode hex="0029"/>
  <outline>
    <contour>
      <point x="106.899999499" y="-188.149998724" type="curve"/>
      <point x="284.200001001" y="-188.149998724" type="line"/>
      <point x="431.050000846" y="12.1000009775"/>
      <point x="532.550001204" y="324.000000238"/>
      <point x="532.550001204" y="651.100000024" type="curve" smooth="yes"/>
      <point x="532.550001204" y="957.650000274"/>
      <point x="440.700000882" y="1217.29999983"/>
      <point x="284.550000966" y="1443.64999956" type="curve"/>
      <point x="106.999999523" y="1443.64999956" type="line"/>
      <point x="269.749998868" y="1179.50000036"/>
      <point x="348.249999702" y="936.55000025"/>
      <point x="348.249999702" y="652.24999994" type="curve" smooth="yes"/>
      <point x="348.249999702" y="343.899999738"/>
      <point x="248.24999851" y="24.0499996543"/>
    </contour>
  </outline>
</glyph>
<glyph name="asterisk" format="1">
  <advance width="1106.49999964"/>
  <unicode hex="002A"/>
  <outline>
    <contour>
      <point x="544.300004125" y="497.399998903" type="line"/>
      <point x="608.450007617" y="590.049999416" type="line"/>
      <point x="608.450007617" y="590.049999416"/>
      <point x="617.95000273" y="857.749998152"/>
      <point x="597.050002277" y="884.149998724" type="curve"/>
      <point x="609.300010085" y="957.999998569" type="line"/>
      <point x="589.700008988" y="1127.79999971" type="line"/>
      <point x="578.850001276" y="993.899999976" type="line"/>
      <point x="579.050002038" y="1360.29999936" type="line"/>
      <point x="515.999997854" y="1360.29999936" type="line"/>
      <point x="516.849998653" y="993.899999976" type="line"/>
      <point x="508.099990964" y="1127.79999971" type="line"/>
      <point x="487.749989808" y="957.999998569" type="line"/>
      <point x="496.299997687" y="884.149998724" type="line"/>
      <point x="512.949997246" y="860.749999344"/>
      <point x="429.549993813" y="665.199997425"/>
      <point x="488.499992251" y="590.049999416" type="curve"/>
      <point x="452.499993205" y="567.550000012"/>
      <point x="590.499994874" y="521.449998319"/>
      <point x="554.499995828" y="498.949998915" type="curve"/>
      <point x="544.550000012" y="815.699998021" type="line"/>
    </contour>
  </outline>
</glyph>
<glyph name="plus" format="1">
  <advance width="1045.79999971"/>
  <unicode hex="002B"/>
  <outline>
    <contour>
      <point x="456.899999261" y="150.249999464" type="line"/>
      <point x="601.750000536" y="150.249999464" type="line"/>
      <point x="601.750000536" y="524.499999404" type="line"/>
      <point x="956.000000715" y="524.499999404" type="line"/>
      <point x="956.000000715" y="660.950000823" type="line"/>
      <point x="602.300000548" y="660.950000823" type="line"/>
      <point x="602.300000548" y="1032.15000087" type="line"/>
      <point x="457.449999273" y="1032.15000087" type="line"/>
      <point x="457.449999273" y="660.950000823" type="line"/>
      <point x="98.5999991894" y="660.950000823" type="line"/>
      <point x="98.5999991894" y="524.499999404" type="line"/>
      <point x="456.899999261" y="524.499999404" type="line"/>
    </contour>
  </outline>
</glyph>
<glyph name="comma" format="1">
  <advance width="484.350001156"/>
  <unicode hex="002C"/>
  <outline>
    <contour>
      <point x="135.24999994" y="-247.849999607" type="curve"/>
      <point x="248.350001633" y="-247.849999607" type="line"/>
      <point x="285.700000644" y="-147.050002277"/>
      <point x="356.700002551" y="82.000002861"/>
      <point x="381.900001884" y="177.400000334" type="curve"/>
      <point x="383.300001979" y="221.150000632" type="line"/>
      <point x="191.300000787" y="221.150000632" type="line"/>
      <point x="185.450000942" y="124.850003183"/>
      <point x="147.399999619" y="-146.600002289"/>
    </contour>
  </outline>
</glyph>
<glyph name="hyphen" format="1">
  <advance width="651.599998474"/>
  <unicode hex="002D"/>
  <outline>
    <contour>
      <point x="93.4499990344" y="440.199999094" type="line"/>
      <point x="557.049999893" y="440.199999094" type="line"/>
      <point x="557.049999893" y="591.150000393" type="line"/>
      <point x="93.4499990344" y="591.150000393" type="line"/>
    </contour>
  </outline>
</glyph>
<glyph name="period" format="1">
  <advance width="496.800001383"/>
  <unicode hex="002E"/>
  <outline>
    <contour>
      <point x="251.750000775" y="-7.34999972582" type="curve" smooth="yes"/>
      <point x="332.950000823" y="-7.34999972582"/>
      <point x="377.950001299" y="54.2500004172"/>
      <point x="377.950001299" y="118.750000775" type="curve" smooth="yes"/>
      <point x="377.950001299" y="183.800001144"/>
      <point x="332.950000823" y="245.950001299"/>
      <point x="251.750000775" y="245.950001299" type="curve" smooth="yes"/>
      <point x="170.000000715" y="245.950001299"/>
      <point x="124.900000215" y="183.800001144"/>
      <point x="124.900000215" y="118.750000775" type="curve" smooth="yes"/>
      <point x="124.900000215" y="54.1500003934"/>
      <point x="171.000000715" y="-7.34999972582"/>
    </contour>
  </outline>
</glyph>
<glyph name="slash" format="1">
  <advance width="904.39999938"/>
  <unicode hex="002F"/>
  <outline>
    <contour>
      <point x="75.7999994755" y="-189.949999392" type="line"/>
      <point x="223.350001156" y="-189.949999392" type="line"/>
      <point x="827.499999881" y="1341.5000006" type="line"/>
      <point x="677.399998188" y="1341.5000006" type="line"/>
    </contour>
  </outline>
</glyph>
<glyph name="zero" format="1">
  <advance width="1207.75000125"/>
  <unicode hex="0030"/>
  <outline>
    <contour>
      <point x="606.300000548" y="131.200001478" type="curve" smooth="yes"/>
      <point x="418.150000632" y="131.200001478"/>
      <point x="324.950001776" y="335.200002432"/>
      <point x="324.950001776" y="675.200000048" type="curve"/>
      <point x="325.150001824" y="1001.1999979"/>
      <point x="418.800000668" y="1206.99999857"/>
      <point x="606.300000548" y="1206.99999857" type="curve" smooth="yes"/>
      <point x="794.450000465" y="1206.99999857"/>
      <point x="882.14999944" y="1017.64999741"/>
      <point x="882.14999944" y="674.449999988" type="curve" smooth="yes"/>
      <point x="882.14999944" y="334.550002396"/>
      <point x="794.450000465" y="131.200001478"/>
    </contour>
    <contour>
      <point x="606.300000548" y="-23.849999845" type="curve" smooth="yes"/>
      <point x="945.600001335" y="-23.849999845"/>
      <point x="1075.75000125" y="281.15000087"/>
      <point x="1075.75000125" y="668.349999964" type="curve" smooth="yes"/>
      <point x="1075.75000125" y="1071.34999877"/>
      <point x="934.50000155" y="1361.94999987"/>
      <point x="606.300000548" y="1361.94999987" type="curve" smooth="yes"/>
      <point x="278.749999583" y="1361.94999987"/>
      <point x="132.0" y="1072.09999883"/>
      <point x="132.0" y="668.349999964" type="curve" smooth="yes"/>
      <point x="132.0" y="281.15000087"/>
      <point x="267.549999774" y="-23.849999845"/>
    </contour>
  </outline>
</glyph>
<glyph name="one" format="1">
  <advance width="1118.34999996"/>
  <unicode hex="0031"/>
  <outline>
    <contour>
      <point x="194.650000036" y="0.0" type="line"/>
      <point x="974.500000596" y="0.0" type="line"/>
      <point x="974.500000596" y="149.600001335" type="line"/>
      <point x="629.450000465" y="149.600001335" type="line"/>
      <point x="700.400001049" y="78.1000007391" type="line"/>
      <point x="700.400001049" y="1344.09999979" type="line"/>
      <point x="528.44999975" y="1344.09999979" type="line"/>
      <point x="454.94999963" y="1291.69999969"/>
      <point x="304.000000238" y="1242.34999973"/>
      <point x="211.749999583" y="1220.69999945" type="curve"/>
      <point x="211.749999583" y="1068.29999816" type="line"/>
      <point x="320.600000381" y="1083.99999833"/>
      <point x="483.799999714" y="1138.54999834"/>
      <point x="549.249999464" y="1194.24999827" type="curve"/>
      <point x="508.299999356" y="1220.14999849" type="line"/>
      <point x="508.299999356" y="79.0000007153" type="line"/>
      <point x="578.349999964" y="149.600001335" type="line"/>
      <point x="194.650000036" y="149.600001335" type="line"/>
    </contour>
  </outline>
</glyph>
<glyph name="two" format="1">
  <advance width="1131.55000025"/>
  <unicode hex="0032"/>
  <outline>
    <contour>
      <point x="154.850000322" y="0.0" type="line"/>
      <point x="949.400000095" y="0.0" type="line"/>
      <point x="961.000000238" y="149.600001335" type="line"/>
      <point x="265.500002027" y="149.600001335" type="line"/>
      <point x="293.750002444" y="85.0500008464" type="line"/>
      <point x="716.400000334" y="518.599999189" type="line" smooth="yes"/>
      <point x="890.700000167" y="698.799999237"/>
      <point x="960.000000477" y="811.500000119"/>
      <point x="960.000000477" y="991.649999559" type="curve" smooth="yes"/>
      <point x="960.000000477" y="1257.19999909"/>
      <point x="726.350001633" y="1363.74999982"/>
      <point x="527.950000346" y="1363.74999982" type="curve" smooth="yes"/>
      <point x="371.700000167" y="1363.74999982"/>
      <point x="232.500000358" y="1305.14999968"/>
      <point x="154.150000393" y="1245.34999949" type="curve"/>
      <point x="211.15000087" y="1106.59999824" type="line"/>
      <point x="276.950000107" y="1149.09999788"/>
      <point x="400.050000131" y="1210.49999845"/>
      <point x="520.800000191" y="1210.49999845" type="curve" smooth="yes"/>
      <point x="635.300000072" y="1210.49999845"/>
      <point x="768.949998677" y="1145.69999802"/>
      <point x="768.949998677" y="977.94999963" type="curve" smooth="yes"/>
      <point x="768.949998677" y="848.850000799"/>
      <point x="702.099998832" y="757.250000179"/>
      <point x="598.249999464" y="648.800000668" type="curve" smooth="yes"/>
      <point x="137.60000062" y="163.800001144" type="line"/>
    </contour>
  </outline>
</glyph>
<glyph name="three" format="1">
  <advance width="1157.40000081"/>
  <unicode hex="0033"/>
  <outline>
    <contour>
      <point x="529.500000358" y="-18.0" type="curve" smooth="yes"/>
      <point x="801.24999994" y="-18.0"/>
      <point x="994.550000489" y="121.849999845"/>
      <point x="994.550000489" y="366.550000012" type="curve" smooth="yes"/>
      <point x="994.550000489" y="548.549999297"/>
      <point x="889.250001132" y="678.749999583"/>
      <point x="727.050001562" y="716.899999738" type="curve"/>
      <point x="873.200001001" y="761.349999964"/>
      <point x="959.000000477" y="852.950000107"/>
      <point x="959.000000477" y="1018.29999936" type="curve" smooth="yes"/>
      <point x="959.000000477" y="1233.74999934"/>
      <point x="770.000000715" y="1363.74999982"/>
      <point x="532.900000453" y="1363.74999982" type="curve" smooth="yes"/>
      <point x="384.100000024" y="1363.74999982"/>
      <point x="257.450000226" y="1327.29999983"/>
      <point x="150.950000346" y="1261.5999999" type="curve"/>
      <point x="209.200000763" y="1122.74999863" type="line"/>
      <point x="293.100000501" y="1176.59999847"/>
      <point x="404.55000025" y="1211.04999846"/>
      <point x="518.55000025" y="1211.04999846" type="curve" smooth="yes"/>
      <point x="670.399999857" y="1211.04999846"/>
      <point x="776.899998784" y="1130.69999826"/>
      <point x="776.899998784" y="1002.44999927" type="curve" smooth="yes"/>
      <point x="776.899998784" y="816.200000286"/>
      <point x="604.699999928" y="791.900000215"/>
      <point x="414.550000012" y="787.750000298" type="curve"/>
      <point x="366.249999702" y="787.750000298" type="line"/>
      <point x="366.249999702" y="635.449999034" type="line"/>
      <point x="413.650000036" y="635.449999034" type="line"/>
      <point x="639.499999642" y="630.449999034"/>
      <point x="805.849998653" y="589.049999177"/>
      <point x="805.849998653" y="371.350000203" type="curve" smooth="yes"/>
      <point x="805.849998653" y="218.850001276"/>
      <point x="698.749999344" y="135.250001371"/>
      <point x="530.500000358" y="135.250001371" type="curve" smooth="yes"/>
      <point x="405.750000536" y="135.250001371"/>
      <point x="275.900000691" y="185.950001061"/>
      <point x="220.100000501" y="228.500001311" type="curve"/>
      <point x="159.300000072" y="91.3000000715" type="line"/>
      <point x="212.500000834" y="46.949999392"/>
      <point x="367.150000632" y="-18.0"/>
    </contour>
  </outline>
</glyph>
<glyph name="four" format="1">
  <advance width="1189.3000015"/>
  <unicode hex="0034"/>
  <outline>
    <contour>
      <point x="737.749999583" y="0.0" type="line"/>
      <point x="924.250001371" y="0.0" type="line"/>
      <point x="924.250001371" y="327.499999166" type="line"/>
      <point x="1077.5500012" y="327.499999166" type="line"/>
      <point x="1089.75000125" y="477.300000548" type="line"/>
      <point x="924.250001371" y="477.300000548" type="line"/>
      <point x="924.250001371" y="1344.09999979" type="line"/>
      <point x="711.449998796" y="1344.09999979" type="line"/>
      <point x="128.100000262" y="476.149999917" type="line"/>
      <point x="128.100000262" y="327.499999166" type="line"/>
      <point x="737.749999583" y="327.499999166" type="line"/>
    </contour>
    <contour>
      <point x="320.500002027" y="476.000000477" type="line"/>
      <point x="737.299999595" y="1118.89999831" type="line"/>
      <point x="737.299999595" y="476.000000477" type="line"/>
    </contour>
  </outline>
</glyph>
<glyph name="five" format="1">
  <advance width="1176.10000122"/>
  <unicode hex="0035"/>
  <outline>
    <contour>
      <point x="556.15000087" y="-18.4499999881" type="curve" smooth="yes"/>
      <point x="842.050001562" y="-18.4499999881"/>
      <point x="1040.65000099" y="149.250000417"/>
      <point x="1040.65000099" y="430.24999994" type="curve" smooth="yes"/>
      <point x="1040.65000099" y="666.400000334"/>
      <point x="882.85000056" y="848.250000179"/>
      <point x="615.15000087" y="848.250000179" type="curve" smooth="yes"/>
      <point x="543.350001395" y="848.250000179"/>
      <point x="469.50000155" y="821.100000024"/>
      <point x="400.60000205" y="781.000000477" type="curve"/>
      <point x="401.700002074" y="815.650001228"/>
      <point x="429.350001872" y="1163.79999781"/>
      <point x="430.450001895" y="1190.19999838" type="curve"/>
      <point x="971.850001037" y="1190.19999838" type="line"/>
      <point x="985.700001121" y="1344.09999979" type="line"/>
      <point x="259.500000119" y="1344.09999979" type="line"/>
      <point x="218.000000238" y="619.699999213" type="line"/>
      <point x="365.100001216" y="599.699998975" type="line"/>
      <point x="423.750001252" y="662.799998999"/>
      <point x="509.600000858" y="697.199998856"/>
      <point x="592.800000429" y="697.199998856" type="curve" smooth="yes"/>
      <point x="762.199999094" y="697.199998856"/>
      <point x="844.149999201" y="581.599999666"/>
      <point x="844.149999201" y="429.100000024" type="curve" smooth="yes"/>
      <point x="844.149999201" y="247.000001192"/>
      <point x="724.400000334" y="136.350001395"/>
      <point x="536.900000691" y="136.350001395" type="curve" smooth="yes"/>
      <point x="407.050000131" y="136.350001395"/>
      <point x="281.399999857" y="201.35000211"/>
      <point x="226.800000906" y="236.200001478" type="curve"/>
      <point x="160.750000298" y="99.2000002861" type="line"/>
      <point x="224.599999189" y="57.2500008941"/>
      <point x="386.949999869" y="-18.4499999881"/>
    </contour>
  </outline>
</glyph>
<glyph name="six" format="1">
  <advance width="1229.00000072"/>
  <unicode hex="0036"/>
  <outline>
    <contour>
      <point x="607.300000548" y="-18.0" type="curve" smooth="yes"/>
      <point x="879.900000691" y="-18.0"/>
      <point x="1065.80000138" y="162.549999774"/>
      <point x="1065.80000138" y="408.000000238" type="curve" smooth="yes"/>
      <point x="1065.80000138" y="653.950000346"/>
      <point x="872.350001395" y="818.200000525"/>
      <point x="640.650000751" y="818.200000525" type="curve" smooth="yes"/>
      <point x="467.800003052" y="818.200000525"/>
      <point x="362.250003517" y="683.500002742"/>
      <point x="346.55000335" y="669.850002944" type="curve"/>
      <point x="380.150003731" y="635.100002408" type="line"/>
      <point x="380.150003731" y="635.100002408"/>
      <point x="530.40000391" y="832.400002718"/>
      <point x="582.150002539" y="908.450000703" type="curve"/>
      <point x="896.050002277" y="1344.09999979" type="line"/>
      <point x="671.850000083" y="1344.09999979" type="line"/>
      <point x="344.149999201" y="888.09999907" type="line" smooth="yes"/>
      <point x="229.94999963" y="727.399999857"/>
      <point x="146.849999607" y="603.399999857"/>
      <point x="146.849999607" y="412.100000262" type="curve" smooth="yes"/>
      <point x="146.849999607" y="173.099999547"/>
      <point x="321.450000465" y="-18.0"/>
    </contour>
    <contour>
      <point x="600.900000453" y="131.400001287" type="curve" smooth="yes"/>
      <point x="425.45000118" y="131.400001287"/>
      <point x="336.75000149" y="250.85000056"/>
      <point x="336.75000149" y="401.55000025" type="curve" smooth="yes"/>
      <point x="336.75000149" y="594.749998868"/>
      <point x="468.149999678" y="673.39999938"/>
      <point x="606.150000393" y="673.39999938" type="curve" smooth="yes"/>
      <point x="782.0" y="673.39999938"/>
      <point x="873.799999475" y="563.749999821"/>
      <point x="873.799999475" y="405.800000191" type="curve" smooth="yes"/>
      <point x="873.799999475" y="253.750000536"/>
      <point x="777.649999797" y="131.400001287"/>
    </contour>
  </outline>
</glyph>
<glyph name="seven" format="1">
  <advance width="1085.34999925"/>
  <unicode hex="0037"/>
  <outline>
    <contour>
      <point x="291.399998665" y="0.449999988079" type="line"/>
      <point x="492.850000799" y="0.449999988079" type="line"/>
      <point x="955.299999833" y="1216.09999883" type="line"/>
      <point x="955.299999833" y="1344.09999979" type="line"/>
      <point x="146.199999094" y="1344.09999979" type="line"/>
      <point x="151.299998641" y="1192.2999984" type="line"/>
      <point x="748.199997663" y="1192.2999984" type="line"/>
    </contour>
  </outline>
</glyph>
<glyph name="eight" format="1">
  <advance width="1197.55000168"/>
  <unicode hex="0038"/>
  <outline>
    <contour>
      <point x="600.15000087" y="-18.0" type="curve" smooth="yes"/>
      <point x="844.000000954" y="-18.0"/>
      <point x="1045.75000125" y="105.450000226"/>
      <point x="1045.75000125" y="346.600000381" type="curve" smooth="yes"/>
      <point x="1045.75000125" y="517.350000203"/>
      <point x="947.100001693" y="647.199999809"/>
      <point x="793.700002551" y="705.899999976" type="curve"/>
      <point x="928.0500018" y="762.400000095"/>
      <point x="1018.15000135" y="863.799999952"/>
      <point x="1018.15000135" y="1024.04999965" type="curve" smooth="yes"/>
      <point x="1018.15000135" y="1244.34999996"/>
      <point x="840.050000846" y="1363.74999982"/>
      <point x="600.050000846" y="1363.74999982" type="curve" smooth="yes"/>
      <point x="360.250000894" y="1363.74999982"/>
      <point x="179.05000037" y="1244.34999996"/>
      <point x="179.05000037" y="1024.04999965" type="curve" smooth="yes"/>
      <point x="179.05000037" y="863.049999893"/>
      <point x="278.049999893" y="756.350000203"/>
      <point x="411.099999309" y="704.550000012" type="curve"/>
      <point x="249.250000179" y="641.449999988"/>
      <point x="151.800000429" y="527.0"/>
      <point x="151.800000429" y="347.150000393" type="curve" smooth="yes"/>
      <point x="151.800000429" y="106.100000262"/>
      <point x="356.550000727" y="-18.0"/>
    </contour>
    <contour>
      <point x="600.15000087" y="117.100000978" type="curve" smooth="yes"/>
      <point x="424.400001764" y="117.100000978"/>
      <point x="327.35000211" y="200.750000775"/>
      <point x="327.35000211" y="348.700000167" type="curve" smooth="yes"/>
      <point x="327.35000211" y="501.94999963"/>
      <point x="444.950001538" y="592.799999475"/>
      <point x="600.15000087" y="628.699999452" type="curve"/>
      <point x="755.700000167" y="592.799999475"/>
      <point x="870.049999654" y="497.349999726"/>
      <point x="870.049999654" y="349.250000179" type="curve" smooth="yes"/>
      <point x="870.049999654" y="196.700000882"/>
      <point x="779.599999905" y="117.100000978"/>
    </contour>
    <contour>
      <point x="600.15000087" y="761.950000346" type="curve"/>
      <point x="441.050001562" y="797.450000226"/>
      <point x="352.750001729" y="887.699999928"/>
      <point x="352.750001729" y="1026.19999957" type="curve" smooth="yes"/>
      <point x="352.750001729" y="1148.44999903"/>
      <point x="455.100001454" y="1224.79999876"/>
      <point x="600.15000087" y="1224.79999876" type="curve" smooth="yes"/>
      <point x="746.100000262" y="1224.79999876"/>
      <point x="844.550000012" y="1148.44999903"/>
      <point x="844.550000012" y="1026.19999957" type="curve" smooth="yes"/>
      <point x="844.550000012" y="887.699999928"/>
      <point x="759.600000143" y="797.450000226"/>
    </contour>
  </outline>
</glyph>
<glyph name="nine" format="1">
  <advance width="1175.5500012"/>
  <unicode hex="0039"/>
  <outline>
    <contour>
      <point x="282.199999332" y="0.0" type="line"/>
      <point x="512.850001514" y="0.0" type="line"/>
      <point x="512.850001514" y="0.0"/>
      <point x="846.900001884" y="448.300000548"/>
      <point x="858.450002134" y="463.700000882" type="curve" smooth="yes"/>
      <point x="970.850001514" y="617.75000006"/>
      <point x="1059.05000132" y="744.0"/>
      <point x="1059.05000132" y="933.099999547" type="curve" smooth="yes"/>
      <point x="1059.05000132" y="1173.20000029"/>
      <point x="884.450000465" y="1363.74999982"/>
      <point x="598.600000381" y="1363.74999982" type="curve" smooth="yes"/>
      <point x="325.450000226" y="1363.74999982"/>
      <point x="140.099999547" y="1182.65000004"/>
      <point x="140.099999547" y="935.549999535" type="curve" smooth="yes"/>
      <point x="140.099999547" y="687.949999392"/>
      <point x="332.999999523" y="524.799999237"/>
      <point x="564.700000167" y="524.799999237" type="curve" smooth="yes"/>
      <point x="727.649997652" y="524.799999237"/>
      <point x="845.849997461" y="657.299996972"/>
      <point x="859.899997592" y="673.699996829" type="curve"/>
      <point x="825.199997187" y="704.04999727" type="line"/>
      <point x="825.199997187" y="704.04999727"/>
      <point x="682.149997532" y="526.499997497"/>
      <point x="627.249998987" y="452.699999452" type="curve"/>
    </contour>
    <contour>
      <point x="600.300000548" y="667.950000346" type="curve" smooth="yes"/>
      <point x="424.450000942" y="667.950000346"/>
      <point x="331.550001442" y="779.24999994"/>
      <point x="331.550001442" y="938.849999607" type="curve" smooth="yes"/>
      <point x="331.550001442" y="1091.99999928"/>
      <point x="429.350001156" y="1214.89999855"/>
      <point x="606.100000501" y="1214.89999855" type="curve" smooth="yes"/>
      <point x="781.549999774" y="1214.89999855"/>
      <point x="869.699999452" y="1095.44999927"/>
      <point x="869.699999452" y="944.199999571" type="curve" smooth="yes"/>
      <point x="869.699999452" y="748.800000906"/>
      <point x="737.750001252" y="667.950000346"/>
    </contour>
  </outline>
</glyph>
<glyph name="colon" format="1">
  <advance width="558.35000211"/>
  <unicode hex="003A"/>
  <outline>
    <contour>
      <point x="175.700000405" y="-15.2999995947" type="line"/>
      <point x="377.250001848" y="-15.2999995947" type="line"/>
      <point x="377.250001848" y="210.200001478" type="line"/>
      <point x="175.700000405" y="210.200001478" type="line"/>
    </contour>
    <contour>
      <point x="175.700000405" y="797.899999022" type="line"/>
      <point x="377.250001848" y="797.899999022" type="line"/>
      <point x="377.250001848" y="1019.14999992" type="line"/>
      <point x="175.700000405" y="1019.14999992" type="line"/>
    </contour>
  </outline>
</glyph>
<glyph name="semicolon" format="1">
  <advance width="551.850002229"/>
  <unicode hex="003B"/>
  <outline>
    <contour>
      <point x="159.950000823" y="-283.400000095" type="line"/>
      <point x="274.300001979" y="-283.400000095" type="line"/>
      <point x="388.950002015" y="196.700001359" type="line"/>
      <point x="210.850000799" y="196.700001359" type="line"/>
    </contour>
    <contour>
      <point x="189.450000465" y="801.199999094" type="line"/>
      <point x="390.450001895" y="801.199999094" type="line"/>
      <point x="390.450001895" y="1022.89999998" type="line"/>
      <point x="189.450000465" y="1022.89999998" type="line"/>
    </contour>
  </outline>
</glyph>
<glyph name="less" format="1">
  <advance width="1115.79999971"/>
  <unicode hex="003C"/>
  <outline>
    <contour>
      <point x="973.049999893" y="142.000000715" type="line"/>
      <point x="973.049999893" y="142.000000715"/>
      <point x="972.949999869" y="303.800002098"/>
      <point x="972.399999857" y="304.35000211" type="curve" smooth="yes"/>
      <point x="289.750001967" y="613.050001085" type="line"/>
      <point x="974.399999857" y="946.150000155" type="line"/>
      <point x="974.399999857" y="1104.80000138" type="line"/>
      <point x="100.949999869" y="656.900001407" type="line"/>
      <point x="100.949999869" y="560.550000727" type="line"/>
    </contour>
  </outline>
</glyph>
<glyph name="greater" format="1">
  <advance width="1121.64999956"/>
  <unicode hex="003E"/>
  <outline>
    <contour>
      <point x="136.449999988" y="146.250000656" type="line"/>
      <point x="1010.34999996" y="559.650000751" type="line"/>
      <point x="1010.34999996" y="655.900001407" type="line"/>
      <point x="137.799999952" y="1108.9500013" type="line"/>
      <point x="137.799999952" y="950.75000006" type="line"/>
      <point x="819.199997902" y="613.050001085" type="line"/>
      <point x="136.449999988" y="309.050002038" type="line"/>
    </contour>
  </outline>
</glyph>
<glyph name="question" format="1">
  <advance width="917.250001371"/>
  <unicode hex="003F"/>
  <outline>
    <contour>
      <point x="453.800001621" y="402.750000536" type="line"/>
      <point x="589.050001562" y="698.649999797"/>
      <point x="783.600001812" y="840.349999726"/>
      <point x="783.600001812" y="1081.49999917" type="curve" smooth="yes"/>
      <point x="783.600001812" y="1277.14999968"/>
      <point x="636.000000715" y="1380.99999952"/>
      <point x="451.050001323" y="1380.99999952" type="curve" smooth="yes"/>
      <point x="340.600000381" y="1380.99999952"/>
      <point x="226.200000763" y="1354.44999927"/>
      <point x="142.500000596" y="1290.84999937" type="curve"/>
      <point x="190.20000124" y="1157.44999856" type="line"/>
      <point x="235.900001407" y="1185.84999865"/>
      <point x="316.100001216" y="1230.54999858"/>
      <point x="426.150001347" y="1230.54999858" type="curve" smooth="yes"/>
      <point x="544.400001049" y="1230.54999858"/>
      <point x="622.150000632" y="1178.09999835"/>
      <point x="623.60000062" y="1063.99999881" type="curve"/>
      <point x="623.60000062" y="890.249999225"/>
      <point x="374.800001621" y="628.150001585"/>
      <point x="367.90000093" y="404.250000656" type="curve"/>
    </contour>
    <contour>
      <point x="420.650000989" y="-10.1499999166" type="curve" smooth="yes"/>
      <point x="501.550000966" y="-10.1499999166"/>
      <point x="545.800001383" y="52.0000002384"/>
      <point x="545.800001383" y="116.500000596" type="curve" smooth="yes"/>
      <point x="545.800001383" y="181.550000966"/>
      <point x="501.550000966" y="243.250001132"/>
      <point x="420.650000989" y="243.250001132" type="curve" smooth="yes"/>
      <point x="340.000000954" y="243.250001132"/>
      <point x="293.900000453" y="181.550000966"/>
      <point x="293.900000453" y="116.500000596" type="curve" smooth="yes"/>
      <point x="293.900000453" y="51.9000002146"/>
      <point x="340.550000966" y="-10.1499999166"/>
    </contour>
  </outline>
</glyph>
<glyph name="at" format="1">
  <advance width="1833.79999757"/>
  <unicode hex="0040"/>
  <outline>
    <contour>
      <point x="897.749998868" y="-162.649998844" type="curve" smooth="yes"/>
      <point x="1077.29999864" y="-162.649998844"/>
      <point x="1254.99999881" y="-120.949998915"/>
      <point x="1375.84999865" y="-39.8999990225" type="curve"/>
      <point x="1336.54999858" y="62.2000014782" type="line"/>
      <point x="1211.69999874" y="-9.39999842644"/>
      <point x="1053.39999866" y="-47.549998343"/>
      <point x="898.749998868" y="-47.549998343" type="curve" smooth="yes"/>
      <point x="517.899999022" y="-47.549998343"/>
      <point x="293.700000167" y="214.300002217"/>
      <point x="293.700000167" y="576.05000037" type="curve" smooth="yes"/>
      <point x="293.700000167" y="946.999998808"/>
      <point x="549.749998868" y="1261.89999902"/>
      <point x="955.599998713" y="1261.89999902" type="curve" smooth="yes"/>
      <point x="1347.1499992" y="1261.89999902"/>
      <point x="1552.79999757" y="1008.59999871"/>
      <point x="1552.79999757" y="713.350000203" type="curve" smooth="yes"/>
      <point x="1552.79999757" y="466.799999952"/>
      <point x="1452.79999733" y="328.400001049"/>
      <point x="1315.49999869" y="328.400001049" type="curve" smooth="yes"/>
      <point x="1241.84999913" y="328.400001049"/>
      <point x="1203.3999989" y="385.700000644"/>
      <point x="1203.3999989" y="466.100000262" type="curve" smooth="yes"/>
      <point x="1203.3999989" y="581.500000119"/>
      <point x="1238.74999887" y="754.499999881"/>
      <point x="1265.09999883" y="943.049999654" type="curve"/>
      <point x="1184.49999893" y="980.849999845"/>
      <point x="1059.79999852" y="1006.74999982"/>
      <point x="969.299998641" y="1006.74999982" type="curve" smooth="yes"/>
      <point x="703.999998808" y="1006.74999982"/>
      <point x="555.849998891" y="777.399999619"/>
      <point x="555.849998891" y="542.30000031" type="curve" smooth="yes"/>
      <point x="555.849998891" y="354.450000942"/>
      <point x="652.499998689" y="217.000000715"/>
      <point x="837.399998903" y="217.000000715" type="curve" smooth="yes"/>
      <point x="987.649999321" y="217.000000715"/>
      <point x="1094.24999875" y="351.950001299"/>
      <point x="1129.04999846" y="481.450000226" type="curve"/>
      <point x="1086.94999868" y="481.450000226" type="line"/>
      <point x="1098.59999871" y="303.200001478"/>
      <point x="1202.69349797" y="222.750000536"/>
      <point x="1316.74999863" y="222.750000536" type="curve" smooth="yes"/>
      <point x="1495.599998" y="222.750000536"/>
      <point x="1681.09999812" y="386.05000037"/>
      <point x="1681.09999812" y="705.800000191" type="curve" smooth="yes"/>
      <point x="1681.09999812" y="1118.14999968"/>
      <point x="1369.24999827" y="1377.79999948"/>
      <point x="960.899998784" y="1377.79999948" type="curve" smooth="yes"/>
      <point x="489.39999938" y="1377.79999948"/>
      <point x="154.049999416" y="1038.49999988"/>
      <point x="154.049999416" y="578.900000453" type="curve" smooth="yes"/>
      <point x="154.049999416" y="118.300001025"/>
      <point x="455.599999428" y="-162.649998844"/>
    </contour>
    <contour>
      <point x="852.599998951" y="321.750001013" type="curve" smooth="yes"/>
      <point x="749.499999166" y="321.750001013"/>
      <point x="693.449999511" y="400.100001216"/>
      <point x="693.449999511" y="540.450000226" type="curve" smooth="yes"/>
      <point x="693.449999511" y="727.499999881"/>
      <point x="801.649999321" y="907.099999547"/>
      <point x="979.349999011" y="907.099999547" type="curve" smooth="yes"/>
      <point x="1029.44999903" y="907.099999547"/>
      <point x="1133.49999821" y="887.049999654"/>
      <point x="1169.84999818" y="874.599999666" type="curve"/>
      <point x="1121.94999844" y="948.749999583" type="line"/>
      <point x="1119.24999851" y="922.200000286"/>
      <point x="1077.64999837" y="680.199999571"/>
      <point x="1074.04999846" y="654.100000262" type="curve" smooth="yes"/>
      <point x="1045.74999839" y="469.650000513"/>
      <point x="995.349998772" y="321.750001013"/>
    </contour>
  </outline>
</glyph>
<glyph name="A" format="1">
  <advance width="1321.50000226"/>
  <unicode hex="0041"/>
  <outline>
    <contour>
      <point x="47.1000000238" y="0.0" type="line"/>
      <point x="262.850002229" y="0.0" type="line"/>
      <point x="430.850001752" y="462.699999213" type="line"/>
      <point x="355.850001276" y="408.199998856" type="line"/>
      <point x="970.500000834" y="408.199998856" type="line"/>
      <point x="893.400000334" y="459.599999189" type="line"/>
      <point x="1063.44999999" y="0.0" type="line"/>
      <point x="1274.40000224" y="0.0" type="line"/>
      <point x="781.650002658" y="1352.89999998" type="line"/>
      <point x="540.94999963" y="1352.89999998" type="line"/>
    </contour>
    <contour>
      <point x="437.250001848" y="488.749999583" type="line"/>
      <point x="685.45000118" y="1227.49999869" type="line"/>
      <point x="641.000001192" y="1228.39999866" type="line"/>
      <point x="886.000000238" y="489.299999595" type="line"/>
      <point x="928.350000441" y="550.050000131" type="line"/>
      <point x="397.250001609" y="550.050000131" type="line"/>
    </contour>
  </outline>
</glyph>
<glyph name="B" format="1">
  <advance width="1294.79999995"/>
  <unicode hex="0042"/>
  <outline>
    <contour>
      <point x="182.099999309" y="0.0" type="line"/>
      <point x="706.799999952" y="0.0" type="line" smooth="yes"/>
      <point x="1023.54999954" y="0.0"/>
      <point x="1193.10000026" y="144.749999821"/>
      <point x="1193.10000026" y="388.100000262" type="curve" smooth="yes"/>
      <point x="1193.10000026" y="595.200000286"/>
      <point x="1054.05000013" y="701.700000167"/>
      <point x="855.950001061" y="740.950000346" type="curve"/>
      <point x="855.950001061" y="691.100000024" type="line"/>
      <point x="1065.69999993" y="752.150000155"/>
      <point x="1141.05000037" y="860.650000036"/>
      <point x="1141.05000037" y="1017.84999985" type="curve" smooth="yes"/>
      <point x="1141.05000037" y="1257.00000024"/>
      <point x="969.599999905" y="1352.89999998"/>
      <point x="630.600000143" y="1352.89999998" type="curve" smooth="yes"/>
      <point x="182.099999309" y="1352.89999998" type="line"/>
    </contour>
    <contour>
      <point x="339.45000118" y="158.400001526" type="line"/>
      <point x="391.800001383" y="103.950001299" type="line"/>
      <point x="391.800001383" y="695.849999845" type="line"/>
      <point x="339.000001192" y="639.39999938" type="line"/>
      <point x="636.650000274" y="639.39999938" type="line" smooth="yes"/>
      <point x="872.949998915" y="639.39999938"/>
      <point x="983.399998188" y="576.999999523"/>
      <point x="983.399998188" y="397.650000513" type="curve" smooth="yes"/>
      <point x="983.399998188" y="227.300001264"/>
      <point x="886.699998498" y="158.400001526"/>
      <point x="670.999999523" y="158.400001526" type="curve" smooth="yes"/>
    </contour>
    <contour>
      <point x="338.550001204" y="782.950000584" type="line"/>
      <point x="391.800001383" y="736.850000322" type="line"/>
      <point x="391.800001383" y="1250.24999875" type="line"/>
      <point x="339.900001168" y="1197.79999852" type="line"/>
      <point x="617.299999595" y="1197.79999852" type="line" smooth="yes"/>
      <point x="835.699998736" y="1197.79999852"/>
      <point x="939.349998295" y="1157.59999871"/>
      <point x="939.349998295" y="990.899999499" type="curve" smooth="yes"/>
      <point x="939.349998295" y="827.950000584"/>
      <point x="838.349999011" y="782.950000584"/>
      <point x="669.349999487" y="782.950000584" type="curve" smooth="yes"/>
    </contour>
  </outline>
</glyph>
<glyph name="C" format="1">
  <advance width="1231.95000011"/>
  <unicode hex="0043"/>
  <outline>
    <contour>
      <point x="775.149999917" y="-18.0" type="curve" smooth="yes"/>
      <point x="921.149999201" y="-18.0"/>
      <point x="1075.24999923" y="22.5999996662"/>
      <point x="1146.60000038" y="63.0" type="curve"/>
      <point x="1103.05000013" y="219.050001562" type="line"/>
      <point x="1018.20000029" y="180.700001597"/>
      <point x="908.599999666" y="150.100001693"/>
      <point x="800.449999988" y="150.100001693" type="curve" smooth="yes"/>
      <point x="519.400002003" y="150.100001693"/>
      <point x="332.100001693" y="332.849999845"/>
      <point x="332.100001693" y="676.650000036" type="curve" smooth="yes"/>
      <point x="332.100001693" y="1013.85000008"/>
      <point x="518.200001955" y="1204.99999833"/>
      <point x="787.600000143" y="1204.99999833" type="curve" smooth="yes"/>
      <point x="895.149999917" y="1204.99999833"/>
      <point x="1008.84999985" y="1174.84999841"/>
      <point x="1092.04999989" y="1125.14999849" type="curve"/>
      <point x="1154.55000025" y="1264.24999994" type="line"/>
      <point x="1059.49999988" y="1329.20000005"/>
      <point x="924.999999762" y="1370.89999998"/>
      <point x="771.850000083" y="1370.89999998" type="curve" smooth="yes"/>
      <point x="399.550000966" y="1370.89999998"/>
      <point x="122.399999619" y="1118.45000118"/>
      <point x="122.399999619" y="681.0" type="curve" smooth="yes"/>
      <point x="122.399999619" y="231.999999285"/>
      <point x="398.050000131" y="-18.0"/>
    </contour>
  </outline>
</glyph>
<glyph name="D" format="1">
  <advance width="1452.75000006"/>
  <unicode hex="0044"/>
  <outline>
    <contour>
      <point x="391.800001383" y="96.0000011921" type="line"/>
      <point x="391.800001383" y="1256.34999877" type="line"/>
      <point x="332.800001144" y="1197.79999852" type="line"/>
      <point x="580.850000083" y="1197.79999852" type="line" smooth="yes"/>
      <point x="925.749999106" y="1197.79999852"/>
      <point x="1121.19999838" y="1047.59999871"/>
      <point x="1121.19999838" y="676.650000036" type="curve" smooth="yes"/>
      <point x="1121.19999838" y="338.100001216"/>
      <point x="945.899998784" y="158.400001526"/>
      <point x="606.400000095" y="158.400001526" type="curve" smooth="yes"/>
      <point x="333.350001156" y="158.400001526" type="line"/>
    </contour>
    <contour>
      <point x="182.099999309" y="0.0" type="line"/>
      <point x="607.249999702" y="0.0" type="line" smooth="yes"/>
      <point x="1044.39999986" y="0.0"/>
      <point x="1330.35000044" y="237.800000191"/>
      <point x="1330.35000044" y="681.200000048" type="curve" smooth="yes"/>
      <point x="1330.35000044" y="1145.54999977"/>
      <point x="1021.55000001" y="1352.89999998"/>
      <point x="581.549999774" y="1352.89999998" type="curve" smooth="yes"/>
      <point x="182.099999309" y="1352.89999998" type="line"/>
    </contour>
  </outline>
</glyph>
<glyph name="E" format="1">
  <advance width="1158.70000041"/>
  <unicode hex="0045"/>
  <outline>
    <contour>
      <point x="182.099999309" y="0.0" type="line"/>
      <point x="1024.7500003" y="0.0" type="line"/>
      <point x="1038.15000039" y="158.400001526" type="line"/>
      <point x="332.100000978" y="158.400001526" type="line"/>
      <point x="391.800001383" y="99.3500011563" type="line"/>
      <point x="391.800001383" y="685.550000012" type="line"/>
      <point x="331.550000966" y="626.14999944" type="line"/>
      <point x="978.000000715" y="626.14999944" type="line"/>
      <point x="978.000000715" y="781.250000894" type="line"/>
      <point x="332.100000978" y="781.250000894" type="line"/>
      <point x="391.800001383" y="723.450000465" type="line"/>
      <point x="391.800001383" y="1255.799999" type="line"/>
      <point x="332.450000942" y="1197.79999852" type="line"/>
      <point x="1024.80000019" y="1197.79999852" type="line"/>
      <point x="1032.65000027" y="1352.89999998" type="line"/>
      <point x="182.099999309" y="1352.89999998" type="line"/>
    </contour>
  </outline>
</glyph>
<glyph name="F" format="1">
  <advance width="1066.6000011"/>
  <unicode hex="0046"/>
  <outline>
    <contour>
      <point x="182.099999309" y="0.0" type="line"/>
      <point x="393.600001335" y="0.0" type="line"/>
      <point x="393.600001335" y="668.899999976" type="line"/>
      <point x="319.200000763" y="602.149999201" type="line"/>
      <point x="954.000001192" y="602.149999201" type="line"/>
      <point x="954.000001192" y="754.450000703" type="line"/>
      <point x="314.300000787" y="754.450000703" type="line"/>
      <point x="393.600001335" y="696.55000025" type="line"/>
      <point x="393.600001335" y="1262.74999887" type="line"/>
      <point x="311.550000727" y="1192.2999984" type="line"/>
      <point x="1003.70000136" y="1192.2999984" type="line"/>
      <point x="1014.35000139" y="1352.89999998" type="line"/>
      <point x="182.099999309" y="1352.89999998" type="line"/>
    </contour>
  </outline>
</glyph>
<glyph name="G" format="1">
  <advance width="1383.59999967"/>
  <unicode hex="0047"/>
  <outline>
    <contour>
      <point x="768.799999714" y="-18.0" type="curve" smooth="yes"/>
      <point x="952.69999969" y="-18.0"/>
      <point x="1099.44999975" y="14.3000000715"/>
      <point x="1241.14999992" y="72.1000002623" type="curve"/>
      <point x="1241.14999992" y="704.050000608" type="line"/>
      <point x="759.899998546" y="704.050000608" type="line"/>
      <point x="755.849998653" y="545.099999309" type="line"/>
      <point x="1112.99999857" y="545.099999309" type="line"/>
      <point x="1053.99999833" y="604.099999547" type="line"/>
      <point x="1053.99999833" y="118.950001061" type="line"/>
      <point x="1113.99999881" y="213.650001943" type="line"/>
      <point x="1057.0499987" y="186.950001776"/>
      <point x="962.849999845" y="149.550001681"/>
      <point x="791.499999404" y="149.550001681" type="curve" smooth="yes"/>
      <point x="468.100001216" y="149.550001681"/>
      <point x="331.550001681" y="358.650000989"/>
      <point x="331.550001681" y="678.500000119" type="curve" smooth="yes"/>
      <point x="331.550001681" y="991.399999619"/>
      <point x="509.050001323" y="1206.09999835"/>
      <point x="797.700000167" y="1206.09999835" type="curve" smooth="yes"/>
      <point x="961.24999851" y="1206.09999835"/>
      <point x="1068.14999872" y="1156.3999989"/>
      <point x="1157.39999962" y="1109.89999855" type="curve"/>
      <point x="1207.85000008" y="1265.55000001" type="line"/>
      <point x="1086.19999957" y="1339.5999999"/>
      <point x="951.400000095" y="1370.89999998"/>
      <point x="790.24999994" y="1370.89999998" type="curve" smooth="yes"/>
      <point x="392.150000632" y="1370.89999998"/>
      <point x="121.849999607" y="1093.00000072"/>
      <point x="121.849999607" y="676.400000095" type="curve" smooth="yes"/>
      <point x="121.849999607" y="269.499999642"/>
      <point x="354.400000095" y="-18.0"/>
    </contour>
  </outline>
</glyph>
<glyph name="H" format="1">
  <advance width="1441.05000037"/>
  <unicode hex="0048"/>
  <outline>
    <contour>
      <point x="180.299999356" y="0.0" type="line"/>
      <point x="390.000001431" y="0.0" type="line"/>
      <point x="390.000001431" y="675.899999738" type="line"/>
      <point x="323.600001097" y="618.149999201" type="line"/>
      <point x="1120.79999924" y="618.149999201" type="line"/>
      <point x="1051.04999894" y="675.899999738" type="line"/>
      <point x="1051.04999894" y="0.0" type="line"/>
      <point x="1260.75000101" y="0.0" type="line"/>
      <point x="1260.75000101" y="1352.89999998" type="line"/>
      <point x="1051.04999894" y="1352.89999998" type="line"/>
      <point x="1051.04999894" y="715.100000262" type="line"/>
      <point x="1116.59999919" y="772.850000799" type="line"/>
      <point x="323.050001085" y="772.850000799" type="line"/>
      <point x="390.000001431" y="715.100000262" type="line"/>
      <point x="390.000001431" y="1352.89999998" type="line"/>
      <point x="180.299999356" y="1352.89999998" type="line"/>
    </contour>
  </outline>
</glyph>
<glyph name="I" format="1">
  <advance width="775.700001597"/>
  <unicode hex="0049"/>
  <outline>
    <contour>
      <point x="112.800000191" y="1352.89999998" type="line"/>
      <point x="112.800000191" y="1226.99999881" type="line"/>
      <point x="342.200000286" y="1226.99999881" type="line"/>
      <point x="284.099999785" y="1276.54999906" type="line"/>
      <point x="284.099999785" y="71.9000009298" type="line"/>
      <point x="343.900000215" y="125.900001168" type="line"/>
      <point x="112.800000191" y="125.900001168" type="line"/>
      <point x="112.800000191" y="0.0" type="line"/>
      <point x="662.900001407" y="0.0" type="line"/>
      <point x="662.900001407" y="125.900001168" type="line"/>
      <point x="428.950001299" y="125.900001168" type="line"/>
      <point x="493.80000186" y="72.2500008941" type="line"/>
      <point x="493.80000186" y="1277.29999912" type="line"/>
      <point x="430.750001252" y="1226.99999881" type="line"/>
      <point x="662.900001407" y="1226.99999881" type="line"/>
      <point x="662.900001407" y="1352.89999998" type="line"/>
    </contour>
  </outline>
</glyph>
<glyph name="J" format="1">
  <advance width="765.550002158"/>
  <unicode hex="004A"/>
  <outline>
    <contour>
      <point x="153.600001812" y="-181.050001085" type="line"/>
      <point x="443.550001442" y="-181.050001085"/>
      <point x="583.450002849" y="-7.70000016689"/>
      <point x="583.450002849" y="286.150000393" type="curve" smooth="yes"/>
      <point x="583.450002849" y="1352.89999998" type="line"/>
      <point x="373.750000775" y="1352.89999998" type="line"/>
      <point x="373.750000775" y="268.250000656" type="line" smooth="yes"/>
      <point x="373.750000775" y="115.300001979"/>
      <point x="313.250000894" y="-12.7999994755"/>
      <point x="132.150001347" y="-12.7999994755" type="curve" smooth="yes"/>
      <point x="13.4500002265" y="-12.7999994755" type="line"/>
      <point x="13.4500002265" y="-181.050001085" type="line"/>
    </contour>
  </outline>
</glyph>
<glyph name="K" format="1">
  <advance width="1276.45000142"/>
  <unicode hex="004B"/>
  <outline>
    <contour>
      <point x="182.099999309" y="0.0" type="line"/>
      <point x="391.800001383" y="0.0" type="line"/>
      <point x="391.800001383" y="612.199999809" type="line"/>
      <point x="343.850001276" y="499.099999309" type="line"/>
      <point x="564.250001609" y="695.199999332" type="line"/>
      <point x="480.400001049" y="702.699999452" type="line"/>
      <point x="1001.19999981" y="0.0" type="line"/>
      <point x="1244.90000212" y="0.0" type="line"/>
      <point x="626.150002778" y="811.750000298" type="line"/>
      <point x="629.300002694" y="703.999999285" type="line"/>
      <point x="1214.70000207" y="1352.89999998" type="line"/>
      <point x="971.349999726" y="1352.89999998" type="line"/>
      <point x="339.050001085" y="669.500000358" type="line"/>
      <point x="391.800001383" y="660.500000358" type="line"/>
      <point x="391.800001383" y="1352.89999998" type="line"/>
      <point x="182.099999309" y="1352.89999998" type="line"/>
    </contour>
  </outline>
</glyph>
<glyph name="L" format="1">
  <advance width="1068.40000057"/>
  <unicode hex="004C"/>
  <outline>
    <contour>
      <point x="182.099999309" y="0.0" type="line"/>
      <point x="1007.55000073" y="0.0" type="line"/>
      <point x="1015.25000089" y="158.400001526" type="line"/>
      <point x="316.250000894" y="158.400001526" type="line"/>
      <point x="391.800001383" y="81.950001061" type="line"/>
      <point x="391.800001383" y="1352.89999998" type="line"/>
      <point x="182.099999309" y="1352.89999998" type="line"/>
    </contour>
  </outline>
</glyph>
<glyph name="M" format="1">
  <advance width="1745.00000119"/>
  <unicode hex="004D"/>
  <outline>
    <contour>
      <point x="182.099999309" y="0.0" type="line"/>
      <point x="380.950001299" y="0.0" type="line"/>
      <point x="386.450001419" y="716.199993849" type="line"/>
      <point x="373.500001311" y="1141.39999604" type="line"/>
      <point x="335.650000989" y="1141.39999604" type="line"/>
      <point x="788.349999964" y="165.850000799" type="line"/>
      <point x="953.950001061" y="165.850000799" type="line"/>
      <point x="1415.95000011" y="1141.39999604" type="line"/>
      <point x="1373.94999987" y="1141.39999604" type="line"/>
      <point x="1359.99999976" y="719.649993837" type="line"/>
      <point x="1365.49999988" y="0.0" type="line"/>
      <point x="1562.90000188" y="0.0" type="line"/>
      <point x="1551.90000165" y="1352.89999998" type="line"/>
      <point x="1325.55000025" y="1352.89999998" type="line"/>
      <point x="835.30000031" y="310.900002837" type="line"/>
      <point x="912.850000799" y="310.900002837" type="line"/>
      <point x="425.350000918" y="1352.89999998" type="line"/>
      <point x="193.099999547" y="1352.89999998" type="line"/>
    </contour>
  </outline>
</glyph>
<glyph name="N" format="1">
  <advance width="1490.10000026"/>
  <unicode hex="004E"/>
  <outline>
    <contour>
      <point x="182.099999309" y="0.0" type="line"/>
      <point x="382.950001538" y="0.0" type="line"/>
      <point x="382.950001538" y="604.749994814" type="line"/>
      <point x="364.350001395" y="1163.19999743" type="line"/>
      <point x="318.150001109" y="1154.19999766" type="line"/>
      <point x="1084.49999845" y="0.0" type="line"/>
      <point x="1308.00000095" y="0.0" type="line"/>
      <point x="1308.00000095" y="1352.89999998" type="line"/>
      <point x="1107.14999872" y="1352.89999998" type="line"/>
      <point x="1107.14999872" y="669.700003743" type="line"/>
      <point x="1121.74999887" y="185.050002277" type="line"/>
      <point x="1165.89999902" y="187.300002217" type="line"/>
      <point x="397.750001729" y="1352.89999998" type="line"/>
      <point x="182.099999309" y="1352.89999998" type="line"/>
    </contour>
  </outline>
</glyph>
<glyph name="O" format="1">
  <advance width="1555.75000006"/>
  <unicode hex="004F"/>
  <outline>
    <contour>
      <point x="779.100000024" y="147.900001645" type="curve" smooth="yes"/>
      <point x="486.750001729" y="147.900001645"/>
      <point x="332.100001693" y="363.000000954"/>
      <point x="332.100001693" y="669.850000083" type="curve" smooth="yes"/>
      <point x="332.100001693" y="987.549999058"/>
      <point x="493.150001585" y="1203.89999831"/>
      <point x="779.550000012" y="1203.89999831" type="curve" smooth="yes"/>
      <point x="1066.39999843" y="1203.89999831"/>
      <point x="1223.64999837" y="986.649999082"/>
      <point x="1223.64999837" y="669.850000083" type="curve" smooth="yes"/>
      <point x="1223.64999837" y="363.000000954"/>
      <point x="1071.44999832" y="147.900001645"/>
    </contour>
    <contour>
      <point x="779.550000012" y="-18.0" type="curve" smooth="yes"/>
      <point x="1186.49999964" y="-18.0"/>
      <point x="1433.35000044" y="254.249999702"/>
      <point x="1433.35000044" y="670.050000131" type="curve" smooth="yes"/>
      <point x="1433.35000044" y="1098.40000033"/>
      <point x="1178.6499998" y="1370.89999998"/>
      <point x="780.0" y="1370.89999998" type="curve" smooth="yes"/>
      <point x="375.500000358" y="1370.89999998"/>
      <point x="122.399999619" y="1100.20000029"/>
      <point x="122.399999619" y="670.950000107" type="curve" smooth="yes"/>
      <point x="122.399999619" y="250.199999809"/>
      <point x="369.000000477" y="-18.0"/>
    </contour>
  </outline>
</glyph>
<glyph name="P" format="1">
  <advance width="1215.15000111"/>
  <unicode hex="0050"/>
  <outline>
    <contour>
      <point x="182.099999309" y="0.0" type="line"/>
      <point x="391.800001383" y="0.0" type="line"/>
      <point x="391.800001383" y="685.549999535" type="line"/>
      <point x="331.650001228" y="624.549999058" type="line"/>
      <point x="666.500000358" y="624.549999058" type="line" smooth="yes"/>
      <point x="1010.05000156" y="624.549999058"/>
      <point x="1139.35000163" y="768.899999499"/>
      <point x="1139.35000163" y="1008.64999956" type="curve" smooth="yes"/>
      <point x="1139.35000163" y="1270.3500002"/>
      <point x="939.400001049" y="1352.89999998"/>
      <point x="668.750000298" y="1352.89999998" type="curve" smooth="yes"/>
      <point x="182.099999309" y="1352.89999998" type="line"/>
    </contour>
    <contour>
      <point x="653.100000024" y="784.60000062" type="curve" smooth="yes"/>
      <point x="332.850001276" y="784.60000062" type="line"/>
      <point x="391.800001383" y="729.800000191" type="line"/>
      <point x="391.800001383" y="1254.84999865" type="line"/>
      <point x="332.850001276" y="1197.79999852" type="line"/>
      <point x="666.150000393" y="1197.79999852" type="line" smooth="yes"/>
      <point x="832.55000025" y="1197.79999852"/>
      <point x="929.649999559" y="1150.49999869"/>
      <point x="929.649999559" y="1004.69999945" type="curve" smooth="yes"/>
      <point x="929.649999559" y="848.050000608"/>
      <point x="857.450000226" y="784.60000062"/>
    </contour>
  </outline>
</glyph>
<glyph name="Q" format="1">
  <advance width="1555.75000006"/>
  <unicode hex="0051"/>
  <outline>
    <contour>
      <point x="1171.2499997" y="-424.90000093" type="curve"/>
      <point x="1292.55000097" y="-316.599999905" type="line"/>
      <point x="1197.75000054" y="-220.449999511"/>
      <point x="1087.35000092" y="-55.8499993682"/>
      <point x="1040.55000097" y="32.6500002742" type="curve"/>
      <point x="868.599999189" y="-5.2000002861" type="line"/>
      <point x="949.199999094" y="-158.449999988"/>
      <point x="1089.14999896" y="-357.700000644"/>
    </contour>
    <component base="O"/>
  </outline>
</glyph>
<glyph name="R" format="1">
  <advance width="1331.6499998"/>
  <unicode hex="0052"/>
  <outline>
    <contour>
      <point x="182.099999309" y="0.0" type="line"/>
      <point x="391.800001383" y="0.0" type="line"/>
      <point x="391.800001383" y="660.54999882" type="line"/>
      <point x="332.750001252" y="616.149998724" type="line"/>
      <point x="830.949999392" y="616.149998724" type="line"/>
      <point x="733.849998891" y="669.249998748" type="line"/>
      <point x="848.299998879" y="394.449998319" type="line"/>
      <point x="1017.04999822" y="0.0" type="line"/>
      <point x="1235.90000045" y="0.0" type="line"/>
      <point x="1034.05000108" y="449.049998462" type="line"/>
      <point x="917.050000608" y="721.199999332" type="line"/>
      <point x="903.800000429" y="631.54999882" type="line"/>
      <point x="1069.44999999" y="674.649999082"/>
      <point x="1182.75000054" y="767.099998832"/>
      <point x="1182.75000054" y="989.549999297" type="curve" smooth="yes"/>
      <point x="1182.75000054" y="1255.1000005"/>
      <point x="1020.09999931" y="1352.89999998"/>
      <point x="727.149998963" y="1352.89999998" type="curve" smooth="yes"/>
      <point x="182.099999309" y="1352.89999998" type="line"/>
    </contour>
    <contour>
      <point x="391.800001383" y="705.749999583" type="line"/>
      <point x="391.800001383" y="1253.39999866" type="line"/>
      <point x="334.050001323" y="1197.79999852" type="line"/>
      <point x="733.399999142" y="1197.79999852" type="line" smooth="yes"/>
      <point x="919.899998546" y="1197.79999852"/>
      <point x="975.299998403" y="1123.64999884"/>
      <point x="975.299998403" y="986.899999261" type="curve" smooth="yes"/>
      <point x="975.299998403" y="826.299999833"/>
      <point x="928.24999851" y="760.599999905"/>
      <point x="711.249999464" y="760.599999905" type="curve" smooth="yes"/>
      <point x="331.650001228" y="760.599999905" type="line"/>
    </contour>
  </outline>
</glyph>
<glyph name="S" format="1">
  <advance width="1150.30000055"/>
  <unicode hex="0053"/>
  <outline>
    <contour>
      <point x="569.850000083" y="-18.0" type="curve" smooth="yes"/>
      <point x="837.250000656" y="-18.0"/>
      <point x="1035.40000081" y="97.4000005722"/>
      <point x="1042.15000063" y="363.900000453" type="curve" smooth="yes"/>
      <point x="1048.00000048" y="591.250000179"/>
      <point x="917.350001156" y="680.550000727"/>
      <point x="707.100000501" y="756.850000799" type="curve" smooth="yes"/>
      <point x="493.550000489" y="835.150000632" type="line" smooth="yes"/>
      <point x="388.450001657" y="874.950000107"/>
      <point x="344.700001836" y="921.500000119"/>
      <point x="347.400001764" y="1017.09999931" type="curve" smooth="yes"/>
      <point x="351.000001669" y="1158.74999839"/>
      <point x="465.500000596" y="1203.89999831"/>
      <point x="607.950000346" y="1203.89999831" type="curve" smooth="yes"/>
      <point x="748.549999774" y="1203.89999831"/>
      <point x="870.599999905" y="1139.19999862"/>
      <point x="933.350000679" y="1108.64999837" type="curve"/>
      <point x="1001.85000104" y="1259.4000001" type="line"/>
      <point x="908.30000031" y="1320.30000031"/>
      <point x="763.700000167" y="1370.89999998"/>
      <point x="607.300000072" y="1370.89999998" type="curve" smooth="yes"/>
      <point x="366.749999344" y="1370.89999998"/>
      <point x="158.049999654" y="1270.84999913"/>
      <point x="151.749999821" y="1012.09999931" type="curve" smooth="yes"/>
      <point x="147.699999928" y="827.049999177"/>
      <point x="256.649999797" y="725.499998689"/>
      <point x="424.499999642" y="665.299998879" type="curve" smooth="yes"/>
      <point x="650.899999738" y="584.899999022" type="line" smooth="yes"/>
      <point x="795.149998486" y="531.749999583"/>
      <point x="850.149998486" y="478.849999607"/>
      <point x="846.999998569" y="364.300000548" type="curve" smooth="yes"/>
      <point x="842.949998677" y="209.800001383"/>
      <point x="750.099999309" y="147.900001645"/>
      <point x="577.600000143" y="147.900001645" type="curve" smooth="yes"/>
      <point x="421.300000787" y="147.900001645"/>
      <point x="285.300000072" y="200.350001395"/>
      <point x="202.000000238" y="258.900001168" type="curve"/>
      <point x="136.099999785" y="104.099999547" type="line"/>
      <point x="221.050000608" y="49.349999249"/>
      <point x="357.400001049" y="-18.0"/>
    </contour>
  </outline>
</glyph>
<glyph name="T" format="1">
  <advance width="1109.55000097"/>
  <unicode hex="0054"/>
  <outline>
    <contour>
      <point x="448.799999475" y="0.0" type="line"/>
      <point x="658.50000155" y="0.0" type="line"/>
      <point x="658.50000155" y="1259.4499988" type="line"/>
      <point x="600.350001156" y="1189.49999821" type="line"/>
      <point x="1058.85000104" y="1189.49999821" type="line"/>
      <point x="1058.85000104" y="1352.89999998" type="line"/>
      <point x="50.6999999285" y="1352.89999998" type="line"/>
      <point x="50.6999999285" y="1189.49999821" type="line"/>
      <point x="506.949999869" y="1189.49999821" type="line"/>
      <point x="448.799999475" y="1259.09999883" type="line"/>
    </contour>
  </outline>
</glyph>
<glyph name="U" format="1">
  <advance width="1405.5000006"/>
  <unicode hex="0055"/>
  <outline>
    <contour>
      <point x="702.30000031" y="-18.0" type="curve" smooth="yes"/>
      <point x="1058.30000007" y="-18.0"/>
      <point x="1252.50000083" y="189.099999547"/>
      <point x="1252.50000083" y="490.749999821" type="curve" smooth="yes"/>
      <point x="1252.50000083" y="1352.89999998" type="line"/>
      <point x="1042.79999876" y="1352.89999998" type="line"/>
      <point x="1042.79999876" y="501.850000083" type="line" smooth="yes"/>
      <point x="1042.79999876" y="270.400001049"/>
      <point x="926.149999201" y="149.550001681"/>
      <point x="702.30000031" y="149.550001681" type="curve" smooth="yes"/>
      <point x="475.000001669" y="149.550001681"/>
      <point x="362.700001836" y="270.300001025"/>
      <point x="362.700001836" y="501.75000006" type="curve" smooth="yes"/>
      <point x="362.700001836" y="1352.89999998" type="line"/>
      <point x="152.999999762" y="1352.89999998" type="line"/>
      <point x="152.999999762" y="492.649999797" type="line" smooth="yes"/>
      <point x="152.999999762" y="189.349999487"/>
      <point x="346.650000513" y="-18.0"/>
    </contour>
  </outline>
</glyph>
<glyph name="V" format="1">
  <advance width="1317.00000119"/>
  <unicode hex="0056"/>
  <outline>
    <contour>
      <point x="552.449999034" y="0.0" type="line"/>
      <point x="763.900002122" y="0.0" type="line"/>
      <point x="1251.20000124" y="1352.89999998" type="line"/>
      <point x="1032.04999894" y="1352.89999998" type="line"/>
      <point x="755.55000025" y="527.600001574" type="line"/>
      <point x="630.400000572" y="145.550001204" type="line"/>
      <point x="691.550000727" y="145.550001204" type="line"/>
      <point x="565.200001001" y="524.800001621" type="line"/>
      <point x="286.500002265" y="1352.89999998" type="line"/>
      <point x="65.7999999523" y="1352.89999998" type="line"/>
    </contour>
  </outline>
</glyph>
<glyph name="W" format="1">
  <advance width="1928.4999994"/>
  <unicode hex="0057"/>
  <outline>
    <contour>
      <point x="442.099998832" y="0.0" type="line"/>
      <point x="640.550000727" y="0.0" type="line"/>
      <point x="989.69999969" y="1144.39999723" type="line"/>
      <point x="943.799999714" y="1144.39999723" type="line"/>
      <point x="1278.84999841" y="0.0" type="line"/>
      <point x="1479.7500003" y="0.0" type="line"/>
      <point x="1882.09999979" y="1352.44999999" type="line"/>
      <point x="1678.49999774" y="1352.44999999" type="line"/>
      <point x="1358.5499993" y="203.600002766" type="line"/>
      <point x="1395.79999924" y="203.600002766" type="line"/>
      <point x="1062.30000055" y="1332.05000037" type="line"/>
      <point x="867.199998856" y="1332.05000037" type="line"/>
      <point x="525.699999928" y="204.500002742" type="line"/>
      <point x="564.149999917" y="204.500002742" type="line"/>
      <point x="248.750001729" y="1352.44999999" type="line"/>
      <point x="46.3999996185" y="1352.44999999" type="line"/>
    </contour>
  </outline>
</glyph>
<glyph name="X" format="1">
  <advance width="1293.5000006"/>
  <unicode hex="0058"/>
  <outline>
    <contour>
      <point x="89.4999986887" y="0.0" type="line"/>
      <point x="299.550000966" y="0.0" type="line"/>
      <point x="662.750000298" y="549.699998498" type="line"/>
      <point x="755.350001395" y="660.450000226" type="line"/>
      <point x="1199.10000145" y="1352.89999998" type="line"/>
      <point x="988.649999321" y="1352.89999998" type="line"/>
      <point x="653.850000322" y="820.050002038" type="line"/>
      <point x="548.699999213" y="708.250000417" type="line"/>
    </contour>
    <contour>
      <point x="994.599999189" y="0.0" type="line"/>
      <point x="1211.20000172" y="0.0" type="line"/>
      <point x="314.000001669" y="1352.89999998" type="line"/>
      <point x="99.8999992609" y="1352.89999998" type="line"/>
    </contour>
  </outline>
</glyph>
<glyph name="Y" format="1">
  <advance width="1207.05000132"/>
  <unicode hex="0059"/>
  <outline>
    <contour>
      <point x="508.14999944" y="0.0" type="line"/>
      <point x="714.550001442" y="0.0" type="line"/>
      <point x="714.550001442" y="621.799999952" type="line"/>
      <point x="667.300001264" y="452.599998951" type="line"/>
      <point x="1154.95000154" y="1352.89999998" type="line"/>
      <point x="943.349999249" y="1352.89999998" type="line"/>
      <point x="576.700000167" y="642.500000834" type="line"/>
      <point x="643.700000644" y="642.500000834" type="line"/>
      <point x="266.000002146" y="1352.89999998" type="line"/>
      <point x="52.0999997854" y="1352.89999998" type="line"/>
      <point x="560.94999963" y="441.649998844" type="line"/>
      <point x="508.14999944" y="618.949999869" type="line"/>
    </contour>
  </outline>
</glyph>
<glyph name="Z" format="1">
  <advance width="1167.8500008"/>
  <unicode hex="005A"/>
  <outline>
    <contour>
      <point x="141.500000119" y="0.0" type="line"/>
      <point x="1049.80000091" y="0.0" type="line"/>
      <point x="1054.75000077" y="158.400001526" type="line"/>
      <point x="326.850002706" y="158.400001526" type="line"/>
      <point x="355.750002921" y="92.950001061" type="line"/>
      <point x="1047.10000074" y="1213.24999875" type="line"/>
      <point x="1043.05000085" y="1352.89999998" type="line"/>
      <point x="164.249999702" y="1352.89999998" type="line"/>
      <point x="164.249999702" y="1197.79999852" type="line"/>
      <point x="879.949998677" y="1197.79999852" type="line"/>
      <point x="844.149998486" y="1259.04999918" type="line"/>
      <point x="141.500000119" y="136.450000942" type="line"/>
    </contour>
  </outline>
</glyph>
<glyph name="bracketleft" format="1">
  <advance width="685.350001872"/>
  <unicode hex="005B"/>
  <outline>
    <contour>
      <point x="157.050001085" y="-188.549997866" type="line"/>
      <point x="157.050001085" y="1398.00000095" type="line"/>
      <point x="574.200001478" y="1398.00000095" type="line"/>
      <point x="574.200001478" y="1262.09999979" type="line"/>
      <point x="333.650002897" y="1262.09999979" type="line"/>
      <point x="333.650002897" y="-52.9999966621" type="line"/>
      <point x="574.200001478" y="-52.9999966621" type="line"/>
      <point x="574.200001478" y="-188.549997866" type="line"/>
    </contour>
  </outline>
</glyph>
<glyph name="backslash" format="1">
  <advance width="867.299999356"/>
  <unicode hex="005C"/>
  <outline>
    <contour>
      <point x="596.599998474" y="-25.1999993324" type="line"/>
      <point x="111.049999654" y="1344.09999979" type="line"/>
      <point x="273.200001478" y="1344.09999979" type="line"/>
      <point x="756.450000226" y="-25.1999993324" type="line"/>
    </contour>
  </outline>
</glyph>
<glyph name="bracketright" format="1">
  <advance width="686.250001848"/>
  <unicode hex="005D"/>
  <outline>
    <contour>
      <point x="112.500000358" y="-188.549997866" type="line"/>
      <point x="112.500000358" y="-53.5499966741" type="line"/>
      <point x="353.049998939" y="-53.5499966741" type="line"/>
      <point x="353.049998939" y="1261.54999977" type="line"/>
      <point x="112.500000358" y="1261.54999977" type="line"/>
      <point x="112.500000358" y="1398.00000095" type="line"/>
      <point x="529.200000763" y="1398.00000095" type="line"/>
      <point x="529.200000763" y="-188.549997866" type="line"/>
    </contour>
  </outline>
</glyph>
<glyph name="asciicircum" format="1">
  <advance width="1153.44999808"/>
  <unicode hex="005E"/>
  <outline>
    <contour>
      <point x="104.049998462" y="524.749999106" type="line"/>
      <point x="511.79999876" y="1371.74999934" type="line"/>
      <point x="611.599999428" y="1371.74999934" type="line"/>
      <point x="1043.09999979" y="524.749999106" type="line"/>
      <point x="896.649998128" y="524.749999106" type="line"/>
      <point x="562.299999118" y="1179.39999723" type="line"/>
      <point x="252.300000072" y="524.749999106" type="line"/>
    </contour>
  </outline>
</glyph>
<glyph name="underscore" format="1">
  <advance width="1009.75000006"/>
  <unicode hex="005F"/>
  <outline>
    <contour>
      <point x="68.3499994874" y="-222.249998748" type="line"/>
      <point x="936.000000715" y="-222.249998748" type="line"/>
      <point x="936.000000715" y="-86.8499976993" type="line"/>
      <point x="68.3499994874" y="-86.8499976993" type="line"/>
    </contour>
  </outline>
</glyph>
<glyph name="grave" format="1">
  <advance width="555.899997115"/>
  <unicode hex="0060"/>
  <outline>
    <contour>
      <point x="353.999998331" y="1123.74999887" type="line"/>
      <point x="469.499999642" y="1123.74999887" type="line"/>
      <point x="299.699999452" y="1478.44999903" type="line"/>
      <point x="56.4999979734" y="1478.44999903" type="line"/>
    </contour>
  </outline>
</glyph>
<glyph name="a" format="1">
  <advance width="1063.89999974"/>
  <unicode hex="0061"/>
  <outline>
    <contour>
      <point x="419.499999881" y="-16.2000000477" type="curve" smooth="yes"/>
      <point x="552.600000143" y="-16.2000000477"/>
      <point x="695.649999797" y="38.0000004768"/>
      <point x="785.649999082" y="171.049999416" type="curve"/>
      <point x="742.749998868" y="190.849999845" type="line"/>
      <point x="778.399999142" y="0.449999988079" type="line"/>
      <point x="918.900000453" y="0.449999988079" type="line"/>
      <point x="918.900000453" y="658.200000048" type="line" smooth="yes"/>
      <point x="918.900000453" y="926.800000191"/>
      <point x="754.100000262" y="1024.25000042"/>
      <point x="525.050000131" y="1024.25000042" type="curve" smooth="yes"/>
      <point x="408.200000048" y="1024.25000042"/>
      <point x="265.300000072" y="992.750000536"/>
      <point x="153.949999392" y="941.700000405" type="curve"/>
      <point x="199.199999571" y="811.199999332" type="line"/>
      <point x="296.999999762" y="853.599999189"/>
      <point x="418.199999571" y="881.599999189"/>
      <point x="513.699999452" y="881.599999189" type="curve" smooth="yes"/>
      <point x="651.699998736" y="881.599999189"/>
      <point x="728.699998736" y="817.549999774"/>
      <point x="728.699998736" y="683.150000155" type="curve"/>
      <point x="728.699998736" y="576.450000703" type="line"/>
      <point x="764.199998856" y="612.200000763" type="line"/>
      <point x="543.749998868" y="602.300000548" type="line" smooth="yes"/>
      <point x="251.599999905" y="590.750000298"/>
      <point x="105.899999738" y="491.400000572"/>
      <point x="105.899999738" y="274.150000393" type="curve" smooth="yes"/>
      <point x="105.899999738" y="81.5500000119"/>
      <point x="241.699999928" y="-16.2000000477"/>
    </contour>
    <contour>
      <point x="445.800000668" y="123.150001109" type="curve" smooth="yes"/>
      <point x="359.100000739" y="123.150001109"/>
      <point x="286.100001216" y="172.750001013"/>
      <point x="286.100001216" y="275.150000393" type="curve" smooth="yes"/>
      <point x="286.100001216" y="409.24999994"/>
      <point x="360.550001442" y="470.299999356"/>
      <point x="600.499999642" y="479.099999547" type="curve" smooth="yes"/>
      <point x="756.499998689" y="485.149999678" type="line"/>
      <point x="728.149998724" y="519.349999726" type="line"/>
      <point x="728.149998724" y="223.75000006" type="line"/>
      <point x="763.649998844" y="315.799999714" type="line"/>
      <point x="708.399999857" y="207.150001585"/>
      <point x="578.100000024" y="123.150001109"/>
    </contour>
  </outline>
</glyph>
<glyph name="b" format="1">
  <advance width="1167.94999963"/>
  <unicode hex="0062"/>
  <outline>
    <contour>
      <point x="644.850000322" y="-18.0" type="curve" smooth="yes"/>
      <point x="913.149999917" y="-18.0"/>
      <point x="1067.75000006" y="192.100000262"/>
      <point x="1067.75000006" y="504.150000393" type="curve" smooth="yes"/>
      <point x="1067.75000006" y="810.450000226"/>
      <point x="924.049999893" y="1024.35000044"/>
      <point x="650.650000274" y="1024.35000044" type="curve" smooth="yes"/>
      <point x="494.950000584" y="1024.35000044"/>
      <point x="372.650000989" y="931.200000763"/>
      <point x="311.550000966" y="819.050001562" type="curve"/>
      <point x="341.550000966" y="809.150001347" type="line"/>
      <point x="344.850001037" y="1036.70000112" type="line"/>
      <point x="344.850001037" y="1378.79999971" type="line"/>
      <point x="151.39999938" y="1365.49999964" type="line"/>
      <point x="151.39999938" y="0.550000011921" type="line"/>
      <point x="312.550000966" y="0.550000011921" type="line"/>
      <point x="335.600001097" y="225.899998546" type="line"/>
      <point x="292.250001132" y="215.099998355" type="line"/>
      <point x="341.350001395" y="108.299998641"/>
      <point x="467.300001502" y="-18.0"/>
    </contour>
    <contour>
      <point x="612.449999511" y="129.050001323" type="curve" smooth="yes"/>
      <point x="447.100000501" y="129.050001323"/>
      <point x="340.750001013" y="252.700000644"/>
      <point x="340.750001013" y="517.55000025" type="curve"/>
      <point x="341.400001049" y="748.900000215"/>
      <point x="437.550000966" y="877.84999913"/>
      <point x="618.799999475" y="877.84999913" type="curve" smooth="yes"/>
      <point x="793.299998164" y="877.84999913"/>
      <point x="875.649998367" y="738.850000322"/>
      <point x="875.649998367" y="503.400000334" type="curve" smooth="yes"/>
      <point x="875.649998367" y="262.550000489"/>
      <point x="785.149998248" y="129.050001323"/>
    </contour>
  </outline>
</glyph>
<glyph name="c" format="1">
  <advance width="941.400000095"/>
  <unicode hex="0063"/>
  <outline>
    <contour>
      <point x="578.449999988" y="-18.0" type="curve" smooth="yes"/>
      <point x="730.15000087" y="-18.0"/>
      <point x="819.750000536" y="29.3000003099"/>
      <point x="854.000000477" y="55.9000002146" type="curve"/>
      <point x="823.250000417" y="188.950001538" type="line"/>
      <point x="765.300000072" y="156.150001347"/>
      <point x="685.900000215" y="128.500001311"/>
      <point x="599.950000107" y="131.250001371" type="curve" smooth="yes"/>
      <point x="406.350001395" y="135.100001454"/>
      <point x="291.400001287" y="279.850000322"/>
      <point x="291.400001287" y="499.500000358" type="curve" smooth="yes"/>
      <point x="291.400001287" y="733.650000036"/>
      <point x="417.950001299" y="875.09999907"/>
      <point x="610.100000024" y="875.09999907" type="curve" smooth="yes"/>
      <point x="676.800001144" y="875.09999907"/>
      <point x="750.150001109" y="853.899998546"/>
      <point x="809.400000334" y="820.599998951" type="curve"/>
      <point x="859.500000596" y="951.350000203" type="line"/>
      <point x="789.200000286" y="997.000000477"/>
      <point x="696.350000203" y="1024.35000044"/>
      <point x="585.949999869" y="1024.35000044" type="curve" smooth="yes"/>
      <point x="306.24999994" y="1024.35000044"/>
      <point x="100.199999571" y="823.600000858"/>
      <point x="100.199999571" y="501.150000393" type="curve" smooth="yes"/>
      <point x="100.199999571" y="185.299999595"/>
      <point x="289.749999821" y="-18.0"/>
    </contour>
  </outline>
</glyph>
<glyph name="d" format="1">
  <advance width="1164.34999973"/>
  <unicode hex="0064"/>
  <outline>
    <contour>
      <point x="525.699999452" y="-17.4499999881" type="curve" smooth="yes"/>
      <point x="734.149999201" y="-17.4499999881"/>
      <point x="822.749998868" y="108.699999452"/>
      <point x="867.899998784" y="220.49999845" type="curve"/>
      <point x="825.549998581" y="222.299998403" type="line"/>
      <point x="850.999998808" y="0.0" type="line"/>
      <point x="1012.95000035" y="0.0" type="line"/>
      <point x="1012.95000035" y="1378.79999971" type="line"/>
      <point x="820.849998653" y="1365.49999964" type="line"/>
      <point x="820.849998653" y="1058.74999982" type="line"/>
      <point x="831.299998641" y="797.900001884" type="line"/>
      <point x="865.249998748" y="811.700002074" type="line"/>
      <point x="806.449998796" y="928.75000149"/>
      <point x="715.049998462" y="1024.35000044"/>
      <point x="524.349999487" y="1024.35000044" type="curve" smooth="yes"/>
      <point x="259.649999559" y="1024.35000044"/>
      <point x="100.199999571" y="812.950000346"/>
      <point x="100.199999571" y="508.900000215" type="curve" smooth="yes"/>
      <point x="100.199999571" y="193.250000179"/>
      <point x="252.999999762" y="-17.4499999881"/>
    </contour>
    <contour>
      <point x="554.700000167" y="129.050001323" type="curve" smooth="yes"/>
      <point x="375.500001311" y="129.050001323"/>
      <point x="292.300001264" y="268.700000167"/>
      <point x="292.300001264" y="505.250000179" type="curve" smooth="yes"/>
      <point x="292.300001264" y="749.950000107"/>
      <point x="392.550001442" y="876.749999106"/>
      <point x="563.900000215" y="876.749999106" type="curve" smooth="yes"/>
      <point x="730.099999309" y="876.749999106"/>
      <point x="828.249998748" y="756.300000072"/>
      <point x="828.249998748" y="490.250000179" type="curve"/>
      <point x="827.149998724" y="258.900000215"/>
      <point x="740.649998844" y="129.050001323"/>
    </contour>
  </outline>
</glyph>
<glyph name="e" format="1">
  <advance width="1099.30000055"/>
  <unicode hex="0065"/>
  <outline>
    <contour>
      <point x="604.100000501" y="-18.0" type="curve" smooth="yes"/>
      <point x="754.700000644" y="-18.0"/>
      <point x="875.050000846" y="12.5999999046"/>
      <point x="970.15000087" y="69.5500000119" type="curve"/>
      <point x="935.600000858" y="201.850001276" type="line"/>
      <point x="860.30000174" y="165.750001729"/>
      <point x="757.350001395" y="127.20000124"/>
      <point x="624.050000608" y="127.20000124" type="curve" smooth="yes"/>
      <point x="437.550000966" y="127.20000124"/>
      <point x="290.700001359" y="237.450000942"/>
      <point x="291.250001371" y="500.549999774" type="curve"/>
      <point x="247.20000124" y="463.749999583" type="line"/>
      <point x="988.800000906" y="463.749999583" type="line"/>
      <point x="988.800000906" y="463.749999583"/>
      <point x="994.90000093" y="533.100000262"/>
      <point x="994.90000093" y="554.400000095" type="curve" smooth="yes"/>
      <point x="994.90000093" y="834.150000155"/>
      <point x="842.400000572" y="1024.35000044"/>
      <point x="580.950000107" y="1024.35000044" type="curve" smooth="yes"/>
      <point x="312.649999559" y="1023.80000043"/>
      <point x="100.199999571" y="821.900000215"/>
      <point x="100.199999571" y="499.850000322" type="curve" smooth="yes"/>
      <point x="100.199999571" y="177.600000143"/>
      <point x="309.799999952" y="-18.0"/>
    </contour>
    <contour>
      <point x="295.900001407" y="550.650000513" type="line"/>
      <point x="300.850001276" y="762.250000179"/>
      <point x="434.950001299" y="882.799999237"/>
      <point x="584.300000072" y="882.799999237" type="curve" smooth="yes"/>
      <point x="735.949999154" y="882.799999237"/>
      <point x="817.949999154" y="769.749999821"/>
      <point x="820.149999201" y="548.250000656" type="curve"/>
      <point x="863.199999094" y="588.250000656" type="line"/>
      <point x="248.300001264" y="588.250000656" type="line"/>
    </contour>
  </outline>
</glyph>
<glyph name="f" format="1">
  <advance width="727.400000572"/>
  <unicode hex="0066"/>
  <outline>
    <contour>
      <point x="240.599999428" y="0.0" type="line"/>
      <point x="432.700001121" y="0.0" type="line"/>
      <point x="432.700001121" y="920.049999416" type="line"/>
      <point x="392.700001121" y="874.999999046" type="line"/>
      <point x="669.250001132" y="874.999999046" type="line"/>
      <point x="669.250001132" y="1002.50000036" type="line"/>
      <point x="388.100000978" y="1002.50000036" type="line"/>
      <point x="432.700001121" y="964.100000024" type="line"/>
      <point x="432.700001121" y="1066.10000002" type="line" smooth="yes"/>
      <point x="432.700001121" y="1232.24999899"/>
      <point x="488.000000954" y="1253.3999989"/>
      <point x="578.100000739" y="1253.3999989" type="curve" smooth="yes"/>
      <point x="619.900000691" y="1253.3999989"/>
      <point x="674.750000536" y="1245.59999895"/>
      <point x="691.250000894" y="1242.84999889" type="curve"/>
      <point x="707.050001085" y="1379.25000018" type="line"/>
      <point x="670.200000286" y="1386.40000033"/>
      <point x="608.650000274" y="1396.00000024"/>
      <point x="542.900000453" y="1396.00000024" type="curve" smooth="yes"/>
      <point x="361.400000095" y="1396.00000024"/>
      <point x="240.599999428" y="1317.90000045"/>
      <point x="240.599999428" y="1052.74999982" type="curve" smooth="yes"/>
      <point x="240.599999428" y="963.0" type="line"/>
      <point x="283.349999487" y="1006.05000037" type="line"/>
      <point x="77.5500000119" y="985.400000334" type="line"/>
      <point x="72.5500000119" y="874.999999046" type="line"/>
      <point x="276.099999547" y="874.999999046" type="line"/>
      <point x="240.599999428" y="923.14999944" type="line"/>
    </contour>
  </outline>
</glyph>
<glyph name="g" format="1">
  <advance width="1171.94999939"/>
  <unicode hex="0067"/>
  <outline>
    <contour>
      <point x="561.749999821" y="146.400001287" type="curve" smooth="yes"/>
      <point x="354.750000775" y="146.400001287"/>
      <point x="281.850001037" y="329.850000083"/>
      <point x="281.850001037" y="509.800000429" type="curve" smooth="yes"/>
      <point x="281.850001037" y="698.450000465"/>
      <point x="362.000000954" y="876.749999106"/>
      <point x="568.049999893" y="876.749999106" type="curve"/>
      <point x="768.699998736" y="876.749999106"/>
      <point x="842.299998403" y="739.749999821"/>
      <point x="842.299998403" y="541.399999857" type="curve" smooth="yes"/>
      <point x="842.299998403" y="477.400000811" type="line"/>
      <point x="841.199998379" y="297.800000668"/>
      <point x="766.399998903" y="146.400001287"/>
    </contour>
    <contour>
      <point x="469.14999944" y="-452.950000823" type="curve" smooth="yes"/>
      <point x="853.699998975" y="-452.950000823"/>
      <point x="1028.34999996" y="-228.450000942"/>
      <point x="1028.34999996" y="101.650000274" type="curve" smooth="yes"/>
      <point x="1028.34999996" y="1002.50000036" type="line"/>
      <point x="855.349998534" y="1002.50000036" type="line"/>
      <point x="839.599998474" y="807.550000966" type="line"/>
      <point x="872.799998522" y="812.500001073" type="line"/>
      <point x="820.299998403" y="951.800001144"/>
      <point x="705.149998486" y="1024.35000044"/>
      <point x="544.799999237" y="1024.35000044" type="curve" smooth="yes"/>
      <point x="258.950000584" y="1024.35000044"/>
      <point x="89.7499993443" y="798.650001466"/>
      <point x="89.7499993443" y="501.900000453" type="curve" smooth="yes"/>
      <point x="89.7499993443" y="239.999999285"/>
      <point x="245.75000006" y="0.0"/>
      <point x="534.099999309" y="0.0" type="curve" smooth="yes"/>
      <point x="710.349998295" y="0.0"/>
      <point x="839.549998343" y="85.3499987721"/>
      <point x="882.349998534" y="252.499999642" type="curve"/>
      <point x="840.649998367" y="257.099999785" type="line"/>
      <point x="840.649998367" y="45.5499990582" type="line" smooth="yes"/>
      <point x="840.649998367" y="-171.94999963"/>
      <point x="723.499998212" y="-302.249999464"/>
      <point x="462.649999559" y="-302.249999464" type="curve" smooth="yes"/>
      <point x="451.799999714" y="-302.249999464"/>
      <point x="424.449077132" y="-302.321219093"/>
      <point x="243.999999046" y="-296.349999487" type="curve"/>
      <point x="243.999999046" y="-447.050000846" type="line"/>
      <point x="448.748987336" y="-453.03828036"/>
      <point x="459.449999511" y="-452.950000823"/>
    </contour>
  </outline>
</glyph>
<glyph name="h" format="1">
  <advance width="1136.20000005"/>
  <unicode hex="0068"/>
  <outline>
    <contour>
      <point x="151.39999938" y="0.0" type="line"/>
      <point x="341.850001037" y="0.0" type="line"/>
      <point x="341.850001037" y="525.199999094" type="line" smooth="yes"/>
      <point x="341.850001037" y="710.69999969"/>
      <point x="394.550000727" y="877.299999118"/>
      <point x="615.499999881" y="877.299999118" type="curve" smooth="yes"/>
      <point x="754.349999249" y="877.299999118"/>
      <point x="802.699998975" y="791.649999559"/>
      <point x="802.699998975" y="612.600000143" type="curve" smooth="yes"/>
      <point x="802.699998975" y="0.0" type="line"/>
      <point x="994.800000668" y="0.0" type="line"/>
      <point x="994.800000668" y="624.800000429" type="line" smooth="yes"/>
      <point x="994.800000668" y="887.850000799"/>
      <point x="870.200000286" y="1024.35000044"/>
      <point x="653.500000358" y="1024.35000044" type="curve" smooth="yes"/>
      <point x="491.950000823" y="1024.35000044"/>
      <point x="358.450000942" y="944.85000056"/>
      <point x="293.500000834" y="810.750001252" type="curve"/>
      <point x="335.300001025" y="795.250001132" type="line"/>
      <point x="343.500001073" y="1069.15000087" type="line"/>
      <point x="343.500001073" y="1378.79999971" type="line"/>
      <point x="151.39999938" y="1365.49999964" type="line"/>
    </contour>
  </outline>
</glyph>
<glyph name="i" format="1">
  <advance width="498.050000608"/>
  <unicode hex="0069"/>
  <outline>
    <contour>
      <point x="156.349999487" y="0.0" type="line"/>
      <point x="348.45000118" y="0.0" type="line"/>
      <point x="348.45000118" y="1002.50000036" type="line"/>
      <point x="156.349999487" y="1002.50000036" type="line"/>
    </contour>
    <contour>
      <point x="156.349999487" y="1180.39999938" type="line"/>
      <point x="348.45000118" y="1180.39999938" type="line"/>
      <point x="348.45000118" y="1352.89999998" type="line"/>
      <point x="156.349999487" y="1352.89999998" type="line"/>
    </contour>
  </outline>
</glyph>
<glyph name="j" format="1">
  <advance width="534.550000727"/>
  <unicode hex="006A"/>
  <outline>
    <contour>
      <point x="18.949999392" y="-393.399999619" type="line"/>
      <point x="69.4999996424" y="-393.399999619" type="line" smooth="yes"/>
      <point x="332.150001109" y="-393.399999619"/>
      <point x="388.750001252" y="-293.549998581"/>
      <point x="388.750001252" y="-40.5499978662" type="curve" smooth="yes"/>
      <point x="388.750001252" y="1003.05000037" type="line"/>
      <point x="197.399999619" y="1003.05000037" type="line"/>
      <point x="197.399999619" y="-39.9999990463" type="line" smooth="yes"/>
      <point x="197.399999619" y="-203.449998558"/>
      <point x="189.799999475" y="-239.199998617"/>
      <point x="47.8999994993" y="-239.199998617" type="curve" smooth="yes"/>
      <point x="-2.8500007987" y="-239.199998617" type="line"/>
    </contour>
    <contour>
      <point x="197.399999619" y="1180.39999938" type="line"/>
      <point x="388.750001252" y="1180.39999938" type="line"/>
      <point x="388.750001252" y="1352.89999998" type="line"/>
      <point x="197.399999619" y="1352.89999998" type="line"/>
    </contour>
  </outline>
</glyph>
<glyph name="k" format="1">
  <advance width="1063.35000092"/>
  <unicode hex="006B"/>
  <outline>
    <contour>
      <point x="151.39999938" y="0.0" type="line"/>
      <point x="343.500001073" y="0.0" type="line"/>
      <point x="343.500001073" y="408.400000334" type="line"/>
      <point x="296.100000739" y="309.299999595" type="line"/>
      <point x="483.650000751" y="483.349999726" type="line"/>
      <point x="418.750000536" y="483.349999726" type="line"/>
      <point x="815.799999237" y="0.0" type="line"/>
      <point x="1040.75000125" y="0.0" type="line"/>
      <point x="554.500002027" y="588.450000703" type="line"/>
      <point x="554.500002027" y="502.349999964" type="line"/>
      <point x="1024.85000104" y="1002.50000036" type="line"/>
      <point x="787.349998772" y="1002.50000036" type="line"/>
      <point x="299.350000918" y="486.700001121" type="line"/>
      <point x="336.950001061" y="486.700001121" type="line"/>
      <point x="343.500001073" y="727.400001526" type="line"/>
      <point x="343.500001073" y="1378.79999971" type="line"/>
      <point x="151.39999938" y="1365.49999964" type="line"/>
    </contour>
  </outline>
</glyph>
<glyph name="l" format="1">
  <advance width="625.100001454"/>
  <unicode hex="006C"/>
  <outline>
    <contour>
      <point x="477.100000978" y="-11.6500000358" type="curve" smooth="yes"/>
      <point x="547.150001109" y="-11.6500000358"/>
      <point x="606.500001311" y="1.40000009537"/>
      <point x="619.350001156" y="4.40000009537" type="curve"/>
      <point x="619.350001156" y="138.500001311" type="line"/>
      <point x="603.750001013" y="136.950001299"/>
      <point x="547.90000093" y="129.850001276"/>
      <point x="508.100001216" y="129.850001276" type="curve" smooth="yes"/>
      <point x="405.550001681" y="129.850001276"/>
      <point x="344.600001097" y="163.450000942"/>
      <point x="344.600001097" y="320.80000186" type="curve" smooth="yes"/>
      <point x="344.600001097" y="1378.79999971" type="line"/>
      <point x="152.499999404" y="1365.49999964" type="line"/>
      <point x="152.499999404" y="329.450001895" type="line" smooth="yes"/>
      <point x="152.499999404" y="80.8000011444"/>
      <point x="269.84999913" y="-11.6500000358"/>
    </contour>
  </outline>
</glyph>
<glyph name="m" format="1">
  <advance width="1684.85000032"/>
  <unicode hex="006D"/>
  <outline>
    <contour>
      <point x="151.39999938" y="0.0" type="line"/>
      <point x="343.500001073" y="0.0" type="line"/>
      <point x="343.500001073" y="565.549998105" type="line" smooth="yes"/>
      <point x="359.250000656" y="742.599998713"/>
      <point x="421.399999619" y="877.299999118"/>
      <point x="590.100000024" y="877.299999118" type="curve" smooth="yes"/>
      <point x="723.749999583" y="877.299999118"/>
      <point x="755.899999261" y="778.749999344"/>
      <point x="755.899999261" y="569.750000536" type="curve" smooth="yes"/>
      <point x="755.899999261" y="0.0" type="line"/>
      <point x="948.000000954" y="0.0" type="line"/>
      <point x="948.000000954" y="541.550001442" type="line"/>
      <point x="951.129244726" y="608.638389516"/>
      <point x="954.788505666" y="656.031436361"/>
      <point x="964.453121745" y="686.568533548" type="curve" smooth="yes"/>
      <point x="997.341450491" y="811.89334505"/>
      <point x="1082.15431556" y="877.299999118"/>
      <point x="1189.09999979" y="877.299999118" type="curve" smooth="yes"/>
      <point x="1345.0499987" y="877.299999118"/>
      <point x="1351.34999925" y="731.400000811"/>
      <point x="1351.34999925" y="570.900000215" type="curve" smooth="yes"/>
      <point x="1351.34999925" y="0.0" type="line"/>
      <point x="1543.45000094" y="0.0" type="line"/>
      <point x="1543.45000094" y="642.850000083" type="line" smooth="yes"/>
      <point x="1543.45000094" y="888.900000215"/>
      <point x="1443.05000085" y="1024.35000044"/>
      <point x="1226.60000038" y="1024.35000044" type="curve" smooth="yes"/>
      <point x="1069.6000011" y="1024.35000044"/>
      <point x="953.650000989" y="938.700001121"/>
      <point x="882.550000727" y="796.150001347" type="curve"/>
      <point x="927.400001049" y="796.150001347" type="line"/>
      <point x="879.800000668" y="928.250001371"/>
      <point x="807.500000358" y="1024.35000044"/>
      <point x="633.15000087" y="1024.35000044" type="curve" smooth="yes"/>
      <point x="464.500000596" y="1024.35000044"/>
      <point x="353.700000644" y="930.200000525"/>
      <point x="290.300000787" y="810.950001061" type="curve"/>
      <point x="337.000000954" y="802.700001121" type="line"/>
      <point x="307.200000763" y="1002.50000036" type="line"/>
      <point x="151.39999938" y="1002.50000036" type="line"/>
    </contour>
  </outline>
</glyph>
<glyph name="n" format="1">
  <advance width="1153.85000056"/>
  <unicode hex="006E"/>
  <outline>
    <contour>
      <point x="151.39999938" y="0.0" type="line"/>
      <point x="343.500001073" y="0.0" type="line"/>
      <point x="343.500001073" y="533.349999011" type="line" smooth="yes"/>
      <point x="343.500001073" y="725.199999571"/>
      <point x="409.400001049" y="877.299999118"/>
      <point x="633.650000274" y="877.299999118" type="curve" smooth="yes"/>
      <point x="781.249999702" y="877.299999118"/>
      <point x="820.249999464" y="781.249999464"/>
      <point x="820.349999487" y="620.099999785" type="curve"/>
      <point x="820.349999487" y="0.0" type="line"/>
      <point x="1012.45000118" y="0.0" type="line"/>
      <point x="1012.45000118" y="619.300000548" type="line" smooth="yes"/>
      <point x="1012.45000118" y="882.900000215"/>
      <point x="905.300001025" y="1024.35000044"/>
      <point x="674.350000918" y="1024.35000044" type="curve" smooth="yes"/>
      <point x="489.250001132" y="1024.35000044"/>
      <point x="370.200001001" y="940.950000584"/>
      <point x="297.500000596" y="816.250000656" type="curve"/>
      <point x="341.400000811" y="816.250000656" type="line"/>
      <point x="313.050000608" y="1002.50000036" type="line"/>
      <point x="151.39999938" y="1002.50000036" type="line"/>
    </contour>
  </outline>
</glyph>
<glyph name="o" format="1">
  <advance width="1159.90000021"/>
  <unicode hex="006F"/>
  <outline>
    <contour>
      <point x="579.950000107" y="128.500001311" type="curve" smooth="yes"/>
      <point x="392.950001061" y="128.500001311"/>
      <point x="291.400001287" y="276.600000381"/>
      <point x="291.400001287" y="501.200000286" type="curve" smooth="yes"/>
      <point x="291.400001287" y="728.200000048"/>
      <point x="394.050001085" y="877.299999118"/>
      <point x="579.950000107" y="877.299999118" type="curve" smooth="yes"/>
      <point x="769.649999082" y="877.299999118"/>
      <point x="868.499998927" y="727.75000006"/>
      <point x="868.499998927" y="500.750000298" type="curve" smooth="yes"/>
      <point x="868.499998927" y="275.500000358"/>
      <point x="770.449999034" y="128.500001311"/>
    </contour>
    <contour>
      <point x="579.950000107" y="-18.0" type="curve" smooth="yes"/>
      <point x="869.950000584" y="-18.0"/>
      <point x="1059.70000064" y="193.099999785"/>
      <point x="1059.70000064" y="502.100000262" type="curve" smooth="yes"/>
      <point x="1059.70000064" y="814.750000536"/>
      <point x="875.150000155" y="1024.35000044"/>
      <point x="579.950000107" y="1024.35000044" type="curve" smooth="yes"/>
      <point x="282.299999833" y="1024.35000044"/>
      <point x="100.199999571" y="816.900000691"/>
      <point x="100.199999571" y="502.100000262" type="curve" smooth="yes"/>
      <point x="100.199999571" y="194.499999881"/>
      <point x="289.449999988" y="-18.0"/>
    </contour>
  </outline>
</glyph>
<glyph name="p" format="1">
  <advance width="1165.99999976"/>
  <unicode hex="0070"/>
  <outline>
    <contour>
      <point x="153.049999416" y="-426.449999511" type="line"/>
      <point x="345.150001109" y="-415.699999452" type="line"/>
      <point x="345.150001109" y="-44.6999992132" type="line"/>
      <point x="336.45000118" y="246.449998319" type="line"/>
      <point x="294.650000989" y="219.749998391" type="line"/>
      <point x="337.500000834" y="115.349999487"/>
      <point x="453.450000703" y="-18.0"/>
      <point x="646.900000215" y="-18.0" type="curve" smooth="yes"/>
      <point x="910.500000119" y="-18.0"/>
      <point x="1065.80000019" y="198.450000226"/>
      <point x="1065.80000019" y="500.850000322" type="curve" smooth="yes"/>
      <point x="1065.80000019" y="803.300000072"/>
      <point x="920.400000095" y="1024.35000044"/>
      <point x="654.85000056" y="1024.35000044" type="curve" smooth="yes"/>
      <point x="500.300001264" y="1024.35000044"/>
      <point x="367.600001097" y="939.350001156"/>
      <point x="297.450000703" y="791.250001371" type="curve"/>
      <point x="342.000001192" y="789.000001431" type="line"/>
      <point x="315.550000966" y="1002.50000036" type="line"/>
      <point x="153.049999416" y="1002.50000036" type="line"/>
    </contour>
    <contour>
      <point x="614.199999809" y="129.050001323" type="curve" smooth="yes"/>
      <point x="441.400000572" y="129.050001323"/>
      <point x="342.700001121" y="261.250000417"/>
      <point x="342.700001121" y="518.750000298" type="curve"/>
      <point x="343.800001144" y="746.450000226"/>
      <point x="431.90000093" y="877.299999118"/>
      <point x="617.399999619" y="877.299999118" type="curve" smooth="yes"/>
      <point x="791.649998367" y="877.299999118"/>
      <point x="873.699998498" y="736.100000262"/>
      <point x="873.699998498" y="502.850000322" type="curve" smooth="yes"/>
      <point x="873.699998498" y="268.050000608"/>
      <point x="786.099998593" y="129.050001323"/>
    </contour>
  </outline>
</glyph>
<glyph name="q" format="1">
  <advance width="1183.24999923"/>
  <unicode hex="0071"/>
  <outline>
    <contour>
      <point x="840.649998128" y="-426.449999511" type="line"/>
      <point x="1031.84999985" y="-415.499999404" type="line"/>
      <point x="1031.84999985" y="1002.50000036" type="line"/>
      <point x="860.399998426" y="1002.50000036" type="line"/>
      <point x="837.199998379" y="797.800001144" type="line"/>
      <point x="875.499998689" y="808.500001311" type="line"/>
      <point x="820.899998784" y="922.550000489"/>
      <point x="720.499999166" y="1024.35000044"/>
      <point x="533.549999297" y="1024.35000044" type="curve" smooth="yes"/>
      <point x="256.14999944" y="1024.35000044"/>
      <point x="100.199999571" y="804.400000334"/>
      <point x="100.199999571" y="498.600000381" type="curve" smooth="yes"/>
      <point x="100.199999571" y="197.500000119"/>
      <point x="273.599999428" y="-18.0"/>
      <point x="533.499999404" y="-18.0" type="curve" smooth="yes"/>
      <point x="727.649998128" y="-18.0"/>
      <point x="832.349998057" y="91.1499989629"/>
      <point x="891.49999845" y="226.949998677" type="curve"/>
      <point x="847.099998116" y="245.599998713" type="line"/>
      <point x="840.649998128" y="-37.0999985933" type="line"/>
    </contour>
    <contour>
      <point x="565.549999774" y="127.950001299" type="curve" smooth="yes"/>
      <point x="386.650000989" y="127.950001299"/>
      <point x="291.400001287" y="266.800000429"/>
      <point x="291.400001287" y="502.900000215" type="curve" smooth="yes"/>
      <point x="291.400001287" y="736.350000203"/>
      <point x="384.700001121" y="876.749999106"/>
      <point x="564.799999714" y="876.749999106" type="curve" smooth="yes"/>
      <point x="757.949998438" y="876.749999106"/>
      <point x="842.549998343" y="746.0"/>
      <point x="842.549998343" y="510.749999583" type="curve"/>
      <point x="842.249998271" y="258.500000119"/>
      <point x="764.399998188" y="127.950001299"/>
    </contour>
  </outline>
</glyph>
<glyph name="r" format="1">
  <advance width="771.950000346"/>
  <unicode hex="0072"/>
  <outline>
    <contour>
      <point x="152.499999404" y="0.0" type="line"/>
      <point x="344.600001097" y="0.0" type="line"/>
      <point x="344.600001097" y="558.649999797" type="line" smooth="yes"/>
      <point x="344.600001097" y="725.449999511"/>
      <point x="462.450000703" y="853.349998772"/>
      <point x="635.800000668" y="853.349998772" type="curve" smooth="yes"/>
      <point x="658.650000751" y="853.349998772"/>
      <point x="683.200000763" y="851.349998772"/>
      <point x="710.350000918" y="845.79999876" type="curve"/>
      <point x="716.15000087" y="1005.10000026" type="line"/>
      <point x="692.300000787" y="1009.7500003"/>
      <point x="668.15000087" y="1010.65000027"/>
      <point x="642.000000954" y="1010.65000027" type="curve" smooth="yes"/>
      <point x="519.050001085" y="1010.65000027"/>
      <point x="382.050001085" y="936.450000465"/>
      <point x="295.600000858" y="761.800001144" type="curve"/>
      <point x="339.20000124" y="753.950001061" type="line"/>
      <point x="310.000000954" y="1002.50000036" type="line"/>
      <point x="152.499999404" y="1002.50000036" type="line"/>
    </contour>
  </outline>
</glyph>
<glyph name="s" format="1">
  <advance width="921.300000548"/>
  <unicode hex="0073"/>
  <outline>
    <contour>
      <point x="467.05000037" y="-17.4499999881" type="curve" smooth="yes"/>
      <point x="692.000000715" y="-17.4499999881"/>
      <point x="824.950000823" y="86.3674653346"/>
      <point x="824.950000823" y="278.100000739" type="curve" smooth="yes"/>
      <point x="824.950000823" y="431.350000918"/>
      <point x="746.350000203" y="506.300000787"/>
      <point x="548.650000989" y="580.500000834" type="curve" smooth="yes"/>
      <point x="471.600001574" y="608.650000751" type="line" smooth="yes"/>
      <point x="342.445051657" y="659.012950927"/>
      <point x="301.75000149" y="685.60000062"/>
      <point x="301.75000149" y="763.050000131" type="curve" smooth="yes"/>
      <point x="301.75000149" y="836.44999975"/>
      <point x="369.700001121" y="882.799999237"/>
      <point x="489.900000215" y="882.799999237" type="curve" smooth="yes"/>
      <point x="586.100000024" y="882.799999237"/>
      <point x="671.300000548" y="853.09999907"/>
      <point x="738.550000727" y="821.049998939" type="curve"/>
      <point x="783.950001061" y="953.899999976" type="line"/>
      <point x="690.850000799" y="998.250000179"/>
      <point x="599.750000298" y="1024.35000044"/>
      <point x="479.55000025" y="1024.35000044" type="curve" smooth="yes"/>
      <point x="258.250000179" y="1024.35000044"/>
      <point x="131.899999976" y="916.150000632"/>
      <point x="131.899999976" y="745.75000006" type="curve"/>
      <point x="132.449999988" y="609.39774938"/>
      <point x="195.05000037" y="536.349999726"/>
      <point x="372.050000131" y="467.249999464" type="curve"/>
      <point x="446.549999535" y="438.999999523" type="line" smooth="yes"/>
      <point x="598.0810487" y="380.004849497"/>
      <point x="648.199999094" y="344.049999893"/>
      <point x="648.199999094" y="261.500000358" type="curve"/>
      <point x="647.09999907" y="170.700000882"/>
      <point x="596.349999487" y="124.100001216"/>
      <point x="470.200000286" y="122.45000118" type="curve" smooth="yes"/>
      <point x="352.200000763" y="120.800001144"/>
      <point x="238.300000072" y="168.950001538"/>
      <point x="174.099999785" y="204.550001919" type="curve"/>
      <point x="135.849999607" y="70.650000751" type="line"/>
      <point x="164.39999938" y="53.3000007868"/>
      <point x="299.499999642" y="-17.4499999881"/>
    </contour>
  </outline>
</glyph>
<glyph name="t" format="1">
  <advance width="793.500001073"/>
  <unicode hex="0074"/>
  <outline>
    <contour>
      <point x="532.750001013" y="-11.6500000358" type="curve" smooth="yes"/>
      <point x="633.600001097" y="-11.6500000358"/>
      <point x="713.50000155" y="11.6000001431"/>
      <point x="717.900001645" y="13.2500001788" type="curve"/>
      <point x="717.900001645" y="140.150001347" type="line"/>
      <point x="715.150001585" y="138.500001311"/>
      <point x="632.600001335" y="125.20000124"/>
      <point x="570.450001419" y="125.20000124" type="curve" smooth="yes"/>
      <point x="471.900001407" y="125.20000124"/>
      <point x="408.550001442" y="169.800001383"/>
      <point x="408.550001442" y="331.550001442" type="curve" smooth="yes"/>
      <point x="408.550001442" y="921.249999464" type="line"/>
      <point x="373.050001323" y="882.149999201" type="line"/>
      <point x="696.150001109" y="882.149999201" type="line"/>
      <point x="696.150001109" y="1002.50000036" type="line"/>
      <point x="372.500001311" y="1002.50000036" type="line"/>
      <point x="408.550001442" y="959.75000006" type="line"/>
      <point x="408.550001442" y="1255.40000033" type="line"/>
      <point x="274.700000167" y="1253.15000039" type="line"/>
      <point x="218.549999774" y="968.0" type="line"/>
      <point x="271.400000334" y="1005.50000036" type="line"/>
      <point x="73.4999996424" y="991.850000322" type="line"/>
      <point x="65.7999994755" y="882.699999213" type="line"/>
      <point x="251.949999869" y="882.699999213" type="line"/>
      <point x="216.44999975" y="922.249999464" type="line"/>
      <point x="216.44999975" y="333.050001562" type="line"/>
      <point x="216.999999762" y="99.9000006914"/>
      <point x="318.399999619" y="-11.6500000358"/>
    </contour>
  </outline>
</glyph>
<glyph name="v" format="1">
  <advance width="1038.05000085"/>
  <unicode hex="0076"/>
  <outline>
    <contour>
      <point x="430.649999797" y="0.0" type="line"/>
      <point x="620.400001287" y="0.0" type="line"/>
      <point x="995.850001276" y="1002.50000036" type="line"/>
      <point x="797.599999428" y="1002.50000036" type="line"/>
      <point x="605.849999845" y="443.100000739" type="line"/>
      <point x="507.400000572" y="139.0500018" type="line"/>
      <point x="548.150000632" y="139.0500018" type="line"/>
      <point x="442.45000118" y="442.300000787" type="line"/>
      <point x="242.100001454" y="1002.50000036" type="line"/>
      <point x="42.1999995708" y="1002.50000036" type="line"/>
    </contour>
  </outline>
</glyph>
<glyph name="w" format="1">
  <advance width="1506.20000124"/>
  <unicode hex="0077"/>
  <outline>
    <contour>
      <point x="326.899999738" y="0.0" type="line"/>
      <point x="510.600001335" y="0.0" type="line"/>
      <point x="772.450000703" y="881.899998546" type="line"/>
      <point x="736.450000465" y="881.899998546" type="line"/>
      <point x="1004.09999931" y="0.0" type="line"/>
      <point x="1181.25000113" y="0.0" type="line"/>
      <point x="1462.20000172" y="1002.50000036" type="line"/>
      <point x="1281.89999998" y="1002.50000036" type="line"/>
      <point x="1072.05000013" y="154.900002122" type="line"/>
      <point x="1107.80000019" y="154.900002122" type="line"/>
      <point x="854.800001383" y="1002.50000036" type="line"/>
      <point x="656.599999905" y="1002.50000036" type="line"/>
      <point x="408.900000691" y="154.900002122" type="line"/>
      <point x="441.550000727" y="154.900002122" type="line"/>
      <point x="227.750001252" y="1002.50000036" type="line"/>
      <point x="43.9999995232" y="1002.50000036" type="line"/>
    </contour>
  </outline>
</glyph>
<glyph name="x" format="1">
  <advance width="1044.00000119"/>
  <unicode hex="0078"/>
  <outline>
    <contour>
      <point x="38.4999998808" y="0.0" type="line"/>
      <point x="252.500001788" y="0.0" type="line"/>
      <point x="539.700000644" y="401.699999213" type="line"/>
      <point x="613.000001431" y="467.550000012" type="line"/>
      <point x="990.150001347" y="1002.50000036" type="line"/>
      <point x="776.14999944" y="1002.50000036" type="line"/>
      <point x="502.650000513" y="609.300001502" type="line"/>
      <point x="428.399999619" y="545.100000501" type="line"/>
    </contour>
    <contour>
      <point x="781.549999535" y="0.0" type="line"/>
      <point x="997.400001526" y="0.0" type="line"/>
      <point x="274.900001645" y="1002.50000036" type="line"/>
      <point x="59.7999997139" y="1002.50000036" type="line"/>
    </contour>
  </outline>
</glyph>
<glyph name="y" format="1">
  <advance width="1033.05000061"/>
  <unicode hex="0079"/>
  <outline>
    <contour>
      <point x="477.800001144" y="-375.100000024" type="line"/>
      <point x="996.250000894" y="1002.50000036" type="line"/>
      <point x="801.799998999" y="1002.50000036" type="line"/>
      <point x="521.900000215" y="183.700001597" type="line"/>
      <point x="564.250000417" y="183.700001597" type="line"/>
      <point x="255.900001407" y="1002.50000036" type="line"/>
      <point x="58.3999996185" y="1002.50000036" type="line"/>
      <point x="476.549999535" y="-38.8000001907" type="line"/>
      <point x="476.549999535" y="89.3000003099" type="line"/>
      <point x="306.699999452" y="-351.749999821" type="line"/>
    </contour>
  </outline>
</glyph>
<glyph name="z" format="1">
  <advance width="915.750001252"/>
  <unicode hex="007A"/>
  <outline>
    <contour>
      <point x="108.499999881" y="0.0" type="line"/>
      <point x="819.100001454" y="0.0" type="line"/>
      <point x="819.100001454" y="140.700001359" type="line"/>
      <point x="266.10000217" y="140.700001359" type="line"/>
      <point x="286.35000211" y="78.7000011206" type="line"/>
      <point x="808.050001323" y="870.599999189" type="line"/>
      <point x="808.050001323" y="1002.50000036" type="line"/>
      <point x="129.599999905" y="1002.50000036" type="line"/>
      <point x="129.599999905" y="866.199999094" type="line"/>
      <point x="663.499999404" y="866.199999094" type="line"/>
      <point x="639.749999344" y="921.999999285" type="line"/>
      <point x="108.499999881" y="121.550000966" type="line"/>
    </contour>
  </outline>
</glyph>
<glyph name="braceleft" format="1">
  <advance width="718.449999273"/>
  <unicode hex="007B"/>
  <outline>
    <contour>
      <point x="609.300000548" y="-253.099999785" type="line" smooth="yes"/>
      <point x="375.699999928" y="-253.099999785"/>
      <point x="274.199999094" y="-160.800000668"/>
      <point x="274.199999094" y="48.8999994993" type="curve" smooth="yes"/>
      <point x="274.199999094" y="250.000000715" type="line" smooth="yes"/>
      <point x="274.199999094" y="401.750000298"/>
      <point x="248.999998808" y="489.949999154"/>
      <point x="79.5999991894" y="491.299999118" type="curve" smooth="yes"/>
      <point x="79.5999991894" y="643.550000727" type="line"/>
      <point x="250.149998963" y="644.100000739"/>
      <point x="274.199999094" y="731.699999452"/>
      <point x="274.199999094" y="882.749999106" type="curve" smooth="yes"/>
      <point x="274.199999094" y="1116.04999989" type="line" smooth="yes"/>
      <point x="274.199999094" y="1310.15000039"/>
      <point x="390.049999654" y="1395.14999968"/>
      <point x="609.300000548" y="1395.59999967" type="curve" smooth="yes"/>
      <point x="609.300000548" y="1250.49999821" type="line"/>
      <point x="478.800000668" y="1248.49999821"/>
      <point x="444.500001073" y="1202.19999862"/>
      <point x="444.500001073" y="1059.04999942" type="curve" smooth="yes"/>
      <point x="444.500001073" y="817.599999428" type="line"/>
      <point x="443.400001049" y="701.199999332"/>
      <point x="401.850000799" y="643.599999189"/>
      <point x="277.050001085" y="564.899999976" type="curve"/>
      <point x="393.850000799" y="531.650000036"/>
      <point x="444.950001061" y="434.450000703"/>
      <point x="444.500001073" y="322.900000453" type="curve" smooth="yes"/>
      <point x="444.500001073" y="80.8000004292" type="line" smooth="yes"/>
      <point x="444.500001073" y="-59.1999988556"/>
      <point x="476.900000691" y="-108.449998319"/>
      <point x="609.300000548" y="-110.449998319" type="curve"/>
    </contour>
  </outline>
</glyph>
<glyph name="bar" format="1">
  <advance width="426.800004721"/>
  <unicode hex="007C"/>
  <outline>
    <contour>
      <point x="143.700001836" y="-312.24999851" type="line"/>
      <point x="143.700001836" y="1456.44999999" type="line"/>
      <point x="290.250003278" y="1456.44999999" type="line"/>
      <point x="290.250003278" y="-312.24999851" type="line"/>
    </contour>
  </outline>
</glyph>
<glyph name="braceright" format="1">
  <advance width="718.449999273"/>
  <unicode hex="007D"/>
  <outline>
    <contour>
      <point x="96.6499995589" y="-253.099999785" type="curve"/>
      <point x="96.6499995589" y="-109.099998355" type="line"/>
      <point x="227.14999944" y="-107.099998355"/>
      <point x="260.899999022" y="-62.449998796"/>
      <point x="260.899999022" y="81.2500004172" type="curve" smooth="yes"/>
      <point x="260.899999022" y="323.800000429" type="line" smooth="yes"/>
      <point x="260.899999022" y="441.300000548"/>
      <point x="306.299999356" y="498.900000691"/>
      <point x="428.899999022" y="572.099999785" type="curve"/>
      <point x="309.349999249" y="610.849999845"/>
      <point x="261.549999058" y="706.949999154"/>
      <point x="260.899999022" y="818.499999404" type="curve"/>
      <point x="260.899999022" y="1059.4999994" type="line" smooth="yes"/>
      <point x="260.899999022" y="1200.0499987"/>
      <point x="229.049999416" y="1249.84999818"/>
      <point x="96.6499995589" y="1251.84999818" type="curve"/>
      <point x="96.6499995589" y="1395.59999967" type="line"/>
      <point x="329.700000167" y="1395.59999967"/>
      <point x="431.200001001" y="1304.40000057"/>
      <point x="431.200001001" y="1091.40000033" type="curve" smooth="yes"/>
      <point x="431.200001001" y="885.349999011" type="line" smooth="yes"/>
      <point x="431.200001001" y="733.599999428"/>
      <point x="453.650001228" y="648.150000632"/>
      <point x="626.350000918" y="646.250000656" type="curve"/>
      <point x="626.350000918" y="493.999999046" type="line"/>
      <point x="459.650001228" y="493.999999046"/>
      <point x="431.200001001" y="404.750000298"/>
      <point x="431.200001001" y="253.150000632" type="curve" smooth="yes"/>
      <point x="431.200001001" y="24.2499999404" type="line" smooth="yes"/>
      <point x="431.200001001" y="-168.750000536"/>
      <point x="319.200000525" y="-252.649999797"/>
    </contour>
  </outline>
</glyph>
<glyph name="asciitilde" format="1">
  <advance width="1133.60000014"/>
  <unicode hex="007E"/>
  <outline>
    <contour>
      <point x="157.300001025" y="451.449999511" type="curve"/>
      <point x="102.55000025" y="557.500000358" type="line"/>
      <point x="146.400000334" y="657.100000262"/>
      <point x="226.650000274" y="737.400000334"/>
      <point x="352.950000584" y="737.400000334" type="curve" smooth="yes"/>
      <point x="428.700000644" y="737.400000334"/>
      <point x="492.150001109" y="715.000000238"/>
      <point x="579.400000811" y="676.600000381" type="curve" smooth="yes"/>
      <point x="664.700000644" y="639.800000429"/>
      <point x="733.500000358" y="608.900000691"/>
      <point x="787.55000025" y="608.900000691" type="curve" smooth="yes"/>
      <point x="860.850000083" y="608.900000691"/>
      <point x="930.399999857" y="664.600000143"/>
      <point x="980.100000501" y="744.900000215" type="curve"/>
      <point x="1036.95000106" y="645.199999332" type="line"/>
      <point x="990.300001025" y="539.899999738"/>
      <point x="902.400000334" y="463.249999464"/>
      <point x="781.200000048" y="463.249999464" type="curve" smooth="yes"/>
      <point x="708.599999666" y="463.249999464"/>
      <point x="642.349999726" y="489.349999487"/>
      <point x="562.749999583" y="525.099999547" type="curve"/>
      <point x="476.600000143" y="564.199999332"/>
      <point x="413.000000477" y="592.499999166"/>
      <point x="348.100000501" y="592.499999166" type="curve" smooth="yes"/>
      <point x="266.950000584" y="592.499999166"/>
      <point x="198.250000894" y="527.449999273"/>
    </contour>
  </outline>
</glyph>
<glyph name="cent" format="1">
  <advance width="937.0"/>
  <unicode hex="00A2"/>
  <outline>
    <contour>
      <point x="559.500000358" y="-146.0" type="line"/>
      <point x="639.000000477" y="-146.0" type="line"/>
      <point x="639.000000477" y="1156.0" type="line"/>
      <point x="559.500000358" y="1156.0" type="line"/>
    </contour>
    <component base="c"/>
  </outline>
</glyph>
<glyph name="sterling" format="1">
  <advance width="1058.19999862"/>
  <unicode hex="00A3"/>
  <outline>
    <contour>
      <point x="100.249999225" y="4.60000038147" type="line"/>
      <point x="90.349999249" y="146.800001621" type="line"/>
      <point x="255.799998999" y="164.200001717" type="line" smooth="yes"/>
      <point x="255.799998999" y="616.249999702" type="line"/>
      <point x="86.7499991059" y="616.249999702" type="line"/>
      <point x="86.7499991059" y="753.050000846" type="line"/>
      <point x="255.799998999" y="753.050000846" type="line"/>
      <point x="255.799998999" y="845.150000632" type="line"/>
      <point x="255.799998999" y="1125.10000074"/>
      <point x="329.0" y="1366.39999986"/>
      <point x="647.299999356" y="1366.39999986" type="curve" smooth="yes"/>
      <point x="784.14999944" y="1366.39999986"/>
      <point x="893.499999642" y="1316.39999986"/>
      <point x="977.299999833" y="1245.2499997" type="curve"/>
      <point x="899.399999142" y="1122.09999859" type="line"/>
      <point x="820.149999201" y="1180.94999844"/>
      <point x="742.949999392" y="1214.84999841"/>
      <point x="650.549999535" y="1214.84999841" type="curve" smooth="yes"/>
      <point x="484.050000608" y="1214.84999841"/>
      <point x="429.550000727" y="1096.59999943"/>
      <point x="429.550000727" y="911.500000596" type="curve" smooth="yes"/>
      <point x="429.550000727" y="753.050000846" type="line"/>
      <point x="795.950000107" y="753.050000846" type="line"/>
      <point x="795.950000107" y="616.349999726" type="line"/>
      <point x="429.550000727" y="616.349999726" type="line"/>
      <point x="429.550000727" y="165.650001705" type="line"/>
      <point x="992.149999917" y="165.650001705" type="line"/>
      <point x="982.100000024" y="4.60000038147" type="line"/>
    </contour>
  </outline>
</glyph>
<glyph name="currency" format="1">
  <advance width="1145.69999659"/>
  <unicode hex="00A4"/>
  <outline>
    <contour>
      <point x="979.349998057" y="210.899999976" type="line"/>
      <point x="1048.49999869" y="285.500000596" type="line"/>
      <point x="883.249998748" y="445.550000489" type="line"/>
      <point x="929.649998605" y="510.000000477"/>
      <point x="955.699998498" y="584.400000334"/>
      <point x="955.699998498" y="668.250000179" type="curve" smooth="yes"/>
      <point x="955.699998498" y="748.500000119"/>
      <point x="928.449998558" y="825.100000024"/>
      <point x="882.249998748" y="891.499999881" type="curve"/>
      <point x="1049.49999869" y="1051.74999982" type="line"/>
      <point x="979.349998057" y="1126.25000042" type="line"/>
      <point x="810.099998116" y="967.000000477" type="line"/>
      <point x="744.299998164" y="1020.50000036"/>
      <point x="665.099998355" y="1049.65000027"/>
      <point x="575.699998498" y="1049.65000027" type="curve" smooth="yes"/>
      <point x="487.399998665" y="1049.65000027"/>
      <point x="404.899998784" y="1020.7500003"/>
      <point x="339.849998891" y="968.550000489" type="curve"/>
      <point x="173.799998999" y="1126.25000042" type="line"/>
      <point x="99.0999983549" y="1053.6499998" type="line"/>
      <point x="268.69999826" y="891.499999881" type="line"/>
      <point x="221.849998415" y="825.599999905"/>
      <point x="194.799998522" y="749.75000006"/>
      <point x="194.799998522" y="668.250000179" type="curve" smooth="yes"/>
      <point x="194.799998522" y="585.750000298"/>
      <point x="222.49999845" y="510.150000393"/>
      <point x="268.69999826" y="445.550000489" type="curve"/>
      <point x="100.099998355" y="285.300000548" type="line"/>
      <point x="173.799998999" y="211.899999976" type="line"/>
      <point x="339.199998856" y="369.499999881" type="line"/>
      <point x="404.899998784" y="316.100000024"/>
      <point x="485.299998641" y="287.850000083"/>
      <point x="575.699998498" y="287.850000083" type="curve" smooth="yes"/>
      <point x="664.999998331" y="287.850000083"/>
      <point x="744.9499982" y="317.75000006"/>
      <point x="810.099998116" y="369.599999905" type="curve"/>
    </contour>
    <contour>
      <point x="575.699998498" y="397.550000966" type="curve" smooth="yes"/>
      <point x="425.449999034" y="397.550000966"/>
      <point x="303.699999452" y="518.050000608"/>
      <point x="303.699999452" y="668.250000179" type="curve" smooth="yes"/>
      <point x="303.699999452" y="817.899999738"/>
      <point x="425.449999034" y="939.949999392"/>
      <point x="575.699998498" y="939.949999392" type="curve" smooth="yes"/>
      <point x="726.499997973" y="939.949999392"/>
      <point x="848.34999758" y="817.999999762"/>
      <point x="848.34999758" y="668.250000179" type="curve" smooth="yes"/>
      <point x="848.34999758" y="518.500000596"/>
      <point x="727.499997973" y="397.550000966"/>
    </contour>
  </outline>
</glyph>
<glyph name="yen" format="1">
  <advance width="1153.99999714"/>
  <unicode hex="00A5"/>
  <outline>
    <contour>
      <point x="467.449998558" y="0.0" type="line"/>
      <point x="657.900000215" y="0.0" type="line"/>
      <point x="657.900000215" y="272.749999583" type="line"/>
      <point x="960.150000393" y="272.749999583" type="line"/>
      <point x="960.150000393" y="394.550000727" type="line"/>
      <point x="657.900000215" y="394.550000727" type="line"/>
      <point x="657.900000215" y="544.999999523" type="line"/>
      <point x="959.250000417" y="544.999999523" type="line"/>
      <point x="959.250000417" y="663.650000513" type="line"/>
      <point x="714.781350615" y="663.650000513" type="line"/>
      <point x="1103.25000042" y="1344.09999979" type="line"/>
      <point x="905.949998438" y="1344.09999979" type="line"/>
      <point x="561.075449362" y="720.742601676" type="line"/>
      <point x="199.450000703" y="1344.09999979" type="line"/>
      <point x="-0.150001347065" y="1344.09999979" type="line"/>
      <point x="406.254548165" y="663.650000513" type="line"/>
      <point x="161.999998569" y="663.650000513" type="line"/>
      <point x="161.999998569" y="544.999999523" type="line"/>
      <point x="467.449998558" y="544.999999523" type="line"/>
      <point x="467.449998558" y="394.550000727" type="line"/>
      <point x="161.099998593" y="394.550000727" type="line"/>
      <point x="161.099998593" y="272.749999583" type="line"/>
      <point x="467.449998558" y="272.749999583" type="line"/>
    </contour>
  </outline>
</glyph>
<glyph name="brokenbar" format="1">
  <advance width="466.450006664"/>
  <unicode hex="00A6"/>
  <outline>
    <contour>
      <point x="162.050002754" y="-356.349999487" type="line"/>
      <point x="162.050002754" y="294.550000966" type="line"/>
      <point x="309.050004184" y="294.550000966" type="line"/>
      <point x="309.050004184" y="-356.349999487" type="line"/>
    </contour>
    <contour>
      <point x="162.050002754" y="779.949998915" type="line"/>
      <point x="162.050002754" y="1428.94999939" type="line"/>
      <point x="309.050004184" y="1428.94999939" type="line"/>
      <point x="309.050004184" y="779.949998915" type="line"/>
    </contour>
  </outline>
</glyph>
<glyph name="dieresis" format="1">
  <advance width="695.649999559"/>
  <unicode hex="00A8"/>
  <outline>
    <contour>
      <point x="97.6499990821" y="1135.19999957" type="line"/>
      <point x="249.800000191" y="1135.19999957" type="line"/>
      <point x="249.800000191" y="1341.5000006" type="line"/>
      <point x="97.6499990821" y="1341.5000006" type="line"/>
    </contour>
    <contour>
      <point x="456.999999523" y="1135.19999957" type="line"/>
      <point x="609.050000608" y="1135.19999957" type="line"/>
      <point x="609.050000608" y="1341.5000006" type="line"/>
      <point x="456.999999523" y="1341.5000006" type="line"/>
    </contour>
  </outline>
</glyph>
<glyph name="copyright" format="1">
  <advance width="1642.3499971"/>
  <unicode hex="00A9"/>
  <outline>
    <contour>
      <point x="830.549998105" y="226.100000262" type="curve" smooth="yes"/>
      <point x="930.999998331" y="226.100000262"/>
      <point x="1024.64999837" y="252.650000274"/>
      <point x="1103.84999818" y="303.700000167" type="curve"/>
      <point x="1065.1999979" y="395.150000632" type="line"/>
      <point x="990.049998224" y="349.500000834"/>
      <point x="909.549998105" y="330.850000799"/>
      <point x="837.249998271" y="330.850000799" type="curve" smooth="yes"/>
      <point x="651.299998641" y="330.850000799"/>
      <point x="514.849999368" y="470.350000441"/>
      <point x="514.849999368" y="694.299999595" type="curve" smooth="yes"/>
      <point x="514.849999368" y="906.399999142"/>
      <point x="650.749998629" y="1052.49999869"/>
      <point x="831.549998343" y="1052.49999869" type="curve" smooth="yes"/>
      <point x="899.799998283" y="1052.49999869"/>
      <point x="988.099998116" y="1030.79999876"/>
      <point x="1056.14999801" y="982.899999022" type="curve"/>
      <point x="1101.49999821" y="1076.04999942" type="line"/>
      <point x="1020.2999984" y="1131.89999926"/>
      <point x="926.399998426" y="1158.24999923"/>
      <point x="825.049998224" y="1158.24999923" type="curve" smooth="yes"/>
      <point x="577.599998236" y="1158.24999923"/>
      <point x="386.099998832" y="955.549999297"/>
      <point x="386.099998832" y="691.149999678" type="curve" smooth="yes"/>
      <point x="386.099998832" y="420.200000048"/>
      <point x="584.69999826" y="226.100000262"/>
    </contour>
    <contour>
      <point x="822.749998629" y="74.7000008821" type="curve" smooth="yes"/>
      <point x="497.49999845" y="74.7000008821"/>
      <point x="212.549999535" y="311.650001466"/>
      <point x="212.549999535" y="696.549999774" type="curve" smooth="yes"/>
      <point x="212.549999535" y="1080.34999806"/>
      <point x="497.49999845" y="1318.39999866"/>
      <point x="822.199998617" y="1318.39999866" type="curve" smooth="yes"/>
      <point x="1149.64999884" y="1318.39999866"/>
      <point x="1436.39999771" y="1079.89999807"/>
      <point x="1436.39999771" y="695.999999762" type="curve" smooth="yes"/>
      <point x="1436.39999771" y="312.100001454"/>
      <point x="1150.19999886" y="74.7000008821"/>
    </contour>
    <contour>
      <point x="822.749998629" y="-16.6499995589" type="curve" smooth="yes"/>
      <point x="1193.64999884" y="-16.6499995589"/>
      <point x="1544.89999807" y="245.400001049"/>
      <point x="1544.89999807" y="696.549999774" type="curve" smooth="yes"/>
      <point x="1544.89999807" y="1147.14999849"/>
      <point x="1192.54999882" y="1410.74999911"/>
      <point x="822.199998617" y="1410.74999911" type="curve" smooth="yes"/>
      <point x="453.49999845" y="1410.74999911"/>
      <point x="103.499999166" y="1147.6999985"/>
      <point x="103.499999166" y="696.549999774" type="curve" smooth="yes"/>
      <point x="103.499999166" y="245.400001049"/>
      <point x="454.049998462" y="-16.6499995589"/>
    </contour>
  </outline>
</glyph>
<glyph name="ordfeminine" format="1">
  <advance width="732.849998176"/>
  <unicode hex="00AA"/>
  <outline>
    <contour>
      <point x="315.349998772" y="735.049998701" type="curve" smooth="yes"/>
      <point x="200.199998856" y="735.049998701"/>
      <point x="112.199998617" y="811.599998474"/>
      <point x="112.199998617" y="938.099998593" type="curve" smooth="yes"/>
      <point x="112.199998617" y="1117.69999897"/>
      <point x="285.399999857" y="1142.79999876"/>
      <point x="490.249998748" y="1158.09999883" type="curve"/>
      <point x="490.249998748" y="1174.94999892" type="line"/>
      <point x="487.899998784" y="1276.44999856"/>
      <point x="461.149998724" y="1317.04999822"/>
      <point x="376.299999118" y="1317.04999822" type="curve" smooth="yes"/>
      <point x="312.099999309" y="1317.04999822"/>
      <point x="246.299999118" y="1309.79999804"/>
      <point x="175.399998665" y="1244.99999881" type="curve"/>
      <point x="122.199998856" y="1327.14999968" type="line"/>
      <point x="193.599999189" y="1404.4499988"/>
      <point x="283.799999475" y="1430.79999876"/>
      <point x="383.199999332" y="1430.79999876" type="curve" smooth="yes"/>
      <point x="504.69999969" y="1430.79999876"/>
      <point x="609.899999976" y="1365.94999892"/>
      <point x="609.899999976" y="1196.49999893" type="curve" smooth="yes"/>
      <point x="608.100000024" y="873.299998403" type="line" smooth="yes"/>
      <point x="608.100000024" y="863.549998581"/>
      <point x="608.75000006" y="814.549996912"/>
      <point x="612.799999952" y="752.449998558" type="curve"/>
      <point x="498.999999285" y="752.449998558" type="line"/>
      <point x="493.649999082" y="822.299998403" type="line"/>
      <point x="456.599998951" y="770.099998593"/>
      <point x="392.799998522" y="735.049998701"/>
    </contour>
    <contour>
      <point x="123.249999225" y="554.849998176" type="line"/>
      <point x="123.249999225" y="657.79999876" type="line"/>
      <point x="624.249999702" y="657.79999876" type="line"/>
      <point x="624.249999702" y="554.849998176" type="line"/>
    </contour>
    <contour>
      <point x="332.349998772" y="842.699999213" type="curve" smooth="yes"/>
      <point x="429.199997663" y="842.699999213"/>
      <point x="477.299997926" y="925.64999789"/>
      <point x="490.249998748" y="1023.74999696" type="curve"/>
      <point x="490.249998748" y="1063.9499982" type="line"/>
      <point x="371.299998164" y="1050.34999806"/>
      <point x="230.69999969" y="1048.89999759"/>
      <point x="230.69999969" y="936.099998593" type="curve" smooth="yes"/>
      <point x="230.69999969" y="869.09999907"/>
      <point x="272.299999356" y="842.699999213"/>
    </contour>
  </outline>
</glyph>
<glyph name="guillemotleft" format="1">
  <advance width="942.600000143"/>
  <unicode hex="00AB"/>
  <outline>
    <contour>
      <point x="358.399999619" y="132.149999678" type="line"/>
      <point x="501.250001132" y="169.400000095" type="line"/>
      <point x="257.150001109" y="513.150000155" type="line"/>
      <point x="506.050001085" y="854.750000298" type="line"/>
      <point x="361.399999619" y="891.900000691" type="line"/>
      <point x="92.0499994159" y="524.050000608" type="line"/>
      <point x="103.999998808" y="481.050000608" type="line"/>
    </contour>
    <contour>
      <point x="710.050000131" y="132.149999678" type="line"/>
      <point x="842.900001884" y="169.400000095" type="line"/>
      <point x="608.250001609" y="513.150000155" type="line"/>
      <point x="846.000001907" y="854.750000298" type="line"/>
      <point x="712.050000131" y="891.900000691" type="line"/>
      <point x="432.099999785" y="516.0" type="line"/>
    </contour>
  </outline>
</glyph>
<glyph name="logicalnot" format="1">
  <advance width="1128.10000002"/>
  <unicode hex="00AC"/>
  <outline>
    <contour>
      <point x="875.649999082" y="234.849999845" type="line"/>
      <point x="1013.00000048" y="234.849999845" type="line"/>
      <point x="1013.00000048" y="756.150000393" type="line"/>
      <point x="107.050000131" y="756.150000393" type="line"/>
      <point x="107.050000131" y="609.699999213" type="line"/>
      <point x="875.649999082" y="609.699999213" type="line"/>
    </contour>
  </outline>
</glyph>
<glyph name="uni00AD" format="1">
  <advance width="816.249995649"/>
  <unicode hex="00AD"/>
  <outline>
    <contour>
      <point x="90.2499992251" y="249.100002646" type="line"/>
      <point x="733.549996674" y="249.100002646" type="line"/>
      <point x="733.549996674" y="401.600003958" type="line"/>
      <point x="90.2499992251" y="401.600003958" type="line"/>
    </contour>
  </outline>
</glyph>
<glyph name="registered" format="1">
  <advance width="1638.49999702"/>
  <unicode hex="00AE"/>
  <outline>
    <contour>
      <point x="537.849998653" y="268.099999547" type="line"/>
      <point x="661.299999356" y="268.099999547" type="line"/>
      <point x="661.299999356" y="667.249998748" type="line"/>
      <point x="838.549997866" y="667.249998748" type="line"/>
      <point x="855.049998224" y="650.749998391"/>
      <point x="1043.14999777" y="268.099999547"/>
      <point x="1043.14999777" y="268.099999547" type="curve"/>
      <point x="1180.64999861" y="268.099999547" type="line"/>
      <point x="1180.64999861" y="268.099999547"/>
      <point x="989.949999154" y="644.599997997"/>
      <point x="960.24999851" y="684.199998856" type="curve"/>
      <point x="1089.29999864" y="705.149999201"/>
      <point x="1144.94999844" y="786.899999022"/>
      <point x="1144.94999844" y="916.149998963" type="curve" smooth="yes"/>
      <point x="1144.94999844" y="1080.34999925"/>
      <point x="1048.4499976" y="1150.94999915"/>
      <point x="837.899998307" y="1150.94999915" type="curve" smooth="yes"/>
      <point x="537.849998653" y="1150.94999915" type="line"/>
    </contour>
    <contour>
      <point x="661.199999332" y="775.39999938" type="line"/>
      <point x="661.199999332" y="1043.34999853" type="line"/>
      <point x="813.849997938" y="1043.34999853" type="line" smooth="yes"/>
      <point x="963.449997604" y="1043.34999853"/>
      <point x="1023.64999765" y="1030.34999877"/>
      <point x="1023.64999765" y="912.799998999" type="curve" smooth="yes"/>
      <point x="1023.64999765" y="808.049998939"/>
      <point x="972.399997234" y="775.39999938"/>
      <point x="839.849997461" y="775.39999938" type="curve" smooth="yes"/>
    </contour>
    <contour>
      <point x="822.199998617" y="74.7000008821" type="curve" smooth="yes"/>
      <point x="497.49999845" y="74.7000008821"/>
      <point x="212.549999535" y="311.650001466"/>
      <point x="212.549999535" y="696.549999774" type="curve" smooth="yes"/>
      <point x="212.549999535" y="1080.34999806"/>
      <point x="496.949998438" y="1318.39999866"/>
      <point x="821.649998605" y="1318.39999866" type="curve" smooth="yes"/>
      <point x="1148.54999882" y="1318.39999866"/>
      <point x="1434.19999766" y="1079.89999807"/>
      <point x="1434.19999766" y="695.999999762" type="curve" smooth="yes"/>
      <point x="1434.19999766" y="312.100001454"/>
      <point x="1148.54999882" y="74.7000008821"/>
    </contour>
    <contour>
      <point x="822.199998617" y="-16.6499995589" type="curve" smooth="yes"/>
      <point x="1191.99999881" y="-16.6499995589"/>
      <point x="1543.24999803" y="245.400001049"/>
      <point x="1543.24999803" y="696.549999774" type="curve" smooth="yes"/>
      <point x="1543.24999803" y="1147.14999849"/>
      <point x="1191.4499988" y="1410.74999911"/>
      <point x="821.649998605" y="1410.74999911" type="curve" smooth="yes"/>
      <point x="452.949998438" y="1410.74999911"/>
      <point x="103.499999166" y="1147.6999985"/>
      <point x="103.499999166" y="696.549999774" type="curve" smooth="yes"/>
      <point x="103.499999166" y="245.400001049"/>
      <point x="453.49999845" y="-16.6499995589"/>
    </contour>
  </outline>
</glyph>
<glyph name="macron" format="1">
  <advance width="931.049996555"/>
  <unicode hex="00AF"/>
  <outline>
    <contour>
      <point x="172.699997783" y="1219.65000051" type="line"/>
      <point x="758.249999464" y="1219.65000051" type="line"/>
      <point x="758.249999464" y="1348.9500013" type="line"/>
      <point x="172.699997783" y="1348.9500013" type="line"/>
    </contour>
  </outline>
</glyph>
<glyph name="degree" format="1">
  <advance width="762.399999619"/>
  <unicode hex="00B0"/>
  <outline>
    <contour>
      <point x="382.200000048" y="916.099999785" type="curve" smooth="yes"/>
      <point x="293.300000548" y="916.099999785"/>
      <point x="217.750000775" y="988.449999273"/>
      <point x="217.750000775" y="1085.74999911" type="curve" smooth="yes"/>
      <point x="217.750000775" y="1181.94999892"/>
      <point x="294.200000525" y="1252.19999838"/>
      <point x="382.75000006" y="1252.19999838" type="curve" smooth="yes"/>
      <point x="471.549999535" y="1252.19999838"/>
      <point x="546.449999273" y="1181.94999892"/>
      <point x="546.449999273" y="1085.74999911" type="curve" smooth="yes"/>
      <point x="546.449999273" y="989.349999249"/>
      <point x="471.549999535" y="916.099999785"/>
    </contour>
    <contour>
      <point x="381.75000006" y="800.099999309" type="curve" smooth="yes"/>
      <point x="547.050000608" y="800.099999309"/>
      <point x="666.700000167" y="936.499999404"/>
      <point x="666.700000167" y="1086.69999921" type="curve" smooth="yes"/>
      <point x="666.700000167" y="1241.34999901"/>
      <point x="542.950000584" y="1369.34999901"/>
      <point x="381.75000006" y="1369.34999901" type="curve" smooth="yes"/>
      <point x="220.699999452" y="1369.34999901"/>
      <point x="97.0499998927" y="1241.34999901"/>
      <point x="97.0499998927" y="1086.69999921" type="curve" smooth="yes"/>
      <point x="97.0499998927" y="932.349999487"/>
      <point x="219.949999392" y="800.099999309"/>
    </contour>
  </outline>
</glyph>
<glyph name="plusminus" format="1">
  <advance width="1112.1000005"/>
  <unicode hex="00B1"/>
  <outline>
    <contour>
      <point x="125.800000429" y="0.0" type="line"/>
      <point x="125.800000429" y="132.900001168" type="line"/>
      <point x="995.650000274" y="132.900001168" type="line"/>
      <point x="995.650000274" y="0.0" type="line"/>
    </contour>
    <contour>
      <point x="482.849999845" y="211.300000787" type="line"/>
      <point x="628.250001132" y="211.300000787" type="line"/>
      <point x="628.250001132" y="564.650000274" type="line"/>
      <point x="968.200001001" y="564.650000274" type="line"/>
      <point x="968.200001001" y="706.600001812" type="line"/>
      <point x="627.700001121" y="706.600001812" type="line"/>
      <point x="627.700001121" y="1051.9500013" type="line"/>
      <point x="482.849999845" y="1051.9500013" type="line"/>
      <point x="482.849999845" y="706.600001812" type="line"/>
      <point x="138.850000083" y="706.600001812" type="line"/>
      <point x="138.850000083" y="564.650000274" type="line"/>
      <point x="482.849999845" y="564.650000274" type="line"/>
    </contour>
  </outline>
</glyph>
<glyph name="acute" format="1">
  <advance width="572.499999166"/>
  <unicode hex="00B4"/>
  <outline>
    <contour>
      <point x="126.100000978" y="1123.74999887" type="line"/>
      <point x="241.250002086" y="1123.74999887" type="line"/>
      <point x="527.700002313" y="1478.44999903" type="line"/>
      <point x="293.750000775" y="1478.44999903" type="line"/>
    </contour>
  </outline>
</glyph>
<glyph name="paragraph" format="1">
  <advance width="1045.45000023"/>
  <unicode hex="00B6"/>
  <outline>
    <contour>
      <point x="426.849998415" y="-141.649999797" type="line"/>
      <point x="556.799999952" y="-141.649999797" type="line"/>
      <point x="556.799999952" y="1272.14999777" type="line"/>
      <point x="739.749998391" y="1272.14999777" type="line"/>
      <point x="739.749998391" y="-141.649999797" type="line"/>
      <point x="858.249999702" y="-141.649999797" type="line"/>
      <point x="858.249999702" y="1272.14999777" type="line"/>
      <point x="927.199999809" y="1272.14999777" type="line"/>
      <point x="927.199999809" y="1405.4499988" type="line"/>
      <point x="512.650000751" y="1405.4499988" type="line" smooth="yes"/>
      <point x="225.350001395" y="1405.4499988"/>
      <point x="90.0999993086" y="1266.10000026"/>
      <point x="90.0999993086" y="1085.94999868" type="curve" smooth="yes"/>
      <point x="90.0999993086" y="919.949998438"/>
      <point x="229.199998856" y="762.249998987"/>
      <point x="426.849998415" y="754.049998701" type="curve"/>
    </contour>
  </outline>
</glyph>
<glyph name="cedilla" format="1">
  <advance width="536.049999416"/>
  <unicode hex="00B8"/>
  <outline>
    <contour>
      <point x="91.8999987841" y="-353.699998498" type="line"/>
      <point x="246.450000226" y="-353.699998498" type="line"/>
      <point x="289.200000525" y="26.2500008941" type="line"/>
      <point x="196.649999082" y="26.2500008941" type="line"/>
    </contour>
  </outline>
</glyph>
<glyph name="guillemotright" format="1">
  <advance width="973.700001359"/>
  <unicode hex="00BB"/>
  <outline>
    <contour>
      <point x="244.650001228" y="132.149999678" type="line"/>
      <point x="525.050001562" y="508.500000358" type="line"/>
      <point x="245.650001228" y="891.900000691" type="line"/>
      <point x="111.899999499" y="854.750000298" type="line"/>
      <point x="348.549999774" y="513.150000155" type="line"/>
      <point x="110.799999475" y="169.400000095" type="line"/>
    </contour>
    <contour>
      <point x="606.200001717" y="132.149999678" type="line"/>
      <point x="878.250002325" y="508.500000358" type="line"/>
      <point x="609.200001717" y="891.900000691" type="line"/>
      <point x="468.900000215" y="854.750000298" type="line"/>
      <point x="710.450000226" y="513.150000155" type="line"/>
      <point x="464.450000226" y="169.400000095" type="line"/>
    </contour>
  </outline>
</glyph>
<glyph name="threequarters" format="1">
  <advance width="1518.89999902"/>
  <unicode hex="00BE"/>
  <outline>
    <contour>
      <point x="326.649999559" y="572.349999726" type="curve" smooth="yes"/>
      <point x="466.349999726" y="572.349999726"/>
      <point x="586.350000203" y="658.849999607"/>
      <point x="586.350000203" y="812.499999881" type="curve" smooth="yes"/>
      <point x="586.350000203" y="899.799999714"/>
      <point x="533.000000238" y="970.199999571"/>
      <point x="448.350000918" y="1000.39999962" type="curve"/>
      <point x="542.700000644" y="1030.5999999"/>
      <point x="568.350000203" y="1113.10000002"/>
      <point x="568.350000203" y="1157.19999933" type="curve" smooth="yes"/>
      <point x="568.350000203" y="1302.4999994"/>
      <point x="448.449999988" y="1371.64999932"/>
      <point x="327.749999821" y="1371.64999932" type="curve" smooth="yes"/>
      <point x="241.94999963" y="1371.64999932"/>
      <point x="138.299999833" y="1339.19999933"/>
      <point x="81.5999996662" y="1283.94999939" type="curve"/>
      <point x="138.24999994" y="1191.94999892" type="line"/>
      <point x="175.129299917" y="1225.08699873"/>
      <point x="256.810249687" y="1251.93099865"/>
      <point x="319.806199687" y="1251.93099865" type="curve" smooth="yes"/>
      <point x="385.774249688" y="1251.93099865"/>
      <point x="426.749999344" y="1217.68649874"/>
      <point x="426.749999344" y="1153.89999926" type="curve" smooth="yes"/>
      <point x="426.749999344" y="1087.34999973"/>
      <point x="369.200000048" y="1050.6499998"/>
      <point x="273.899999976" y="1050.6499998" type="curve" smooth="yes"/>
      <point x="202.44999975" y="1050.6499998" type="line"/>
      <point x="202.44999975" y="931.249999225" type="line"/>
      <point x="275.149999917" y="931.799999237" type="line"/>
      <point x="377.299999833" y="931.799999237"/>
      <point x="445.499999404" y="893.799999475"/>
      <point x="445.499999404" y="815.399999857" type="curve" smooth="yes"/>
      <point x="445.499999404" y="731.574100197"/>
      <point x="391.197949624" y="692.572000356"/>
      <point x="317.281199622" y="692.572000356" type="curve" smooth="yes"/>
      <point x="260.091399653" y="692.572000356"/>
      <point x="178.93889979" y="714.763850271"/>
      <point x="135.699999928" y="753.150000155" type="curve"/>
      <point x="85.9999997616" y="650.849999607" type="line"/>
      <point x="146.24999994" y="595.999999762"/>
      <point x="247.899999499" y="572.349999726"/>
    </contour>
    <contour>
      <point x="1212.74999911" y="10.9000002146" type="line"/>
      <point x="1344.29999983" y="10.9000002146" type="line"/>
      <point x="1344.84999985" y="180.799999952" type="line"/>
      <point x="1456.59999967" y="180.799999952" type="line"/>
      <point x="1451.44999975" y="293.250000656" type="line"/>
      <point x="1346.29999983" y="293.250000656" type="line"/>
      <point x="1346.29999983" y="803.350000441" type="line"/>
      <point x="1203.19999909" y="803.350000441" type="line"/>
      <point x="857.649999082" y="284.600000858" type="line"/>
      <point x="857.649999082" y="180.799999952" type="line"/>
      <point x="1212.74999911" y="180.799999952" type="line"/>
    </contour>
    <contour>
      <point x="292.149998486" y="10.4500002265" type="line"/>
      <point x="455.199999571" y="10.4500002265" type="line"/>
      <point x="1326.75000054" y="1374.44999927" type="line"/>
      <point x="1167.44999951" y="1374.44999927" type="line"/>
    </contour>
    <contour>
      <point x="1017.65000004" y="293.250000656" type="line"/>
      <point x="1211.64999908" y="602.449999273" type="line"/>
      <point x="1211.64999908" y="293.250000656" type="line"/>
    </contour>
  </outline>
</glyph>
<glyph name="Eth" format="1">
  <advance width="1458.34999686"/>
  <unicode hex="00D0"/>
  <outline>
    <contour>
      <point x="380.499999642" y="158.800001383" type="line"/>
      <point x="539.799995422" y="367.250005901" type="line"/>
      <point x="701.799991131" y="367.250005901"/>
      <point x="898.399990559" y="450.050003707"/>
      <point x="898.399990559" y="624.649999082" type="curve"/>
      <point x="898.399990559" y="839.299993396"/>
      <point x="764.749994099" y="998.799993992"/>
      <point x="592.399998665" y="998.799993992" type="curve"/>
      <point x="380.499999642" y="998.799993992" type="line"/>
      <point x="380.499999642" y="960.400004625" type="line"/>
      <point x="559.149998009" y="960.400004625" type="line" smooth="yes"/>
      <point x="756.050002277" y="960.400004625"/>
      <point x="857.800004482" y="862.100004315"/>
      <point x="857.800004482" y="666.300000072" type="curve" smooth="yes"/>
      <point x="857.800004482" y="502.949996531"/>
      <point x="652.750005543" y="414.399994612"/>
      <point x="489.400002003" y="414.399994612" type="curve" smooth="yes"/>
    </contour>
    <contour>
      <point x="199.09999764" y="0.100000023842" type="line"/>
      <point x="440.550002873" y="300.249992073" type="line" smooth="yes"/>
      <point x="679.800008059" y="300.249992073"/>
      <point x="800.200012922" y="426.199994802"/>
      <point x="800.200012922" y="667.100000024" type="curve" smooth="yes"/>
      <point x="800.200012922" y="939.350005925"/>
      <point x="613.200008869" y="1074.50000703"/>
      <point x="348.650003135" y="1074.50000703" type="curve" smooth="yes"/>
      <point x="199.09999764" y="1074.50000703" type="line"/>
      <point x="199.09999764" y="1041.14999276" type="line"/>
      <point x="283.849992454" y="1041.14999276" type="line"/>
      <point x="491.749986947" y="1041.14999276"/>
      <point x="646.999982834" y="870.849992454"/>
      <point x="646.999982834" y="626.049998939" type="curve"/>
      <point x="646.999982834" y="417.700004458"/>
      <point x="582.049987495" y="321.850006998"/>
      <point x="390.349992573" y="321.850006998" type="curve"/>
    </contour>
  </outline>
</glyph>
<glyph name="multiply" format="1">
  <advance width="985.650006473"/>
  <unicode hex="00D7"/>
  <outline>
    <contour>
      <point x="246.100003362" y="156.099999309" type="line"/>
      <point x="497.700003743" y="436.599998951" type="line"/>
      <point x="748.200004101" y="156.099999309" type="line"/>
      <point x="854.400004864" y="257.600000381" type="line"/>
      <point x="854.400004864" y="257.600000381"/>
      <point x="608.450006187" y="530.599998474"/>
      <point x="594.750004828" y="546.999999762" type="curve"/>
      <point x="854.400004864" y="838.249999225" type="line"/>
      <point x="749.900004029" y="938.000000238" type="line"/>
      <point x="497.700003743" y="656.400000572" type="line"/>
      <point x="244.300003409" y="938.000000238" type="line"/>
      <point x="140.650002658" y="838.349999249" type="line"/>
      <point x="399.550002635" y="546.999999762" type="line"/>
      <point x="140.650002658" y="257.500000358" type="line"/>
    </contour>
  </outline>
</glyph>
<glyph name="Oslash" format="1">
  <advance width="1553.0"/>
  <unicode hex="00D8"/>
  <outline>
    <contour>
      <point x="496.500000596" y="-219.000000238" type="line"/>
      <point x="1177.5000006" y="1520.99999976" type="line"/>
      <point x="1069.0" y="1562.0" type="line"/>
      <point x="393.0" y="-183.0" type="line"/>
    </contour>
    <contour>
      <point x="827.0" y="1349.0" type="move"/>
    </contour>
    <component base="O"/>
  </outline>
</glyph>
<glyph name="germandbls" format="1">
  <advance width="1135.4500007"/>
  <unicode hex="00DF"/>
  <outline>
    <contour>
      <point x="341.300001025" y="0.0" type="line"/>
      <point x="153.049999416" y="0.0" type="line"/>
      <point x="153.049999416" y="942.099999785" type="line" smooth="yes"/>
      <point x="153.049999416" y="1210.99999976"/>
      <point x="281.75000006" y="1374.2499997"/>
      <point x="560.100000024" y="1374.2499997" type="curve" smooth="yes"/>
      <point x="771.950000107" y="1374.2499997"/>
      <point x="928.050001085" y="1266.30000007"/>
      <point x="928.050001085" y="1077.39999938" type="curve" smooth="yes"/>
      <point x="928.050001085" y="868.54999882"/>
      <point x="742.900001645" y="788.699999928"/>
      <point x="742.900001645" y="710.000000238" type="curve" smooth="yes"/>
      <point x="742.900001645" y="607.930450532"/>
      <point x="1088.5500012" y="555.57705062"/>
      <point x="1088.5500012" y="277.05000037" type="curve" smooth="yes"/>
      <point x="1088.5500012" y="93.3499999642"/>
      <point x="967.050000846" y="-19.6500000358"/>
      <point x="771.650000513" y="-19.6500000358" type="curve" smooth="yes"/>
      <point x="663.200001001" y="-19.6500000358"/>
      <point x="550.750001252" y="10.4499997497"/>
      <point x="463.500000596" y="49.9499998689" type="curve"/>
      <point x="511.15000087" y="186.700000882" type="line"/>
      <point x="558.700000644" y="161.750001013"/>
      <point x="648.450000465" y="128.800001144"/>
      <point x="741.799999952" y="128.800001144" type="curve" smooth="yes"/>
      <point x="845.699999213" y="128.800001144"/>
      <point x="901.349999487" y="188.950000346"/>
      <point x="901.349999487" y="277.950000584" type="curve" smooth="yes"/>
      <point x="901.349999487" y="465.195700101"/>
      <point x="563.149999917" y="513.180950128"/>
      <point x="563.149999917" y="691.550000012" type="curve" smooth="yes"/>
      <point x="563.149999917" y="845.75000006"/>
      <point x="751.549999774" y="896.949999869"/>
      <point x="751.999999762" y="1073.44999927" type="curve" smooth="yes"/>
      <point x="752.242549755" y="1166.3999989"/>
      <point x="686.69999969" y="1231.6999985"/>
      <point x="567.800000191" y="1231.6999985" type="curve" smooth="yes"/>
      <point x="401.60000062" y="1231.6999985"/>
      <point x="341.300001025" y="1141.94999844"/>
      <point x="341.300001025" y="943.399999619" type="curve" smooth="yes"/>
    </contour>
  </outline>
</glyph>
<glyph name="ae" format="1">
  <advance width="1634.44999927"/>
  <unicode hex="00E6"/>
  <outline>
    <contour>
      <point x="411.299999833" y="-16.3000000715" type="curve" smooth="yes"/>
      <point x="575.699999928" y="-16.3000000715"/>
      <point x="747.999999523" y="53.9999997616"/>
      <point x="830.099999547" y="140.14999944" type="curve"/>
      <point x="902.549999535" y="39.1999998093"/>
      <point x="1008.04999918" y="-18.0"/>
      <point x="1168.1499992" y="-18.0" type="curve" smooth="yes"/>
      <point x="1322.59999943" y="-18.0"/>
      <point x="1420.8999995" y="17.0"/>
      <point x="1507.74999934" y="77.2500001788" type="curve"/>
      <point x="1452.84999889" y="200.20000124" type="line"/>
      <point x="1370.39999962" y="153.650001466"/>
      <point x="1288.94999939" y="123.900001168"/>
      <point x="1183.69999921" y="123.900001168" type="curve"/>
      <point x="1009.2499997" y="125.000001192"/>
      <point x="904.950000584" y="218.000000715"/>
      <point x="895.400000572" y="450.749999344" type="curve"/>
      <point x="1400.4000001" y="450.749999344"/>
      <point x="1530.04999965" y="558.800000668"/>
      <point x="1530.04999965" y="730.199999809" type="curve" smooth="yes"/>
      <point x="1530.04999965" y="875.872942607"/>
      <point x="1431.50063222" y="1028.75000054"/>
      <point x="1173.59999943" y="1028.75000054" type="curve" smooth="yes"/>
      <point x="1028.49999964" y="1028.75000054"/>
      <point x="883.900000215" y="951.950000823"/>
      <point x="832.749999821" y="829.450001895" type="curve"/>
      <point x="805.599999428" y="968.750000775"/>
      <point x="688.799999952" y="1029.20000052"/>
      <point x="529.350000441" y="1029.20000052" type="curve" smooth="yes"/>
      <point x="392.671799434" y="1029.20000052"/>
      <point x="234.820262707" y="987.799816174"/>
      <point x="148.349999487" y="938.950000346" type="curve"/>
      <point x="202.399999857" y="812.299999356" type="line"/>
      <point x="275.999999523" y="847.549999058"/>
      <point x="413.149999678" y="887.099999309"/>
      <point x="519.649999797" y="887.099999309" type="curve"/>
      <point x="665.349999249" y="883.799999237"/>
      <point x="716.149998963" y="813.69999969"/>
      <point x="716.149998963" y="682.050000131" type="curve" smooth="yes"/>
      <point x="716.149998963" y="578.05000037" type="line"/>
      <point x="583.24999994" y="578.05000037" type="line" smooth="yes"/>
      <point x="276.250000417" y="578.05000037"/>
      <point x="105.899999738" y="502.150000632"/>
      <point x="105.899999738" y="288.000000238" type="curve" smooth="yes"/>
      <point x="105.899999738" y="95.6000006199"/>
      <point x="234.349999487" y="-16.3000000715"/>
    </contour>
    <contour>
      <point x="436.75000006" y="119.700000882" type="curve" smooth="yes"/>
      <point x="340.85000056" y="119.700000882"/>
      <point x="281.250001132" y="171.250000656"/>
      <point x="281.250001132" y="284.149999917" type="curve" smooth="yes"/>
      <point x="281.250001132" y="393.749999344"/>
      <point x="350.000000954" y="452.099999309"/>
      <point x="582.799999475" y="452.099999309" type="curve" smooth="yes"/>
      <point x="718.899999022" y="452.099999309" type="line"/>
      <point x="721.09999907" y="382.799999475"/>
      <point x="739.049999177" y="298.299999595"/>
      <point x="758.599998951" y="251.050000131" type="curve"/>
      <point x="678.449999034" y="175.400000572"/>
      <point x="541.299999595" y="119.700000882"/>
    </contour>
    <contour>
      <point x="897.750000536" y="575.800000429" type="curve"/>
      <point x="919.300000548" y="797.800000668"/>
      <point x="1042.55000073" y="897.649999559"/>
      <point x="1187.39999962" y="897.649999559" type="curve" smooth="yes"/>
      <point x="1314.24999875" y="897.649999559"/>
      <point x="1381.39999843" y="829.850000083"/>
      <point x="1381.39999843" y="734.950000107" type="curve" smooth="yes"/>
      <point x="1381.39999843" y="621.300000787"/>
      <point x="1251.8999995" y="575.800000429"/>
    </contour>
  </outline>
</glyph>
<glyph name="eth" format="1">
  <advance width="1145.19999814"/>
  <unicode hex="00F0"/>
  <outline>
    <contour>
      <point x="577.699999452" y="-21.4999998808" type="curve" smooth="yes"/>
      <point x="883.399999142" y="-21.4999998808"/>
      <point x="1049.09999979" y="172.099999309"/>
      <point x="1049.09999979" y="441.999999523" type="curve"/>
      <point x="1048.54999977" y="570.499999642"/>
      <point x="1017.39999962" y="683.099999785"/>
      <point x="955.549999774" y="795.199999332" type="curve"/>
      <point x="887.599999666" y="912.849999368"/>
      <point x="786.299999833" y="1033.34999901"/>
      <point x="653.000000715" y="1177.9499982" type="curve"/>
      <point x="865.049999893" y="1259.94999796" type="line"/>
      <point x="818.699999452" y="1390.34999901" type="line"/>
      <point x="560.24999994" y="1288.74999911" type="line"/>
      <point x="434.200000525" y="1427.84999865" type="line"/>
      <point x="213.149998724" y="1427.84999865" type="line"/>
      <point x="421.099998116" y="1222.54999858" type="line"/>
      <point x="229.799998999" y="1147.74999887" type="line"/>
      <point x="273.699999452" y="1015.1999979" type="line"/>
      <point x="516.049998939" y="1113.64999765" type="line"/>
      <point x="637.149996579" y="995.399999857"/>
      <point x="725.949996531" y="880.100000262"/>
      <point x="767.099996448" y="809.15000087" type="curve"/>
      <point x="718.699996829" y="839.850000322"/>
      <point x="646.049997509" y="879.099999547"/>
      <point x="544.249999225" y="879.099999547" type="curve" smooth="yes"/>
      <point x="279.399999142" y="879.099999547"/>
      <point x="104.549999058" y="703.149999678"/>
      <point x="104.549999058" y="439.749999821" type="curve" smooth="yes"/>
      <point x="104.549999058" y="186.349999487"/>
      <point x="278.249999702" y="-21.4999998808"/>
    </contour>
    <contour>
      <point x="583.799999475" y="123.200001478" type="curve" smooth="yes"/>
      <point x="385.500000358" y="123.200001478"/>
      <point x="284.000000477" y="271.500000358"/>
      <point x="284.000000477" y="439.399999857" type="curve" smooth="yes"/>
      <point x="284.000000477" y="607.449999511"/>
      <point x="390.75000006" y="740.199998617"/>
      <point x="577.799999475" y="740.199998617" type="curve" smooth="yes"/>
      <point x="772.049998701" y="740.199998617"/>
      <point x="878.749998391" y="591.899999738"/>
      <point x="878.749998391" y="430.0" type="curve" smooth="yes"/>
      <point x="878.749998391" y="255.050000608"/>
      <point x="773.249998748" y="123.200001478"/>
    </contour>
  </outline>
</glyph>
<glyph name="divide" format="1">
  <advance width="1153.30000341"/>
  <unicode hex="00F7"/>
  <outline>
    <contour>
      <point x="472.650001228" y="19.3499999642" type="line"/>
      <point x="663.800003052" y="19.3499999642" type="line"/>
      <point x="663.800003052" y="240.300001025" type="line"/>
      <point x="472.650001228" y="240.300001025" type="line"/>
    </contour>
    <contour>
      <point x="112.150001109" y="467.849999368" type="line"/>
      <point x="1039.40000272" y="467.849999368" type="line"/>
      <point x="1039.40000272" y="616.500000358" type="line"/>
      <point x="112.150001109" y="616.500000358" type="line"/>
    </contour>
    <contour>
      <point x="472.650001228" y="839.749998868" type="line"/>
      <point x="689.800002575" y="839.749998868" type="line"/>
      <point x="689.800002575" y="1057.34999973" type="line"/>
      <point x="472.650001228" y="1057.34999973" type="line"/>
    </contour>
  </outline>
</glyph>
<glyph name="oslash" format="1">
  <advance width="1150.0"/>
  <unicode hex="00F8"/>
  <outline>
    <contour>
      <point x="275.550000012" y="-141.0" type="line"/>
      <point x="956.550000012" y="1108.0" type="line"/>
      <point x="886.949999869" y="1145.70000017" type="line"/>
      <point x="211.949999869" y="-102.299999833" type="line"/>
    </contour>
    <component base="o"/>
  </outline>
</glyph>
<glyph name="Dcroat" format="1">
  <advance width="1450.0"/>
  <unicode hex="0110"/>
  <outline>
    <contour>
      <point x="57.0" y="652.0" type="line"/>
      <point x="324.850005805" y="690.249998987" type="line"/>
      <point x="544.0" y="737.0" type="line"/>
      <point x="276.149994195" y="698.750001013" type="line"/>
    </contour>
    <component base="D"/>
  </outline>
</glyph>
<glyph name="Hbar" format="1">
  <advance width="1427.09999692"/>
  <unicode hex="0126"/>
  <outline>
    <contour>
      <point x="177.9499982" y="0.0" type="line"/>
      <point x="319.300001264" y="462.149987757" type="line"/>
      <point x="279.700002313" y="789.39999485" type="line"/>
      <point x="606.950009406" y="819.549994051" type="line"/>
      <point x="646.550008357" y="492.299986959" type="line"/>
      <point x="788.450011432" y="620.099983573" type="line"/>
      <point x="828.050010383" y="1207.4999963" type="line"/>
      <point x="869.300011277" y="1079.69999969" type="line"/>
      <point x="1254.05000108" y="1155.05000132" type="line"/>
      <point x="1212.80000019" y="1282.84999794" type="line"/>
      <point x="1252.39999914" y="1354.34999949" type="line"/>
      <point x="1110.49999607" y="1226.55000287" type="line"/>
      <point x="1149.64999503" y="1155.05000132" type="line"/>
      <point x="822.399987936" y="1124.90000212" type="line"/>
      <point x="783.249988973" y="1196.40000367" type="line"/>
      <point x="641.899985909" y="734.250015914" type="line"/>
      <point x="602.299986959" y="662.750014365" type="line"/>
      <point x="561.049986064" y="958.850006521" type="line"/>
      <point x="176.299996257" y="883.500004888" type="line"/>
      <point x="217.549997151" y="587.400012732" type="line"/>
    </contour>
    <contour>
      <point x="358.900000215" y="775.850000322" type="line"/>
      <point x="743.649990022" y="929.85000366" type="line"/>
      <point x="1070.89999712" y="1049.55000049" type="line"/>
      <point x="686.150007308" y="895.549997151" type="line"/>
    </contour>
  </outline>
</glyph>
<glyph name="hbar" format="1">
  <advance width="1111.29999816"/>
  <unicode hex="0127"/>
  <outline>
    <contour>
      <point x="172.699997783" y="0.0" type="line"/>
      <point x="345.349999726" y="0.0" type="line"/>
      <point x="345.349999726" y="682.400000095" type="line"/>
      <point x="373.850000083" y="774.599999905"/>
      <point x="492.799999475" y="879.999999046"/>
      <point x="639.549998581" y="879.999999046" type="curve" smooth="yes"/>
      <point x="799.249997556" y="879.999999046"/>
      <point x="828.499997497" y="783.249999702"/>
      <point x="828.499997497" y="572.15000087" type="curve" smooth="yes"/>
      <point x="828.499997497" y="0.0" type="line"/>
      <point x="1001.14999944" y="0.0" type="line"/>
      <point x="1001.14999944" y="606.900000215" type="line" smooth="yes"/>
      <point x="1001.14999944" y="880.150001109"/>
      <point x="894.999998331" y="1025.90000021"/>
      <point x="690.499998689" y="1025.90000021" type="curve" smooth="yes"/>
      <point x="544.449999273" y="1025.90000021"/>
      <point x="428.749999583" y="972.750000536"/>
      <point x="345.349999726" y="877.500001073" type="curve"/>
      <point x="345.349999726" y="1143.99999905" type="line"/>
      <point x="598.149999917" y="1143.99999905" type="line"/>
      <point x="598.149999917" y="1257.99999976" type="line"/>
      <point x="345.349999726" y="1257.99999976" type="line"/>
      <point x="345.349999726" y="1377.10000026" type="line"/>
      <point x="172.699997783" y="1359.10000026" type="line"/>
      <point x="172.699997783" y="1257.99999976" type="line"/>
      <point x="86.7499976754" y="1257.99999976" type="line"/>
      <point x="86.7499976754" y="1143.99999905" type="line"/>
      <point x="172.699997783" y="1143.99999905" type="line"/>
    </contour>
  </outline>
</glyph>
<glyph name="dotlessi" format="1">
  <advance width="449.900001884"/>
  <unicode hex="0131"/>
  <outline>
    <contour>
      <point x="141.049999893" y="0.0" type="line"/>
      <point x="319.650001943" y="0.0" type="line"/>
      <point x="319.650001943" y="1003.40000033" type="line"/>
      <point x="141.049999893" y="1003.40000033" type="line"/>
    </contour>
  </outline>
</glyph>
<glyph name="Eng" format="1">
  <advance width="1282.44999903"/>
  <unicode hex="014A"/>
  <outline>
    <contour>
      <point x="762.299999356" y="-299.600000143" type="curve" smooth="yes"/>
      <point x="933.950003922" y="-299.600000143"/>
      <point x="985.150006115" y="-212.799998283"/>
      <point x="909.10000813" y="-45.5499950051" type="curve" smooth="yes"/>
      <point x="899.65000838" y="390.250012815" type="line" smooth="yes"/>
      <point x="983.800006151" y="552.400016546"/>
      <point x="898.650004566" y="654.250018775"/>
      <point x="752.750000775" y="654.250018775" type="curve" smooth="yes"/>
      <point x="819.549995244" y="654.250018775"/>
      <point x="732.049992979" y="652.600017071"/>
      <point x="680.89999187" y="732.400012255" type="curve"/>
      <point x="668.799991608" y="1163.35000473" type="line"/>
      <point x="668.799991608" y="1280.80000162"/>
      <point x="495.149989426" y="1318.15000063"/>
      <point x="389.399992228" y="1318.15000063" type="curve"/>
      <point x="269.24999541" y="1318.15000063"/>
      <point x="199.04999727" y="510.74998647"/>
      <point x="157.649998367" y="454.049987972" type="curve"/>
      <point x="316.0500018" y="0.0" type="line"/>
      <point x="287.700002551" y="529.65001148" type="line"/>
      <point x="331.150003493" y="604.450013101"/>
      <point x="413.500005364" y="1253.54999739"/>
      <point x="471.800006628" y="1253.54999739" type="curve" smooth="yes"/>
      <point x="552.65000838" y="1253.54999739"/>
      <point x="613.450008333" y="1210.64999646"/>
      <point x="613.450008333" y="1093.49999392" type="curve" smooth="yes"/>
      <point x="618.85000819" y="593.949987948" type="line" smooth="yes"/>
      <point x="717.400005579" y="605.249983251"/>
      <point x="773.200003386" y="584.749982417"/>
      <point x="762.249999464" y="584.749982417" type="curve" smooth="yes"/>
      <point x="856.699996829" y="584.749982417"/>
      <point x="875.449994743" y="518.699984193"/>
      <point x="853.449994266" y="384.899987817" type="curve"/>
      <point x="864.449994504" y="-95.8000054359" type="line"/>
      <point x="883.699994922" y="-220.850002229"/>
      <point x="902.099995494" y="-299.600000143"/>
    </contour>
  </outline>
</glyph>
<glyph name="eng" format="1">
  <advance width="1084.19999886"/>
  <unicode hex="014B"/>
  <outline>
    <contour>
      <point x="587.949999869" y="-289.250001132" type="line"/>
      <point x="651.399999857" y="-289.250001132" type="line" smooth="yes"/>
      <point x="931.500000834" y="-289.250001132"/>
      <point x="977.100001216" y="-146.750001013"/>
      <point x="977.650001228" y="132.949999154" type="curve"/>
      <point x="977.650001228" y="619.300000548" type="line" smooth="yes"/>
      <point x="977.650001228" y="882.900000215"/>
      <point x="874.550000966" y="1024.80000043"/>
      <point x="643.600000858" y="1024.80000043" type="curve" smooth="yes"/>
      <point x="501.250000894" y="1024.80000043"/>
      <point x="398.550000966" y="966.850000322"/>
      <point x="324.850000799" y="866.90000093" type="curve"/>
      <point x="304.900000691" y="1002.50000036" type="line"/>
      <point x="143.699999452" y="1002.50000036" type="line"/>
      <point x="143.699999452" y="0.0" type="line"/>
      <point x="335.800001144" y="0.0" type="line"/>
      <point x="335.800001144" y="533.349999011" type="line" smooth="yes"/>
      <point x="335.800001144" y="593.249999702"/>
      <point x="338.800001144" y="646.100000262"/>
      <point x="345.950001299" y="692.750000536" type="curve"/>
      <point x="377.450001419" y="797.999999762"/>
      <point x="454.50000155" y="877.749999106"/>
      <point x="602.900000215" y="877.749999106" type="curve" smooth="yes"/>
      <point x="750.499999642" y="877.749999106"/>
      <point x="784.999999523" y="781.249999464"/>
      <point x="785.549999535" y="620.099999785" type="curve"/>
      <point x="785.549999535" y="84.5999991894" type="line" smooth="yes"/>
      <point x="785.549999535" y="-102.250000179"/>
      <point x="769.649999559" y="-131.100000262"/>
      <point x="617.0" y="-131.100000262" type="curve" smooth="yes"/>
      <point x="573.649999559" y="-131.100000262" type="line"/>
    </contour>
  </outline>
</glyph>
<glyph name="OE" format="1">
  <advance width="1877.90000117"/>
  <unicode hex="0152"/>
  <outline>
    <contour>
      <point x="760.749999106" y="-20.1499999166" type="curve" smooth="yes"/>
      <point x="615.200006008" y="-20.1499999166"/>
      <point x="591.750009596" y="132.399996996"/>
      <point x="633.550010502" y="360.399992228" type="curve"/>
      <point x="639.850010335" y="539.049987495"/>
      <point x="750.550007403" y="633.549983323"/>
      <point x="912.550003111" y="633.549983323" type="curve"/>
      <point x="977.800001383" y="633.549983323"/>
      <point x="1504.95001012" y="611.499983907"/>
      <point x="1529.70000947" y="583.149984658" type="curve"/>
      <point x="1539.60000968" y="732.6999861" type="line"/>
      <point x="1427.29999602" y="732.6999861" type="line"/>
      <point x="1421.44999617" y="902.449991882" type="line"/>
      <point x="1544.3000077" y="902.449991882" type="line"/>
      <point x="1544.3000077" y="776.400000572" type="line"/>
      <point x="1404.34999663" y="776.400000572" type="line"/>
      <point x="1404.34999663" y="916.550005734" type="line"/>
      <point x="1558.60000801" y="916.550005734" type="line"/>
      <point x="1568.50000823" y="780.45001477" type="line"/>
      <point x="1299.99999285" y="780.45001477" type="line"/>
      <point x="1295.04999298" y="701.550015271" type="line"/>
      <point x="1248.29999197" y="731.250015914"/>
      <point x="956.049997032" y="748.300016284"/>
      <point x="888.949995577" y="748.300016284" type="curve" smooth="yes"/>
      <point x="683.799991131" y="748.300016284"/>
      <point x="529.249987781" y="626.150011837"/>
      <point x="527.599987745" y="407.800007105" type="curve"/>
      <point x="522.649987876" y="169.600002766"/>
      <point x="591.799993277" y="-20.1499999166"/>
    </contour>
    <contour>
      <point x="761.449999034" y="134.800001383" type="curve" smooth="yes"/>
      <point x="656.199994564" y="135.350001395"/>
      <point x="652.799991131" y="289.900003314"/>
      <point x="666.749990761" y="434.850006282" type="curve"/>
      <point x="667.849990785" y="575.650009334"/>
      <point x="745.399992466" y="1182.94999939"/>
      <point x="888.949995577" y="1182.94999939" type="curve" smooth="yes"/>
      <point x="933.19999814" y="1206.79999876"/>
      <point x="940.800000668" y="1199.64999765"/>
      <point x="923.800002813" y="1164.9999969" type="curve"/>
      <point x="779.35000664" y="1164.9999969"/>
      <point x="689.350009024" y="645.399990559"/>
      <point x="684.400009155" y="484.299994826" type="curve"/>
      <point x="650.850008428" y="289.899998546"/>
      <point x="649.250005662" y="137.500001311"/>
    </contour>
    <contour>
      <point x="938.950000584" y="607.049983919" type="move"/>
    </contour>
  </outline>
</glyph>
<glyph name="uni0237" format="1">
  <advance width="481.900002122"/>
  <unicode hex="0237"/>
  <outline>
    <contour>
      <point x="-30.9999992847" y="-410.049999177" type="line"/>
      <point x="24.9500008225" y="-410.049999177" type="line" smooth="yes"/>
      <point x="292.550002158" y="-410.049999177"/>
      <point x="346.450002372" y="-310.649998128"/>
      <point x="346.450002372" y="-58.0999974012" type="curve" smooth="yes"/>
      <point x="346.450002372" y="1011.60000014" type="line"/>
      <point x="147.450000942" y="1011.60000014" type="line"/>
      <point x="147.450000942" y="-58.8999985456" type="line" smooth="yes"/>
      <point x="147.450000942" y="-209.299998403"/>
      <point x="157.400000334" y="-257.19999814"/>
      <point x="-2.94999915361" y="-257.19999814" type="curve" smooth="yes"/>
      <point x="-60.8999992609" y="-257.19999814" type="line"/>
    </contour>
  </outline>
</glyph>
<glyph name="uni02BC" format="1">
  <advance width="431.649997413"/>
  <unicode hex="02BC"/>
  <outline>
    <contour>
      <point x="114.849999368" y="971.049997509" type="line"/>
      <point x="228.800000191" y="971.049997509" type="line"/>
      <point x="336.049998701" y="1412.79999852" type="line"/>
      <point x="180.399997473" y="1412.79999852" type="line"/>
    </contour>
  </outline>
</glyph>
<glyph name="circumflex" format="1">
  <advance width="717.799998999"/>
  <unicode hex="02C6"/>
  <outline>
    <contour>
      <point x="83.6499986053" y="1114.29999816" type="line"/>
      <point x="216.049999893" y="1114.29999816" type="line"/>
      <point x="362.099999785" y="1348.79999709" type="line"/>
      <point x="511.100000024" y="1114.29999816" type="line"/>
      <point x="645.800001383" y="1114.29999816" type="line"/>
      <point x="459.75000006" y="1471.04999846" type="line"/>
      <point x="276.799999714" y="1471.04999846" type="line"/>
    </contour>
  </outline>
</glyph>
<glyph name="caron" format="1">
  <advance width="717.249998987"/>
  <unicode hex="02C7"/>
  <outline>
    <contour>
      <point x="271.899999976" y="1131.34999853" type="line"/>
      <point x="451.55000025" y="1131.34999853" type="line"/>
      <point x="651.850001514" y="1471.04999846" type="line"/>
      <point x="506.24999994" y="1471.04999846" type="line"/>
      <point x="355.799999952" y="1249.19999981" type="line"/>
      <point x="222.200000048" y="1471.04999846" type="line"/>
      <point x="79.2499985099" y="1471.04999846" type="line"/>
    </contour>
  </outline>
</glyph>
<glyph name="breve" format="1">
  <advance width="672.399998665"/>
  <unicode hex="02D8"/>
  <outline>
    <contour>
      <point x="337.14999944" y="1161.84999841" type="curve" smooth="yes"/>
      <point x="458.650000274" y="1161.84999841"/>
      <point x="575.650000274" y="1229.84999865"/>
      <point x="575.650000274" y="1389.09999883" type="curve"/>
      <point x="456.599998951" y="1389.09999883" type="line"/>
      <point x="456.599998951" y="1308.74999934"/>
      <point x="404.849999607" y="1272.14999968"/>
      <point x="337.14999944" y="1272.14999968" type="curve" smooth="yes"/>
      <point x="269.449999273" y="1272.14999968"/>
      <point x="220.949999869" y="1308.74999934"/>
      <point x="220.949999869" y="1389.09999883" type="curve"/>
      <point x="101.549998581" y="1389.09999883" type="line"/>
      <point x="101.549998581" y="1229.94999868"/>
      <point x="216.649998605" y="1161.84999841"/>
    </contour>
  </outline>
</glyph>
<glyph name="ring" format="1">
  <advance width="576.950000107"/>
  <unicode hex="02DA"/>
  <outline>
    <contour>
      <point x="292.050000131" y="1194.44999856" type="curve" smooth="yes"/>
      <point x="237.75000006" y="1194.44999856"/>
      <point x="203.450000226" y="1236.99999857"/>
      <point x="203.450000226" y="1288.54999858" type="curve" smooth="yes"/>
      <point x="203.450000226" y="1337.89999855"/>
      <point x="239.950000107" y="1382.64999861"/>
      <point x="292.050000131" y="1382.64999861" type="curve" smooth="yes"/>
      <point x="345.250000179" y="1382.64999861"/>
      <point x="381.200000048" y="1338.44999856"/>
      <point x="381.200000048" y="1288.54999858" type="curve" smooth="yes"/>
      <point x="381.200000048" y="1237.54999858"/>
      <point x="345.250000179" y="1194.44999856"/>
    </contour>
    <contour>
      <point x="292.050000131" y="1112.34999806" type="curve" smooth="yes"/>
      <point x="402.60000062" y="1112.34999806"/>
      <point x="476.900000691" y="1192.74999839"/>
      <point x="476.900000691" y="1288.99999857" type="curve" smooth="yes"/>
      <point x="476.900000691" y="1384.69999874"/>
      <point x="403.700000644" y="1465.09999907"/>
      <point x="292.050000131" y="1465.09999907" type="curve" smooth="yes"/>
      <point x="180.94999963" y="1465.09999907"/>
      <point x="107.199999571" y="1385.24999875"/>
      <point x="107.199999571" y="1288.99999857" type="curve" smooth="yes"/>
      <point x="107.199999571" y="1192.74999839"/>
      <point x="181.499999642" y="1112.34999806"/>
    </contour>
  </outline>
</glyph>
<glyph name="ogonek" format="1">
  <advance width="529.199999332"/>
  <unicode hex="02DB"/>
  <outline>
    <contour>
      <point x="287.300000072" y="-358.899999499" type="curve" smooth="yes"/>
      <point x="338.200000286" y="-358.899999499"/>
      <point x="397.850000322" y="-344.799999475"/>
      <point x="437.100000739" y="-328.299999356" type="curve"/>
      <point x="437.100000739" y="-328.299999356"/>
      <point x="435.500000596" y="-213.399998665"/>
      <point x="435.400000572" y="-213.399998665" type="curve" smooth="yes"/>
      <point x="418.900000691" y="-220.199998617"/>
      <point x="369.350000441" y="-243.499998689"/>
      <point x="319.600000381" y="-243.499998689" type="curve" smooth="yes"/>
      <point x="273.992750583" y="-243.499998689"/>
      <point x="250.480350517" y="-213.262798563"/>
      <point x="250.480350517" y="-178.728198577" type="curve" smooth="yes"/>
      <point x="250.480350517" y="-112.974998862"/>
      <point x="314.387599672" y="-17.9034446847"/>
      <point x="376.899999976" y="28.500000596" type="curve"/>
      <point x="290.14999944" y="37.3000007868" type="line"/>
      <point x="202.671449876" y="-1.79015426381"/>
      <point x="103.640899771" y="-99.3450986663"/>
      <point x="103.640899771" y="-210.801248972" type="curve" smooth="yes"/>
      <point x="103.640899771" y="-304.475199511"/>
      <point x="174.879150295" y="-358.899999499"/>
    </contour>
  </outline>
</glyph>
<glyph name="tilde" format="1">
  <advance width="780.899997592"/>
  <unicode hex="02DC"/>
  <outline>
    <contour>
      <point x="186.199999332" y="1155.49999869" type="line"/>
      <point x="196.197799465" y="1220.81599871"/>
      <point x="219.64159948" y="1245.47099864"/>
      <point x="251.867399447" y="1245.47099864" type="curve" smooth="yes"/>
      <point x="317.527599324" y="1245.47099864"/>
      <point x="421.770198973" y="1155.49999869"/>
      <point x="522.038449098" y="1155.49999869" type="curve"/>
      <point x="619.799700111" y="1155.49999869"/>
      <point x="670.949999869" y="1241.42400002"/>
      <point x="670.949999869" y="1361.19999957" type="curve"/>
      <point x="573.299999118" y="1361.19999957" type="line"/>
      <point x="563.929249022" y="1302.42349964"/>
      <point x="544.824049051" y="1283.17249968"/>
      <point x="517.20729912" y="1283.17249968" type="curve" smooth="yes"/>
      <point x="461.224449252" y="1283.17249968"/>
      <point x="370.37404954" y="1361.80749955"/>
      <point x="254.291599277" y="1361.80749955" type="curve" smooth="yes"/>
      <point x="144.339998269" y="1361.80749955"/>
      <point x="90.3499985337" y="1277.90649836"/>
      <point x="90.3499985337" y="1155.49999869" type="curve"/>
    </contour>
  </outline>
</glyph>
<glyph name="hungarumlaut" format="1">
  <advance width="769.350002587"/>
  <unicode hex="02DD"/>
  <outline>
    <contour>
      <point x="113.100000262" y="1120.69999802" type="line"/>
      <point x="215.150001347" y="1120.69999802" type="line"/>
      <point x="462.200003147" y="1434.59999871" type="line"/>
      <point x="286.600001812" y="1434.59999871" type="line"/>
    </contour>
    <contour>
      <point x="353.350001156" y="1120.69999802" type="line"/>
      <point x="455.650002182" y="1120.69999802" type="line"/>
      <point x="729.350003541" y="1434.59999871" type="line"/>
      <point x="547.600002289" y="1434.59999871" type="line"/>
    </contour>
  </outline>
</glyph>
<glyph name="uni0311" format="1">
  <advance width="642.999999523"/>
  <unicode hex="0311"/>
  <outline>
    <contour>
      <point x="85.4499990344" y="1166.99999881" type="curve"/>
      <point x="203.500000358" y="1166.99999881" type="line"/>
      <point x="203.500000358" y="1246.59999824"/>
      <point x="256.900000215" y="1283.94999796"/>
      <point x="320.049999893" y="1283.94999796" type="curve" smooth="yes"/>
      <point x="382.849999607" y="1283.94999796"/>
      <point x="439.14999944" y="1246.69999826"/>
      <point x="439.14999944" y="1166.99999881" type="curve"/>
      <point x="558.650000751" y="1166.99999881" type="line"/>
      <point x="558.650000751" y="1322.0499987"/>
      <point x="437.600000381" y="1398.44999856"/>
      <point x="320.899999976" y="1398.44999856" type="curve" smooth="yes"/>
      <point x="203.999999523" y="1398.44999856"/>
      <point x="85.4499990344" y="1321.94999868"/>
    </contour>
  </outline>
</glyph>
<glyph name="uni031B" format="1">
  <advance width="480.450000942"/>
  <unicode hex="031B"/>
  <outline>
    <contour>
      <point x="191.899999976" y="471.400000334" type="line"/>
      <point x="204.400000095" y="439.650000036"/>
      <point x="217.75000006" y="391.950000107"/>
      <point x="217.75000006" y="349.000000238" type="curve" smooth="yes"/>
      <point x="217.75000006" y="295.55000025"/>
      <point x="195.449999988" y="250.700000405"/>
      <point x="122.599999905" y="250.700000405" type="curve" smooth="yes"/>
      <point x="119.899999976" y="250.700000405"/>
      <point x="112.349999964" y="250.700000405"/>
      <point x="108.75000006" y="251.150000393" type="curve"/>
      <point x="108.75000006" y="156.900000215" type="line"/>
      <point x="127.200000048" y="154.450000226"/>
      <point x="144.650000036" y="153.450000226"/>
      <point x="161.200000048" y="153.450000226" type="curve" smooth="yes"/>
      <point x="293.500000119" y="153.450000226"/>
      <point x="338.05000037" y="221.799999952"/>
      <point x="338.05000037" y="307.300000072" type="curve" smooth="yes"/>
      <point x="338.05000037" y="363.949999869"/>
      <point x="318.800000429" y="426.199999809"/>
      <point x="298.350000203" y="471.400000334" type="curve"/>
    </contour>
  </outline>
</glyph>
<glyph name="uni0326" format="1">
  <advance width="278"/>
  <unicode hex="0326"/>
  <outline>
    <contour>
      <point x="48" y="-621" type="line"/>
      <point x="123" y="-183" type="line"/>
      <point x="220" y="-183" type="line"/>
      <point x="109" y="-621" type="line"/>
    </contour>
  </outline>
</glyph>
<glyph name="Delta" format="1">
  <advance width="1296.74999505"/>
  <unicode hex="0394"/>
  <outline>
    <contour>
      <point x="67.6999977827" y="0.0" type="line"/>
      <point x="941.700005412" y="608.399983883" type="line"/>
      <point x="740.69999826" y="1364.65000027" type="line"/>
      <point x="855.049989402" y="756.250016391" type="line"/>
    </contour>
    <contour>
      <point x="299.649999082" y="152.800000906" type="line"/>
      <point x="839.599992752" y="672.000012159" type="line"/>
      <point x="819.350001395" y="654.549987614" type="line"/>
    </contour>
  </outline>
</glyph>
<glyph name="Lambda" format="1">
  <advance width="1296.74999505"/>
  <unicode hex="039B"/>
  <outline>
    <contour>
      <point x="67.5999977589" y="0.0" type="line"/>
      <point x="397.699993968" y="609.749983847" type="line"/>
      <point x="687.849996746" y="1244.99999762" type="line"/>
      <point x="1134.99999547" y="0.0" type="line"/>
      <point x="1166.69999945" y="0.0" type="line"/>
      <point x="698.79999876" y="1298.00000191" type="line"/>
      <point x="409.400001764" y="753.500016332" type="line"/>
    </contour>
  </outline>
</glyph>
<glyph name="Pi" format="1">
  <advance width="1326.69999897"/>
  <unicode hex="03A0"/>
  <outline>
    <contour>
      <point x="133.549999774" y="0.0" type="line"/>
      <point x="230.900001884" y="609.749983847" type="line"/>
      <point x="715.099989057" y="1277.99999833" type="line"/>
      <point x="1099.54999739" y="668.250014484" type="line"/>
      <point x="1032.49999917" y="0.0" type="line"/>
      <point x="1129.85000128" y="552.599985361" type="line"/>
      <point x="780.650010526" y="1306.10000169" type="line"/>
      <point x="201.499997973" y="753.500016332" type="line"/>
    </contour>
  </outline>
</glyph>
<glyph name="Sigma" format="1">
  <advance width="1060.29999864"/>
  <unicode hex="03A3"/>
  <outline>
    <contour>
      <point x="134.299999833" y="0.0" type="line"/>
      <point x="592.450009763" y="607.049983919" type="line"/>
      <point x="958.55000025" y="728.049986541" type="line"/>
      <point x="653.149993718" y="689.349987566" type="line"/>
      <point x="333.200002193" y="895.599992037" type="line"/>
      <point x="610.400008202" y="660.249998271" type="line"/>
      <point x="899.300000548" y="775.750000775" type="line"/>
      <point x="622.09999454" y="735.700001836" type="line"/>
      <point x="333.200002193" y="910.050005615" type="line"/>
      <point x="625.250008523" y="655.80001235" type="line"/>
      <point x="949.900000215" y="776.800014973" type="line"/>
      <point x="490.249990404" y="738.100015998" type="line"/>
    </contour>
  </outline>
</glyph>
